<svg height="48" viewBox="0 0 64 64" width="48" xmlns="http://www.w3.org/2000/svg"><g fill="none" fill-rule="evenodd"><path d="m52 3.03280455c-.3305236-.0217552-.6639714-.03280455-1-.03280455-8.2842712 0-15 6.71572875-15 15 0 8.2842712 6.7157288 15 15 15 .3360286 0 .6694764-.0110494 1-.0328046z" fill="#d8d8d8"/><path d="m28 3.03280455c-.3305236-.0217552-.6639714-.03280455-1-.03280455-8.2842712 0-15 6.71572875-15 15 0 8.2842712 6.7157288 15 15 15 .3360286 0 .6694764-.0110494 1-.0328046z" fill="#d8d8d8" transform="matrix(-1 0 0 1 40 0)"/><circle cx="32" cy="35" fill="#ececec" r="25"/><path d="m19 29c0 2.209139 1.790861 4 4 4s4-1.790861 4-4m9 0c0 2.209139 1.790861 4 4 4s4-1.790861 4-4m-20 15c0 2.209139 1.790861 4 4 4s4-1.790861 4-4m0 0c0 2.209139 1.790861 4 4 4s4-1.790861 4-4" stroke="#979797" stroke-linecap="round" stroke-width="2"/><path d="m32 36 5 7-3.025 2h-3.89l-3.085-2z" fill="#595959" transform="matrix(1 0 0 -1 0 81)"/><path d="m14 34h-12.04159458m12.04159458 4h-12.04159458m12.04159458 4h-12.04159458m61.04159458-8h-12.0415946m12.0415946 4h-12.0415946m12.0415946 4h-12.0415946" stroke="#d8d8d8" stroke-linecap="square" stroke-width="2"/></g></svg>
