<svg height="48" viewBox="0 0 64 64" width="48" xmlns="http://www.w3.org/2000/svg"><g fill="none" fill-rule="evenodd"><rect fill="#5ea7ff" height="56" rx="3" width="41" x="15" y="7"/><circle cx="35.5" cy="3.5" fill="#80d25b" r="2.5"/><path d="m19 11h33v48h-33z" fill="#ececec"/><path d="m31.3214286 24c-2.6036281 0-4.3214286 2.9900983-4.3214286 6.6785714 0 3.6884732 1.7178005 15.3214286 4.3214286 15.3214286 1.5188639 0 1.6913917-9.6604296 3.7321428-9.6691766 2.4336083.008747 2.2132789 9.6691766 3.7321429 9.6691766 2.6036281 0 4.3214286-11.6329554 4.3214286-15.3214286 0-3.6884731-1.7178005-6.6785714-4.3214286-6.6785714-1.2440476 0-2.4880953 1.1785714-3.7321429 1.1785714s-2.4880952-1.1785714-3.7321428-1.1785714z" fill="#5ea7ff"/><path d="m24 16h16.0312195m-16.0312195 34h16.0312195m-16.0312195 4.1421356h8" stroke="#979797" stroke-linecap="square" stroke-width="2"/><path d="m25 8c0-2.209139 1.7904482-4 3.9993692-4h13.0012616c2.2087906 0 3.9993692 1.79535615 3.9993692 4v4h-21z" fill="#80d25b"/><path d="m24 20h23" stroke="#979797" stroke-linecap="square" stroke-width="2"/></g></svg>
