<svg height="48" viewBox="0 0 64 64" width="48" xmlns="http://www.w3.org/2000/svg"><g fill="none" fill-rule="evenodd"><path d="m9 57c0-1.6568542 1.3517805-3 3.0004442-3h39.9991116c1.6570996 0 3.0004442 1.3465171 3.0004442 3 0 1.6568542-1.3517805 3-3.0004442 3h-39.9991116c-1.6570996 0-3.0004442-1.3465171-3.0004442-3z" fill="#ececec"/><path d="m41.815771 30.8073674-3.5356932-23.82515844c-.1624618-1.09474378-1.1853454-1.98220896-2.2916327-1.98220896h-8.97072c-1.103172 0-2.129302.888348-2.2916327 1.98220896l-3.5356932 23.82515844h-6.1475571c-1.0995368 0-1.3665171.6439884-.6042857 1.4301697l15.6748418 16.1673554c.765799.7898609 2.011181.7861812 2.7736673 0l15.6800845-16.1673554c.7660552-.7898609.4850143-1.4301697-.6038219-1.4301697z" fill="#5b68c0" transform="matrix(1 0 0 -1 0 54)"/></g></svg>
