<svg height="48" viewBox="0 0 64 64" width="48" xmlns="http://www.w3.org/2000/svg"><g fill="none" fill-rule="evenodd"><path d="m42 25h5v10h-5z" fill="#e43535"/><path d="m30 2.50247397c0-.82979346.6657972-1.50247397 1.5-1.50247397.8284271 0 1.5.67854309 1.5 1.50247397v46.49752603h-3z" fill="#d8d8d8"/><rect fill="#bd7575" height="5" rx="2" width="64" y="5"/><path d="m3 10h57v31.0021074c0 2.2079751-1.8000391 3.9978926-4.0081293 3.9978926h-48.98374139c-2.21362869 0-4.00812931-1.7837733-4.00812931-3.9978926z" fill="#b4dffb"/><path d="m31.7242161 48-9.7242161 7.2163054" stroke="#d8d8d8" stroke-linecap="round" stroke-width="2"/><path d="m40.7242161 48-9.7242161 7.2163054" stroke="#d8d8d8" stroke-linecap="round" stroke-width="2" transform="matrix(-1 0 0 1 71.724 0)"/><path d="m29 55.9597759c0-2.2104477 1.787167-4.2081467 3.9642898-4.458824l13.0357102-1.5009519 13.0357102 1.5009519c2.1894168.2520928 3.9642898 2.2482763 3.9642898 4.458824v6.9976305h-34z" fill="#d650c7"/><g fill="#ffdd95"><path d="m40 45.3164468c-3.0102093-2.8459908-5-7.4548925-5-11.3164468 0-6.0751322 4.9248678-11 11-11s11 4.9248678 11 11c0 3.8615543-1.9897907 8.470456-5 11.3164468v6.6835532s-4.0674222 1.4486507-6 1.4486507-6-1.4486507-6-1.4486507z"/><circle cx="37" cy="39" r="3"/><circle cx="55" cy="39" r="3"/></g><g stroke="#5b68c0" stroke-linecap="round" stroke-linejoin="round" stroke-width="2"><path d="m31.663 17.227-9.907 5.552 6.951 3.896-17.044 9.552"/><path d="m28.017 15.11 4.261 1.876-.35 4.416"/></g></g></svg>
