<svg height="48" viewBox="0 0 64 64" width="48" xmlns="http://www.w3.org/2000/svg"><g fill="none" fill-rule="evenodd"><rect fill="#b4dffb" height="58" rx="4" width="52" x="5" y="3"/><g stroke="#979797" stroke-linecap="round" stroke-width="2"><path d="m10 7h18v8h-18z" fill="#b6b6b6"/><path d="m28 7h12v8h-12z" fill="#b6b6b6"/><path d="m40 7h12v8h-12z" fill="#b6b6b6"/><path d="m10 15h18v6h-18z" fill="#b6b6b6"/><g fill="#d8d8d8"><path d="m28 15h12v6h-12z"/><path d="m40 15h12v6h-12z"/><path d="m28 21h12v6h-12z"/><path d="m40 21h12v6h-12z"/><path d="m28 27h12v6h-12z"/><path d="m40 27h12v6h-12z"/><path d="m28 33h12v6h-12z"/><path d="m40 33h12v6h-12z"/><path d="m28 39h12v6h-12z"/><path d="m40 39h12v6h-12z"/><path d="m28 45h12v6h-12z"/><path d="m28 51h12v6h-12z"/><path d="m40 45h12v6h-12z"/><path d="m40 51h12v6h-12z"/></g><g fill="#b6b6b6"><path d="m10 21h18v6h-18z"/><path d="m10 27h18v6h-18z"/><path d="m10 33h18v6h-18z"/><path d="m10 39h18v6h-18z"/><path d="m10 45h18v6h-18z"/><path d="m10 51h18v6h-18z"/></g></g></g></svg>
