<svg height="48" viewBox="0 0 64 64" width="48" xmlns="http://www.w3.org/2000/svg"><g fill="none" fill-rule="evenodd"><path d="m11 24h34.9976004c1.1058948 0 2.0023996.8897632 2.0023996 2.0035949v20.9928102c0 1.1065549-.8962786 2.0035949-2.0023996 2.0035949h-32.9952008c-1.1058948 0-2.0023996-.8897632-2.0023996-2.0035949z" fill="#5b68c0"/><circle cx="21" cy="17" fill="#0a3586" r="9"/><circle cx="37" cy="17" fill="#0a3586" r="9"/><path d="m20 35h17v9h-17z" fill="#80d25b"/><circle cx="42" cy="35" fill="#ff78c7" r="2"/><circle cx="42" cy="40" fill="#80d25b" r="2"/><path d="m5 25.9974219c0-1.1031457.89826062-1.9974219 1.99791312-1.9974219h4.00208688v19h-4.00208688c-1.10341695 0-1.99791312-.8909254-1.99791312-1.9974219z" fill="#979797"/><path d="m48 28h5v10h-5z" fill="#979797"/><path d="m53 28 8-5v20l-8-5z" fill="#ffdd95"/></g></svg>
