<svg height="64" viewBox="0 0 48 48" width="64" xmlns="http://www.w3.org/2000/svg"><g fill="none" fill-rule="evenodd"><path d="m25.4026553 25.9595294c-.7422383 1.482353-2.0150499 2.4367059-3.3922828 2.7585882-.2088427 0-.5277512.1044706-.8466596.1044706-2.3283139 0-3.7055469-1.8014117-3.7055469-4.4498823 0-3.3938824 2.0122277-4.9807059 4.5522065-5.7261177 1.3772329-.3162353 2.968953-.4235294 4.5578508-.4235294v1.2734118c0 2.4367059.1044214 4.3425882-1.165568 6.4630588zm1.165568-12.6070588c-1.3772329.1044706-2.968953.2089412-4.5578508.4178823-2.4355575.3218824-4.8711149.7454118-6.8805204 1.6997647-3.9200339 1.5896471-6.57007846 4.9807059-6.57007846 9.9585883 0 6.2569412 4.02445526 9.4334117 9.11287946 9.4334117 1.6933192 0 3.0705522-.2145882 4.3377194-.528 2.017872-.6381176 3.708369-1.8042352 5.7205967-3.9247058 1.165568 1.589647 1.4872987 2.3350588 3.4967041 4.0291764.5305734.2089412 1.0611467.2089412 1.4816543-.1044706 1.2728116-1.061647 3.4995264-2.9703529 4.6622722-4.0291764.5305734-.4235294.426152-1.0616471.1044214-1.5868236-1.1627459-1.4851764-2.3311361-2.7585882-2.3311361-5.6188235v-9.5378823c0-4.02635298.3217306-7.73647062-2.6444002-10.4894118-2.4355574-2.22211765-6.25117-3.072-9.2173008-3.072h-1.2728116c-5.3988661.31341177-11.1166406 2.64564706-12.39227436 9.32329412-.2116649.84988238.42615196 1.16611768.84948176 1.27058828l5.9322616.7425882c.6349947-.1072941.9539032-.6381177 1.0583245-1.1632941.5277512-2.33223532 2.4355575-3.49835297 4.5522065-3.71294121h.426152c1.2728116 0 2.6500445.53082353 3.3894606 1.59247059.8466596 1.27058824.7422382 2.96752942.7422382 4.45270592z" fill="#343b45"/><path d="m47.9943556 35.9463529v-.0028235c-.0225776-.4997647-.1269989-.8809412-.3358416-1.1971765l-.0225776-.0310588-.0253998-.0310588c-.2116649-.2315294-.4148632-.3190588-.6349947-.4150588-.6575723-.2541177-1.6142977-.3896471-2.7657547-.3924706-.8269042 0-1.7384744.0790588-2.655689.2795294l-.0028222-.0621177-.9228589.3077648-.0169332.0084705-.5221068.1694118v.0225882c-.6124171.2541177-1.1683902.570353-1.6848526.9458824-.3217306.24-.5870173.5590588-.6011283 1.0475294-.0084666.2654118.126999.5703529.3499527.7510588.2229536.1807059.4825959.2428236.711194.2428236.0536218 0 .1044214-.0028236.1495765-.0112942l.0451552-.0028235.0338664-.005647c.4515518-.096 1.1091241-.1609412 1.8795843-.2682353.6603945-.0734118 1.3602998-.1270589 1.9670725-.1270589.4289742-.0028235.8156154.0282353 1.0809021.0847059.1326433.0282353.2314203.0621177.285042.090353.0197554.005647.0338664.0141176.042333.0197647.0112888.0367058.028222.1327058.0253998.2654117.0056444.5082353-.2088427 1.4512941-.5051735 2.3717647-.2878643.9204706-.6378169 1.8437647-.8692372 2.4564706-.056444.1411765-.0931326.2964706-.0931326.4658824-.0056444.245647.0959548.5449412.3104419.7425882.2088427.1976471.4797737.2767059.7055496.2767059h.0112888c.3386639-.0028235.6265281-.1383529.8748816-.3331765 2.3424249-2.1063529 3.1580403-5.472 3.1919067-7.3665882zm-6.9454309 2.9195295c-.2398869-.0028236-.4854182.053647-.7140163.1609411-.2568201.1016471-.5192845.2202353-.767638.3247059l-.3640636.1524706-.4741294.1891765v.005647c-5.1505126 2.0894118-10.5606674 3.3148236-15.5672479 3.4221177-.1834429.005647-.369708.005647-.5475065.005647-7.8739343.0056471-14.29725844-3.648-20.77702658-7.248-.22577589-.1185882-.46001838-.1807058-.68579427-.1807058-.29068647 0-.58983953.1101176-.80714882.3134117-.2173093.2061177-.34713044.5025883-.34430824.8047059-.0028222.3924706.2088427.7538824.50517356.9882353 6.08183813 5.2828235 12.74787135 10.1901176 21.71399655 10.1957647.1749763 0 .3527748-.0056471.5305733-.0084706 5.7036635-.1270588 12.1523875-2.0555294 17.1589679-5.2009412l.0310442-.0197647c.6547501-.3924706 1.3095002-.8385882 1.9275617-1.3327059.383819-.2851764.6491057-.7312941.6491057-1.1943529-.0169332-.8216471-.7140163-1.3778823-1.4675433-1.3778823z" fill="#ff9a00"/></g></svg>