<svg clip-rule="evenodd" fill-rule="evenodd" stroke-linejoin="round" stroke-miterlimit="2" viewBox="0 0 64 64" xmlns="http://www.w3.org/2000/svg"><path d="m.00311 0h64v64h-64z" fill="none"/><g fill-rule="nonzero" stroke-width=".38" transform="matrix(2.59999406667 0 0 2.59999406667 .803 .8)"><path d="m11 15c.549 0 1-.451 1-1v-2.09l8.2-.83c1.021-.103 1.805-.974 1.8-2v-3.08c0-1.097-.903-2-2-2h-2c-.549 0-1 .451-1 1s.451 1 1 1h2v3.09l-8.2.83c-1.021.103-1.805.974-1.8 2v2.08c0 .549.451 1 1 1z" fill="#fff" stroke="#fff"/><path d="m11 13c1.097 0 2 .903 2 2v6c0 .549-.451 1-1 1h-2c-.549 0-1-.451-1-1v-6c0-1.097.903-2 2-2z" fill="#acd9ef" stroke="#545a60"/><path d="m2 4v2c0 1.097.903 2 2 2h13c1.097 0 2-.903 2-2v-2c0-1.097-.903-2-2-2h-13c-1.097 0-2 .903-2 2z" fill="#88c200" stroke="#545a60"/></g></svg>