<svg clip-rule="evenodd" fill-rule="evenodd" stroke-linejoin="round" stroke-miterlimit="2" viewBox="0 0 64 64" xmlns="http://www.w3.org/2000/svg"><path d="m-.000408-.001h64v64h-64z" fill="none"/><g fill-rule="nonzero" transform="matrix(1.87319 0 0 1.87319 2.05733 2.001)"><path d="m.848 26.91c-1.172 1.172-1.172 3.07 0 4.242.586.586 1.354.878 2.122.878s1.536-.292 2.122-.878l9.85-9.85-4.244-4.242zm24.618-18.256 4.286-2.218 2.248-4.342-2.094-2.094-4.342 2.248-2.218 4.286-5.224 5.224 2.12 2.12z" fill="#8fcceb"/><path d="m26.404 20.04c-.136-.008-.266-.04-.404-.04-.732 0-1.426.15-2.074.39l-12.316-12.316c.24-.648.39-1.342.39-2.074 0-.138-.032-.268-.04-.404-.212-3.122-2.784-5.596-5.96-5.596-.924 0-1.79.226-2.572.6l3.986 3.986c.21.21.354.458.45.72.262.71.12 1.536-.45 2.108-.39.39-.902.586-1.414.586-.236 0-.47-.052-.694-.136-.262-.098-.51-.24-.72-.45l-3.986-3.986c-.374.782-.6 1.648-.6 2.572 0 3.176 2.474 5.748 5.596 5.96.136.008.266.04.404.04.732 0 1.426-.15 2.074-.39l12.316 12.316c-.24.648-.39 1.342-.39 2.074 0 .138.032.268.04.404.212 3.122 2.784 5.596 5.96 5.596.924 0 1.79-.226 2.572-.6l-3.986-3.986c-.21-.21-.354-.458-.45-.72-.262-.71-.12-1.536.45-2.108.39-.39.902-.586 1.414-.586.236 0 .47.052.694.136.262.098.51.24.72.45l3.986 3.986c.374-.782.6-1.648.6-2.572 0-3.176-2.474-5.748-5.596-5.96z" fill="#c44d58"/></g></svg>