<svg clip-rule="evenodd" fill-rule="evenodd" stroke-linejoin="round" stroke-miterlimit="2" viewBox="0 0 64 64" xmlns="http://www.w3.org/2000/svg"><path d="m0 0h64v64h-64z" fill="none"/><g fill-rule="nonzero"><path d="m26.166 16c1.868-4.29.716-7.018-.222-8.332-1.424-1.994-4.018-3.088-6.296-2.65-3.96.756-5.648 3.44-5.648 8.982v4.628l-2.316-2.316c-.39-.39-1.024-.39-1.414 0s-.39 1.024 0 1.414l4.024 4.022c.202.202.468.294.732.288.264.006.53-.086.732-.288l4.044-4.042c.39-.39.39-1.024 0-1.414s-1.024-.39-1.414 0l-2.388 2.386v-4.678c0-5.768 1.986-6.628 4.02-7.018 1.306-.24 3.196.308 4.294 1.848 1.344 1.878 1.086 4.664-.726 7.84-.192.338-.172.756.052 1.072s.618.476.992.408c.242-.042.964-.152 1.42-.152 2.178 0 3.948 1.794 3.948 4.002 0 2.206-1.794 4-4 4l-19.854.012c-2.324-.344-4.146-2.546-4.146-5.012 0-2.456 1.844-4.57 4.292-4.92l.86-.124c.492-.07.858-.492.858-.99l-.016-1.064c.006-3.582 2.214-6.526 5.256-7 .544-.086.918-.596.834-1.142-.086-.546-.584-.916-1.144-.834-4.02.626-6.94 4.4-6.946 8.972 0 .002.016.202.016.202-3.426.49-6.01 3.456-6.01 6.9 0 3.492 2.516 6.496 6 7h20c3.308 0 6-2.692 6-6 0-3.272-2.608-5.94-5.834-6z" fill="#88c200" transform="matrix(1.2311325 0 0 1.2311325 3.00010498 -1.0983806)"/><path d="m26.052 15.998c-.086 0-.17 0-.252.002.132-.658.2-1.33.2-2 0-5.514-4.486-10-10-10-5.51 0-10 4.442-10.006 9.898 0 .002.016.202.016.202-3.426.49-6.01 3.456-6.01 6.9 0 3.492 2.516 6.496 6 7h5c.552 0 1-.448 1-1s-.448-1-1-1l-4.854.01c-2.324-.342-4.146-2.544-4.146-5.01 0-2.456 1.844-4.57 4.292-4.92l.86-.124c.492-.07.858-.492.858-.99l-.016-1.064c.006-4.358 3.596-7.902 8.006-7.902 4.412 0 8 3.588 8 8 0 .542-.054 1.088-.164 1.618l-.264 1.272c-.066.318.028.646.248.884.22.236.536.358.864.308.022-.002.648-.084 1.368-.084 2.178 0 3.948 1.794 3.948 4.002 0 2.206-1.794 4-4 4h-7c-2.8 0-2.99-1.678-3-2v-6.636l2.366 2.364c.39.39 1.024.39 1.414 0s.39-1.024 0-1.414l-4.024-4.022c-.196-.196-.454-.292-.712-.292-.016 0-.028-.008-.044-.008-.288 0-.542.124-.724.318l-4.028 4.024c-.39.39-.39 1.024 0 1.414s1.024.39 1.414 0l2.338-2.336v6.588c0 1.382 1.044 4 5 4h7c3.308 0 6-2.692 6-6s-2.668-6.002-5.948-6.002z" fill="#8fcceb" transform="matrix(1.2311325 0 0 1.2311325 21.60388498 24.63393016)"/></g></svg>