<svg clip-rule="evenodd" fill-rule="evenodd" stroke-linejoin="round" stroke-miterlimit="2" viewBox="0 0 968 689" xmlns="http://www.w3.org/2000/svg"><path d="m-103.117-167.06s-44.758 46.548-45.136 91.534c6.03 46.372 25.559 37.066 45.136 134.09 21.36-8.251 64.544-64.699 55.832-144.361-11.309-56.893-55.832-81.263-55.832-81.263" fill="#cbc8bf" opacity=".91" transform="matrix(-2.52306035178 -3.3159193194 -3.3159193194 2.52306035178 -61.128714236 198.753909004)"/><g fill="#2283c3" fill-rule="nonzero" transform="matrix(4.16667 0 0 4.16667 -.000332 -.00125)"><path d="m136.462 147.122c0-.195 0-.292-.098-.292-3.017 0-8.273-.195-10.609-.39 0-2.238.974-34.357.974-39.223 0-.389-.098-.487-.39-.487-1.946-.389-4.282-.486-5.839-.486-1.46 0-2.239.292-3.212 1.752-7.884 11.387-17.909 25.986-26.084 37.179-.098.195-.195.39-.195.584 0 .389.292 1.071.584 1.557.681 1.46 1.46 1.947 2.433 1.947 7.787 0 21.121-.097 25.014-.195.097 3.31.194 8.176.292 11.582 0 .779-.39 1.168-.973 1.266l-5.451.778c-.292.098-.487.584-.487 1.071 0 .097 0 .195.195.195 2.141-.098 5.645-.195 9.928-.195 2.822 0 5.45.097 8.078.195.292 0 .292-.098.292-.195 0-.389-.195-.973-.487-1.071l-4.282-.681c-.584-.195-.876-.389-.876-1.363.097-2.919.292-7.299.486-11.776 1.752-.098 7.592-.292 10.123-.39.389-.097.584-.778.584-1.265zm-38.835-2.823c.876-1.168 1.85-2.628 2.628-3.796 3.796-6.131 10.025-16.351 15.378-25.5.779-1.362 1.85-3.212 3.017-5.353h.39c-.098 2.531-.195 5.937-.195 7.495 0 1.557.195 25.402.097 28.809-3.114 0-12.263-.487-17.324-.973-.779 0-2.433-.098-3.796-.195z"/><path d="m160.405 164.544c14.404 0 21.412-13.529 21.412-31.438 0-15.67-6.229-27.544-18.979-27.544-12.848 0-21.607 13.237-21.607 31.924 0 17.13 8.467 27.058 19.076 27.058zm-10.901-27.836c0-17.714 4.672-29.491 12.555-29.491 7.689 0 11.485 11.582 11.485 26.668 0 17.227-3.893 29.101-11.777 29.101-7.008 0-12.263-9.538-12.263-26.084z"/><path d="m232.233 147.122c0-.195 0-.292-.097-.292-3.017 0-8.273-.195-10.609-.39 0-2.238.973-34.357.973-39.223 0-.389-.097-.487-.389-.487-1.947-.389-4.282-.486-5.84-.486-1.46 0-2.238.292-3.212 1.752-7.883 11.387-17.908 25.986-26.084 37.179-.097.195-.194.39-.194.584 0 .389.292 1.071.584 1.557.681 1.46 1.46 1.947 2.433 1.947 7.786 0 21.12-.097 25.013-.195.098 3.31.195 8.176.292 11.582 0 .779-.389 1.168-.973 1.266l-5.45.778c-.292.098-.487.584-.487 1.071 0 .097 0 .195.195.195 2.141-.098 5.645-.195 9.927-.195 2.823 0 5.451.097 8.078.195.292 0 .292-.098.292-.195 0-.389-.194-.973-.486-1.071l-4.283-.681c-.584-.195-.876-.389-.876-1.363.098-2.919.292-7.299.487-11.776 1.752-.098 7.592-.292 10.122-.39.39-.097.584-.778.584-1.265zm-38.834-2.823c.876-1.168 1.849-2.628 2.628-3.796 3.796-6.131 10.025-16.351 15.378-25.5.778-1.362 1.849-3.212 3.017-5.353h.389c-.097 2.531-.194 5.937-.194 7.495 0 1.557.194 25.402.097 28.809-3.115 0-12.263-.487-17.325-.973-.778 0-2.433-.098-3.795-.195z"/></g><path d="m0-159.727s-49.537 39.74-103.428 67.11c-85.226 43.29-107.367 92.617-107.367 92.617s24.633-46.145 109.859-89.428c53.892-27.373 103.429-67.111 103.429-67.111z" fill="#4c5e60" transform="matrix(4.16667 0 0 4.16667 890.79621397 665.52844909)"/></svg>