<svg xmlns="http://www.w3.org/2000/svg" width="24" height="24" viewBox="0 0 24 24"><path fill="none" stroke="currentColor" stroke-linecap="round" stroke-linejoin="round" stroke-width="1.5" d="M8.625 12a.375.375 0 1 1-.75 0a.375.375 0 0 1 .75 0m0 0H8.25m4.125 0a.375.375 0 1 1-.75 0a.375.375 0 0 1 .75 0m0 0H12m4.125 0a.375.375 0 1 1-.75 0a.375.375 0 0 1 .75 0m0 0h-.375M21 12c0 4.556-4.03 8.25-9 8.25a9.8 9.8 0 0 1-2.555-.337A5.97 5.97 0 0 1 5.41 20.97a6 6 0 0 1-.474-.065a4.5 4.5 0 0 0 .978-2.025c.09-.457-.133-.901-.467-1.226C3.93 16.178 3 14.189 3 12c0-4.556 4.03-8.25 9-8.25s9 3.694 9 8.25"/><style>path{stroke:#222}@media (prefers-color-scheme:dark){path{stroke:#ddd}}</style></svg>
