<svg clip-rule="evenodd" fill-rule="evenodd" stroke-linejoin="round" stroke-miterlimit="2" viewBox="0 0 63 64" xmlns="http://www.w3.org/2000/svg"><path d="m0-.107c0 .432-.156.786-.468 1.062s-.708.414-1.188.414c-.96 0-1.44-.516-1.44-1.548 0-.384.138-.726.414-1.027.276-.299.594-.45.954-.45 1.152 0 1.728.517 1.728 1.549m2.305-.108c0-.984-.361-1.848-1.08-2.592-.792-.816-1.825-1.224-3.097-1.224-1.008 0-1.86.414-2.556 1.241-.696.829-1.044 1.771-1.044 2.827 0 .96.396 1.835 1.188 2.627s1.656 1.188 2.593 1.188c1.08 0 2.015-.414 2.807-1.241.792-.828 1.189-1.771 1.189-2.826m3.708 2.231c0 .433-.145.793-.433 1.08-.288.289-.624.433-1.008.433-.192 0-.492-.174-.9-.523-.408-.347-.66-.521-.756-.521-.072 0-.216.156-.432.468-.337.456-.671.84-1.007 1.151.359.312.707.607 1.044.883.335.275.503.534.503.773 0 .337-.144.643-.432.918-.287.277-.6.414-.936.414-.431 0-.792-.119-1.08-.359s-.431-.527-.431-.864c0-.072.023-.216.071-.433.048-.215.072-.383.072-.504-.168-.167-.395-.252-.684-.252-.121 0-.324.031-.612.09-.288.061-.516.091-.683.091h-.721c-.024.071-.036.179-.036.323 0 .169.048.385.144.648.096.265.144.445.144.54 0 .337-.144.619-.432.847-.288.227-.624.342-1.008.342-.36 0-.66-.162-.9-.486-.24-.325-.359-.678-.359-1.063 0-.239.126-.479.378-.72.252-.239.509-.491.773-.755-.672-.336-1.38-.876-2.124-1.621-.384.961-.96 1.44-1.728 1.44-.24 0-.503-.167-.792-.504-.288-.336-.432-.671-.432-1.008 0-.239.168-.515.504-.828.336-.31.635-.467.9-.467.024 0 .102.018.234.053.131.037.246.055.342.055.264 0 .396-.108.396-.325v-.072c0-.695-.06-1.164-.18-1.404-.192-.335-.576-.527-1.152-.575-.84-.073-1.26-.517-1.26-1.332 0-.361.132-.666.396-.918s.541-.378.829-.378.827.396 1.619 1.187c.048-.047.108-.101.18-.162.073-.058.12-.101.144-.125.288-.625.685-1.164 1.188-1.621 0-.31-.085-.467-.252-.467-.072 0-.108.024-.108.072 0 .047-.024.071-.072.071-.168 0-.36-.119-.575-.36-.217-.24-.325-.587-.325-1.043 0-.888.396-1.333 1.188-1.333.216 0 .624.252 1.225.756.023.097.036.241.036.433 0 .384-.049.732-.145 1.043.096.169.239.252.432.252.048 0 .228-.041.54-.125s.648-.139 1.009-.162l.827-.072c.144-.048.217-.216.217-.504v-.288c-.025-.193-.037-.384-.037-.577 0-.864.419-1.296 1.26-1.296.288 0 .576.133.864.397.289.264.432.516.432.756 0 .312-.132.611-.395.9-.313.36-.487.57-.523.629-.036.061-.066.127-.09.198 0 .169.144.384.432.649l1.044 1.044c.576-.912 1.248-1.368 2.016-1.368.312 0 .582.143.81.432.228.287.342.611.342.971 0 .913-.432 1.369-1.296 1.369h-.288c-.144.023-.288.035-.432.035l-.036.037-.036.215v.181c0 .096.012.294.036.594.023.299.036.557.036.774v.395c.264.193.48.289.649.289.094 0 .221-.018.378-.055.155-.035.269-.053.341-.053.264 0 .522.138.774.414s.379.571.379.881" fill="#888" fill-rule="nonzero" transform="matrix(4.16667 0 0 4.16667 37.500034979 31.950023511)"/></svg>
