<svg height="96" viewBox="0 0 70 96" width="70" xmlns="http://www.w3.org/2000/svg"><path d="m34.851562 95.574219 34.855469-24.070313v-71.503906h-69.707031v71.503906zm0 0" fill="#4c5e60"/><path d="m41.453125 30.023438h4.441406l-3.007812 9.839843c-.238281.800781-.40625 1.394531-.507813 1.78125-.101562.386719-.152344.722657-.152344 1.007813 0 .453125.15625.882812.46875 1.28125.316407.402344.816407.601562 1.503907.601562 1.351562 0 2.699219-.851562 4.054687-2.550781 1.355469-1.699219 2.035156-3.957031 2.035156-6.769531 0-4.15625-1.851562-7.140625-5.546874-8.957032-2.320313-1.148437-4.929688-1.722656-7.824219-1.722656-5.328125 0-9.605469 1.574219-12.835938 4.71875-2.914062 2.839844-4.371093 6.25-4.371093 10.226563 0 4.410156 1.707031 7.910156 5.125 10.496093 3.023437 2.285157 6.714843 3.425782 11.070312 3.425782 2.976562 0 5.757812-.53125 8.34375-1.589844 1.40625-.558594 2.867188-1.351562 4.371094-2.378906l.5625-.386719 1.714844 2.539063c-2.226563 1.664062-4.632813 2.929687-7.226563 3.800781-2.59375.867187-5.285156 1.300781-8.074219 1.300781-6.5 0-11.535156-1.949219-15.109375-5.847656-2.960937-3.238282-4.441406-7.066406-4.441406-11.496094 0-4.960938 1.847656-9.164062 5.546875-12.609375 3.882812-3.644531 8.859375-5.464844 14.921875-5.464844 4.9375 0 9.027344 1.246094 12.269531 3.742188 3.414063 2.628906 5.121094 6.121093 5.121094 10.476562 0 3.429688-1.082031 6.375-3.242188 8.832031-2.160156 2.457032-4.628906 3.683594-7.402343 3.683594-1.441407 0-2.550781-.394531-3.324219-1.179687-.777344-.785157-1.164062-1.59375-1.164062-2.425781 0-.105469.003906-.222657.011718-.351563.007813-.128906.019532-.265625.035156-.417969-.597656 1.085938-1.261718 1.957032-2 2.605469-1.328124 1.164063-2.929687 1.746094-4.792968 1.746094-1.898438 0-3.476563-.65625-4.734375-1.972657-1.261719-1.316406-1.894531-3.152343-1.894531-5.507812 0-2.738281.964843-5.300781 2.894531-7.6875 1.925781-2.386719 4.289062-3.582031 7.09375-3.582031 1.644531 0 2.921875.4375 3.832031 1.3125.6875.683593 1.152344 1.460937 1.386719 2.335937zm-10.128906 13.605468c.515625.679688 1.25 1.019532 2.207031 1.019532 1.675781 0 3.050781-1.226563 4.125-3.683594 1.074219-2.457032 1.609375-4.390625 1.609375-5.792969 0-.800781-.25-1.476563-.75-2.019531-.503906-.542969-1.175781-.816406-2.023437-.816406-1.628907 0-3.03125.976562-4.207032 2.933593-1.175781 1.960938-1.761718 3.855469-1.761718 5.683594 0 1.101563.265624 1.996094.800781 2.675781zm0 0" fill="#fff"/></svg>