<svg height="96" viewBox="0 0 70 96" width="70" xmlns="http://www.w3.org/2000/svg"><path d="m69.785156 71.109375v-71.109375h-69.785156v96" fill="#4c5e60"/><path d="m38.863281 43.980469c-.199219.621093-.304687 1.589843-.324219 2.898437h-6.667968c.097656-2.765625.359375-4.679687.789062-5.730468.429688-1.058594 1.535156-2.273438 3.3125-3.648438l1.804688-1.398438c.589844-.441406 1.066406-.925781 1.429687-1.449218.660157-.898438.988281-1.886719.988281-2.96875 0-1.242188-.363281-2.378906-1.097656-3.398438-.734375-1.023437-2.070312-1.535156-4.015625-1.535156-1.910156 0-3.265625.628906-4.0625 1.890625-.800781 1.261719-1.199219 2.566406-1.199219 3.925781h-7.140624c.199218-4.664062 1.835937-7.96875 4.917968-9.914062 1.941406-1.246094 4.332032-1.867188 7.164063-1.867188 3.722656 0 6.8125.882813 9.277343 2.652344 2.460938 1.765625 3.691407 4.382812 3.691407 7.851562 0 2.128907-.535157 3.921876-1.605469 5.375-.625.886719-1.828125 2.015626-3.605469 3.390626l-1.753906 1.347656c-.957031.738281-1.589844 1.597656-1.902344 2.578125zm.195313 13.351562h-7.359375v-7.089843h7.359375zm0 0" fill="#fff"/></svg>