<svg height="96" viewBox="0 0 70 96" width="70" xmlns="http://www.w3.org/2000/svg"><path d="m34.894531 72.0625 34.890625 23.699219v-95.761719h-69.785156v95.761719zm0 0" fill="#4c5e60"/><g fill="#fff"><path d="m28.238281 46.886719c0 2.148437-1.765625 3.886719-3.917969 3.886719-2.160156 0-3.921874-1.738282-3.921874-3.886719 0-2.152344 1.761718-3.898438 3.921874-3.898438 2.152344 0 3.917969 1.746094 3.917969 3.898438"/><path d="m25.285156 19.109375c-.984375 0-1.953125.050781-2.894531.152344v5.929687c.9375-.128906 1.90625-.195312 2.894531-.195312 11.808594 0 21.386719 9.507812 21.386719 21.25 0 1.757812-.21875 3.46875-.625 5.105468h6.058594c.316406-1.652343.5-3.355468.5-5.105468 0-14.984375-12.238281-27.136719-27.320313-27.136719"/><path d="m24.394531 32.273438c-.671875 0-1.351562.054687-2.007812.144531v4.527343c.644531-.144531 1.324219-.214843 2.007812-.214843 5.246094 0 9.511719 4.226562 9.511719 9.4375 0 1.917969-.589844 3.703125-1.566406 5.183593h5.03125c.644531-1.597656 1.007812-3.355468 1.007812-5.183593 0-7.671875-6.25-13.894531-13.984375-13.894531"/></g></svg>
