<svg clip-rule="evenodd" fill-rule="evenodd" stroke-linecap="round" stroke-linejoin="round" stroke-miterlimit="1.5" viewBox="0 0 65 66" xmlns="http://www.w3.org/2000/svg" xmlns:xlink="http://www.w3.org/1999/xlink"><clipPath id="a"><path clip-rule="evenodd" d="m0 0h65v66h-65z"/></clipPath><g clip-path="url(#a)" stroke="#c44d58"><g stroke-width="4"><path d="m313.935 238.601 61-.243z" fill="none" transform="translate(-311.935 -175.129)"/><path d="m320.52 230.114 9.068-17.985h30.183l8.58 18.156z" fill="#c44d58" transform="translate(-311.935 -176.129)"/><path d="m333.52 230.114 11.068-23.985 11.763 24.156z" fill="#c44d58" transform="translate(-311.935 -204.129)"/></g><path d="m6.938-11.25-2.883-16.758c-.047-.281-.071-.562-.071-.844 0-2.406 1.571-3.609 4.711-3.609 3.141 0 4.711 1.195 4.711 3.586 0 .328-.023.617-.07.867l-2.883 16.758zm1.757 3.445c2.75 0 4.125 1.375 4.125 4.125 0 2.75-1.375 4.125-4.125 4.125s-4.125-1.375-4.125-4.125 1.375-4.125 4.125-4.125z" fill="#fffefe" fill-rule="nonzero" stroke-linecap="butt" stroke-miterlimit="2" transform="translate(23.531 48.336)"/></g></svg>