<svg clip-rule="evenodd" fill-rule="evenodd" stroke-linecap="round" stroke-linejoin="round" stroke-miterlimit="1.5" viewBox="0 0 65 66" xmlns="http://www.w3.org/2000/svg" xmlns:xlink="http://www.w3.org/1999/xlink"><clipPath id="a"><path clip-rule="evenodd" d="m0 0h65v66h-65z"/></clipPath><g clip-path="url(#a)" transform="translate(-.001 0)"><g fill="#a95b00" stroke="#a95b00" stroke-width="4"><path d="m313.935 238.601 61-.243z" transform="translate(-311.935 -175.129)"/><path d="m320.52 229.114 9.068-16.985h30.183l8.58 17.156z" transform="translate(-311.935 -176.129)"/><path d="m333.52 229.114 11.068-22.985 10.763 23.156z" transform="translate(-311.935 -204.129)"/></g><path d="m.145-.234-.061-.349c-.001-.006-.001-.012-.001-.018 0-.05.033-.075.098-.075.066 0 .098.025.098.074 0 .007 0 .013-.001.019l-.06.349zm.036.071c.057 0 .086.029.086.086 0 .058-.029.086-.086.086s-.086-.028-.086-.086c0-.057.029-.086.086-.086z" style="fill:#696e76;fill-rule:nonzero;stroke:#fff;stroke-width:.02;stroke-linecap:butt;stroke-miterlimit:2" transform="matrix(48 0 0 48 23.531 48.336)"/></g></svg>
