<svg clip-rule="evenodd" fill-rule="evenodd" stroke-linecap="round" stroke-linejoin="round" viewBox="0 0 24 24" xmlns="http://www.w3.org/2000/svg"><path d="m3.043 3.765h16.824v1h-16.824z" fill="#fff" transform="matrix(.93385538624 0 0 1.4103721739 1.30159084 -1.774844955)"/><g fill-rule="nonzero"><path d="m0 6.966c-.229-.101-.343-.27-.343-.504l-3.3-6.462h11l-3.3 6.462c0 .234-.114.403-.343.504z" fill="#a2cbe9" transform="matrix(1.42856 0 0 1.43635 9.347383616 4.95373662)"/><path d="m0 1.078v-.54c0-.145.054-.271.163-.378.109-.106.238-.16.387-.16h9.9c.149 0 .278.054.387.16.108.107.163.233.163.378v.54z" fill="#177bba" transform="matrix(1.42856 0 0 1.43635 4.14299668 2.00002648)"/><path d="m0-2.52-2.734 2.743.63 3.902-3.385-1.829-3.407 1.829.651-3.902-2.755-2.743 3.797-.58 1.714-3.545 1.692 3.545z" fill="#b2b2b2" stroke="#000" stroke-width=".05" transform="matrix(1.42856 0 0 1.43635 19.857 16.0751)"/></g></svg>