<svg clip-rule="evenodd" fill-rule="evenodd" stroke-linecap="round" stroke-linejoin="round" viewBox="0 0 24 24" xmlns="http://www.w3.org/2000/svg"><g stroke-width="66.67" transform="matrix(.0333333 0 0 .0333333 -1.33333 -1.33333)"><path d="m100 206.673v386.667c0 37.337 0 55.98 7.266 70.24 6.392 12.543 16.583 22.77 29.127 29.16 14.247 7.26 32.907 7.26 70.171 7.26h386.873c37.263 0 55.896 0 70.143-7.26 12.543-6.39 22.77-16.617 29.16-29.16 7.26-14.247 7.26-32.88 7.26-70.143v-386.873c0-37.264 0-55.924-7.26-70.171-6.39-12.544-16.617-22.735-29.16-29.127-14.26-7.266-32.903-7.266-70.24-7.266h-386.667c-37.337 0-56.019 0-70.28 7.266-12.544 6.392-22.735 16.583-29.127 29.127-7.266 14.261-7.266 32.943-7.266 70.28z" fill="#9ac123" stroke="#9ac123" transform="matrix(.8 0 0 .8 80 80)"/><path d="m266.667 400 100 100 166.666-200" fill="none" stroke="#fff"/></g></svg>