<svg clip-rule="evenodd" fill-rule="evenodd" stroke-linejoin="round" stroke-miterlimit="2" viewBox="0 0 17 14" xmlns="http://www.w3.org/2000/svg"><path d="m0 1.217c0 .738-.221 1.427-.66 2.064-.442.64-1.041 1.179-1.801 1.619l.182.413c.054.133.131.248.231.347.099.1.171.187.215.265.044.077.126.165.247.264s.191.176.215.231l.033.05c.012.021.027.039.049.049.022.011.033.028.033.05s.012.038.033.049l.034.1c.01.033.01.054 0 .065-.01.012-.017.034-.017.066-.023.088-.061.155-.114.2-.057.043-.123.065-.2.065-.308-.044-.572-.094-.793-.148-.947-.244-1.799-.634-2.56-1.173-.551.098-1.09.148-1.619.148-1.662 0-3.11-.407-4.344-1.222.353.022.622.033.809.033.992 0 1.937-.138 2.841-.413.904-.276 1.713-.672 2.428-1.19.772-.561 1.362-1.21 1.769-1.949.407-.737.61-1.519.61-2.345 0-.473-.071-.941-.215-1.404.793.44 1.421.986 1.884 1.635.462.651.693 1.355.693 2.114zm-3.535-2.362c0 .859-.286 1.646-.859 2.362s-1.36 1.288-2.362 1.718c-1.003.429-2.087.638-3.254.628-.529 0-1.068-.05-1.619-.149-.76.539-1.612.931-2.56 1.173-.219.055-.485.104-.791.148h-.036c-.064 0-.127-.021-.179-.065-.057-.044-.09-.11-.1-.199-.012-.022-.018-.044-.018-.066v-.066c0-.022.006-.039.018-.05l.016-.05.066-.098.05-.049c.033-.033.044-.05.033-.05l.462-.496c.056-.055.127-.143.215-.265.089-.121.166-.236.231-.346.066-.111.126-.247.182-.413-.761-.44-1.359-.986-1.801-1.635-.44-.649-.66-1.338-.66-2.065 0-.859.286-1.646.858-2.362.573-.715 1.36-1.288 2.364-1.718 1-.43 2.085-.639 3.252-.628 1.168.012 2.253.221 3.256.628 1.001.408 1.789.98 2.361 1.718s.859 1.526.859 2.362z" fill="#2373a8" fill-rule="nonzero" transform="translate(16.501 5.887)"/></svg>
