<svg clip-rule="evenodd" fill-rule="evenodd" stroke-linejoin="round" stroke-miterlimit="2" viewBox="0 0 24 24" xmlns="http://www.w3.org/2000/svg"><g fill-rule="nonzero"><path d="m0 0h24v24h-24z" fill="#fff"/><path d="m19 3h-1v-1c0-.55-.45-1-1-1s-1 .45-1 1v1h-8v-1c0-.55-.45-1-1-1s-1 .45-1 1v1h-1c-1.11 0-1.99.9-1.99 2l-.01 14c0 1.1.89 2 2 2h14c1.1 0 2-.9 2-2v-14c0-1.1-.9-2-2-2zm-1 16h-12c-.55 0-1-.45-1-1v-10h14v10c0 .55-.45 1-1 1z" fill="#3a539b"/><path d="m8 10h3c.55 0 1 .45 1 1v3c0 .55-.45 1-1 1h-3c-.55 0-1-.45-1-1v-3c0-.55.45-1 1-1z" fill="#ab4e58"/></g></svg>