<svg clip-rule="evenodd" fill-rule="evenodd" stroke-linecap="round" stroke-linejoin="round" viewBox="0 0 24 24" xmlns="http://www.w3.org/2000/svg"><path d="m374.833 139.133c7.717-22.197 11.574-33.295 17.28-36.371 4.937-2.663 10.88-2.663 15.82 0 5.704 3.076 9.56 14.174 17.277 36.371l51.01 146.747c2.197 6.317 3.293 9.476 5.273 11.828 1.747 2.078 3.977 3.698 6.494 4.718 2.846 1.155 6.19 1.223 12.876 1.359l155.327 3.166c23.497.478 35.243.718 39.933 5.193 4.057 3.873 5.894 9.527 4.887 15.046-1.16 6.377-10.523 13.473-29.25 27.673l-123.803 93.857c-5.33 4.043-7.994 6.063-9.62 8.67-1.437 2.307-2.287 4.927-2.48 7.633-.217 3.067.75 6.267 2.686 12.67l44.99 148.704c6.804 22.493 10.207 33.74 7.4 39.58-2.43 5.056-7.24 8.55-12.8 9.3-6.423.863-16.066-5.847-35.356-19.27l-127.524-88.737c-5.49-3.82-8.233-5.73-11.216-6.473-2.637-.654-5.394-.654-8.027 0-2.983.743-5.73 2.653-11.22 6.473l-127.522 88.737c-19.289 13.423-28.934 20.133-35.357 19.27-5.559-.75-10.369-4.244-12.799-9.3-2.807-5.84.596-17.087 7.401-39.58l44.988-148.704c1.937-6.403 2.905-9.603 2.687-12.67-.193-2.706-1.044-5.326-2.48-7.633-1.626-2.607-4.291-4.627-9.621-8.67l-123.801-93.857c-18.727-14.2-28.09-21.296-29.252-27.673-1.007-5.519.831-11.173 4.888-15.046 4.688-4.475 16.436-4.714 39.931-5.193l155.327-3.166c6.687-.136 10.03-.204 12.879-1.359 2.516-1.02 4.746-2.64 6.493-4.718 1.979-2.352 3.077-5.511 5.273-11.828z" fill="#fff" fill-rule="nonzero" stroke="#487ab6" stroke-width="50.21" transform="matrix(.0298746 0 0 .0298746 .049491 .406916)"/></svg>