<svg clip-rule="evenodd" fill-rule="evenodd" stroke-linejoin="round" stroke-miterlimit="2" viewBox="0 0 303 303" xmlns="http://www.w3.org/2000/svg"><path d="m0 95c-8.989 0-16.302-7.313-16.302-16.302v-62.396c0-8.99 7.313-16.302 16.302-16.302h62.399c8.988 0 16.299 7.312 16.299 16.302v62.396c0 8.989-7.311 16.302-16.299 16.302z" fill="#9ac13c" transform="matrix(3.15625 0 0 3.15625 53.032 1.578)"/><path d="m0-96h-62.399c-9.279 0-16.802 7.523-16.802 16.802v62.396c0 9.279 7.523 16.802 16.802 16.802h62.399c9.278 0 16.799-7.523 16.799-16.802v-62.396c0-9.279-7.521-16.802-16.799-16.802m0 1c8.711 0 15.799 7.089 15.799 15.802v62.396c0 8.713-7.088 15.802-15.799 15.802h-62.399c-8.713 0-15.802-7.089-15.802-15.802v-62.396c0-8.713 7.089-15.802 15.802-15.802z" fill="#fff" fill-rule="nonzero" transform="matrix(3.15625 0 0 3.15625 249.978 303)"/><path d="m20.673-12.761s-11.174 11.621-11.268 22.851c1.506 11.577 6.383 9.254 11.268 33.478 5.335-2.06 16.114-16.153 13.942-36.043-2.826-14.202-13.942-20.286-13.942-20.286" fill="#1a7bba" transform="matrix(1.91127 2.51177 2.51177 -1.91127 37.137 47.905)"/><path d="m0 39.876s12.366-9.92 25.822-16.752c21.276-10.808 26.804-23.124 26.804-23.124s-6.149 11.52-27.428 22.33c-13.453 6.829-25.822 16.755-25.822 16.755z" fill="#696f78" transform="matrix(3.15625 0 0 3.15625 18.54 20.897)"/><path d="m0-63.896v40.14c0 14.217-9.088 23.756-21.779 23.756-14.039 0-22.319-10.798-22.319-23.578 0-12.061 9.721-21.419 20.789-21.419 4.319 0 8.461.9 12.241 3.059v8.279c-2.883-1.98-7.289-3.779-10.893-3.779-8.549 0-14.215 5.941-14.215 14.851 0 8.818 5.936 15.029 14.397 15.029 7.558 0 13.863-5.76 13.863-17.64v-38.698z" fill="#fff" fill-rule="nonzero" transform="matrix(3.15625 0 0 3.15625 268.436 277.422)"/></svg>
