<svg clip-rule="evenodd" fill-rule="evenodd" stroke-linejoin="round" stroke-miterlimit="2" viewBox="0 0 24 24" xmlns="http://www.w3.org/2000/svg"><path d="m702 409.333c-.237-50.029-20.259-97.987-55.667-133.333l-179.666-182.333c-36.585-36.545-96.749-36.545-133.334 0l-179.666 180.666c-35.408 35.346-55.43 83.304-55.667 133.334-.01.778-.014 1.556-.014 2.334 0 104.231 85.769 190 190 190 .227 0 .454 0 .681-.001-8.377 28.757-22.306 55.597-41 79-4.827 5.94-7.463 13.365-7.463 21.019 0 18.286 15.048 33.333 33.334 33.333.376 0 .752-.006 1.129-.019h250.666c.038 0 .076.001.114.001 18.286 0 33.333-15.048 33.333-33.334 0-7.645-2.63-15.063-7.447-21-18.723-23.384-32.656-50.23-41-79 .667.007 1.334.011 2.002.011 104.048 0 189.666-85.619 189.666-189.667 0-.226 0-.452-.001-.677zm-102 87.667c-32.046 31.56-78.65 43.656-122 31.667-1.885-.161-3.781-.161-5.667 0h-6.666c-2.495.467-4.947 1.136-7.334 2h-5c-1.59 1.038-3.046 2.27-4.333 3.666-2.108 1.269-4.018 2.841-5.667 4.667-.537 1.289-1.207 2.518-2 3.667-1.463 2.485-2.798 5.044-4 7.666-.164 1.997-.164 4.004 0 6v6c2.615 36.163 11.882 71.534 27.334 104.334h-129.334c15.791-31.266 25.733-65.158 29.334-100v-6.334c.164-1.996.164-4.003 0-6-1.113-2.833-2.568-5.52-4.334-8-.542-1.181-1.212-2.299-2-3.333-1.451-1.894-3.264-3.48-5.333-4.667-1.361-1.317-2.808-2.542-4.333-3.666h-4.667c-2.437-1.125-5.016-1.91-7.667-2.334h-6.333c-1.997-.164-4.003-.164-6 0-44.624 11.625-92.206-1.934-124-35.333-23.155-23.302-36.217-54.817-36.333-87.667-.103-32.892 12.992-64.49 36.333-87.666l180-180.667c10.417-10.14 27.25-10.14 37.667 0l182.333 180.667c23.341 23.176 36.436 54.774 36.333 87.666-.223 32.829-13.268 64.305-36.333 87.667z" fill="#487ab6" fill-rule="nonzero" stroke="#487ab6" transform="matrix(.0299808 0 0 .0299808 .007877 .013525)"/></svg>