<svg clip-rule="evenodd" fill-rule="evenodd" stroke-linejoin="round" stroke-miterlimit="2" viewBox="0 0 24 24" xmlns="http://www.w3.org/2000/svg"><g fill-rule="nonzero"><path d="m3 10.995c0-1.656 1.208-2.995 2.701-2.995h12.598c1.489 0 2.701 1.348 2.701 2.995v8.01c0 1.656-1.208 2.995-2.701 2.995h-12.598c-1.489 0-2.701-1.348-2.701-2.995zm15-2.995h-2c0-2.209-1.791-4-4-4s-4 1.791-4 4h-2c0-3.314 2.686-6 6-6s6 2.686 6 6z" fill="#ae323b"/><path d="m12 16c.552 0 1-.448 1-1s-.448-1-1-1-1 .448-1 1 .448 1 1 1z" fill="#fff" transform="matrix(2.5 0 0 2.5 -18 -22.5)"/></g></svg>