<svg clip-rule="evenodd" fill-rule="evenodd" stroke-linejoin="round" stroke-miterlimit="2" viewBox="0 0 31 32" xmlns="http://www.w3.org/2000/svg"><path d="m.000324684.000041974h30.131306024v31.999902964h-30.131306024z" fill="#c44d58" stroke-width=".721466"/><g fill="#fff" fill-rule="nonzero"><path d="m10 2.3v3.3c1.2.7 2 2 2 3.4 0 2.2-1.8 4-4 4s-4-1.8-4-4c0-1.5.8-2.8 2-3.4v-3.3c-2.9.9-5 3.5-5 6.7 0 3.9 3.1 7 7 7s7-3.1 7-7c0-3.2-2.1-5.8-5-6.7z" transform="matrix(1.6 0 0 1.6 2.2662 2.4002)"/><path d="m13.4662 4.0002h3.2v11.2h-3.2z" stroke-width="1.6"/></g></svg>