<svg viewBox="0 0 24 24" xmlns="http://www.w3.org/2000/svg"><path d="m15 2c.5522847 0 1 .44771525 1 1v3h1c1.6568542 0 3 1.34314575 3 3v3c0 3.3137085-2.6862915 6-6 6h-1v3c0 .5522847-.4477153 1-1 1s-1-.4477153-1-1v-3h-1c-3.3137085 0-6-2.6862915-6-6v-3c0-1.65685425 1.34314575-3 3-3h1v-3c0-.55228475.44771525-1 1-1s1 .44771525 1 1v3h4v-3c0-.55228475.4477153-1 1-1zm2 6h-10c-.55228475 0-1 .44771525-1 1v3c0 2.209139 1.790861 4 4 4h4c2.209139 0 4-1.790861 4-4v-3c0-.55228475-.4477153-1-1-1z" fill-rule="evenodd" fill="#3a539b"/></svg>
