<svg clip-rule="evenodd" fill-rule="evenodd" stroke-linejoin="round" stroke-miterlimit="2" viewBox="0 0 280 245" xmlns="http://www.w3.org/2000/svg"><path d="m20.673-12.761s-11.173 11.619-11.268 22.85c1.505 11.577 6.38 9.256 11.268 33.478 5.334-2.06 16.115-16.153 13.942-36.042-2.827-14.203-13.942-20.286-13.942-20.286" fill="#9ac123" stroke="#696e77" stroke-width=".46" transform="matrix(1.74891335775 2.298538668 2.298538668 -1.74891335775 83.653647 89.6530905)"/><path d="m0 39.878s12.366-9.92 25.822-16.757c21.276-10.805 26.804-23.121 26.804-23.121s-6.149 11.52-27.428 22.33c-13.453 6.831-25.822 16.753-25.822 16.753z" fill="#696e77" transform="matrix(2.88825 0 0 2.88825 66.63318975 64.9412235)"/><path d="m222.858 279.898c0-22.436 7.203-45.171 21.611-68.199 14.403-23.028 35.429-42.1 63.062-57.218 27.635-15.112 59.875-22.673 96.719-22.673 34.244 0 64.48 6.322 90.697 18.954 26.218 12.638 46.466 29.821 60.76 51.548 14.287 21.733 21.433 45.348 21.433 70.856 0 20.078-4.074 37.677-12.223 52.788-8.149 15.118-17.836 28.167-29.052 39.147-11.221 10.984-31.355 29.467-60.405 55.447-8.031 7.324-14.471 13.762-19.309 19.31-4.843 5.552-8.447 10.629-10.806 15.233-2.364 4.606-4.197 9.211-5.492 13.818-1.301 4.603-3.249 12.697-5.844 24.268-4.489 24.566-18.545 36.846-42.16 36.846-12.283 0-22.618-4.013-30.999-12.046-8.386-8.028-12.577-19.957-12.577-35.782 0-19.841 3.067-37.024 9.212-51.548 6.139-14.528 14.287-27.282 24.445-38.262 10.152-10.984 23.854-24.031 41.097-39.149 15.112-13.225 26.04-23.206 32.771-29.937 6.732-6.732 12.4-14.226 17.006-22.498 4.605-8.265 6.909-17.238 6.909-26.925 0-18.894-7.03-34.836-21.08-47.829-14.055-12.986-32.185-19.485-54.383-19.485-25.985 0-45.116 6.554-57.394 19.663-12.284 13.108-22.674 32.417-31.178 57.925-8.031 26.693-23.266 40.034-45.703 40.034-13.231 0-24.39-4.662-33.479-13.994-9.093-9.329-13.638-19.426-13.638-30.292zm172.89 388.296c-14.41 0-26.986-4.668-37.731-13.996-10.75-9.326-16.121-22.375-16.121-39.147 0-14.881 5.192-27.396 15.589-37.554 10.39-10.154 23.144-15.234 38.262-15.234 14.88 0 27.396 5.08 37.554 15.234 10.151 10.158 15.234 22.673 15.234 37.554 0 16.535-5.315 29.526-15.944 38.971-10.629 9.446-22.909 14.172-36.843 14.172z" fill="#edeceb" fill-rule="nonzero" stroke="#696e77" stroke-width="3.84" transform="matrix(.34749 0 0 .34749 .42113 -16.4961)"/></svg>