<svg xmlns="http://www.w3.org/2000/svg" viewBox="0 -256 1850 1850" width="100%" height="100%"><path d="M585.373 1013.34l78-141q-87-63-136-159-49-96-49-203 0-121 61-225-229 117-381 353 167 258 427 375zm389-759q0-20-14-34-14-14-34-14-125 0-214.5 89.5-89.5 89.5-89.5 214.5 0 20 14 34 14 14 34 14 20 0 34-14 14-14 14-34 0-86 61-147 61-61 147-61 20 0 34-14 14-14 14-34zm363-191q0 7-1 9-105 188-315 566-210 378-316 567l-49 89q-10 16-28 16-12 0-134-70-16-10-16-28 0-12 44-87-143-65-263.5-173-120.5-108-208.5-245-20-31-20-69 0-38 20-69 153-235 380-371 227-136 496-136 89 0 180 17l54-97q10-16 28-16 5 0 18 6 13 6 31 15.5 18 9.5 33 18.5 15 9 31.5 18.5 16.5 9.5 19.5 11.5 16 10 16 27zm37 447q0 139-79 253.5-79 114.5-209 164.5l280-502q8 45 8 84zm448 128q0 35-20 69-39 64-109 145-150 172-347.5 267-197.5 95-419.5 95l74-132q212-18 392.5-137 180.5-119 301.5-307-115-179-282-294l63-112q95 64 182.5 153 87.5 89 144.5 184 20 34 20 69z"/></svg>