<svg xmlns="http://www.w3.org/2000/svg" viewBox="0 -256 1850 1850" width="100%" height="100%" fill="#ecedee"><path d="M1694.373 683.898q-152-236-381-353 61 104 61 225 0 185-131.5 316.5-131.5 131.5-316.5 131.5-185 0-316.5-131.5-131.5-131.5-131.5-316.5 0-121 61-225-229 117-381 353 133 205 333.5 326.5 200.5 121.5 434.5 121.5 234 0 434.5-121.5 200.5-121.5 333.5-326.5zm-720-384q0-20-14-34-14-14-34-14-125 0-214.5 89.5-89.5 89.5-89.5 214.5 0 20 14 34 14 14 34 14 20 0 34-14 14-14 14-34 0-86 61-147 61-61 147-61 20 0 34-14 14-14 14-34zm848 384q0 34-20 69-140 230-376.5 368.5-236.5 138.5-499.5 138.5-263 0-499.5-139-236.5-139-376.5-368-20-35-20-69 0-34 20-69 140-229 376.5-368 236.5-139 499.5-139 263 0 499.5 139 236.5 139 376.5 368 20 35 20 69z"/></svg>
