<svg clip-rule="evenodd" fill-rule="evenodd" stroke-linejoin="round" stroke-miterlimit="2" viewBox="0 0 20 12" xmlns="http://www.w3.org/2000/svg"><path d="m0 2.362c0 .144-.045.271-.133.38l-2.957 3.535c-.121.143-.269.215-.445.215s-.324-.072-.445-.215l-2.958-3.535c-.089-.1-.132-.228-.132-.388 0-.159.06-.295.181-.405.121-.109.26-.17.414-.182h1.768v-3.534h-5.303c-.099 0-.176-.039-.23-.116l-1.471-1.767c-.045-.055-.066-.119-.066-.19s.027-.141.082-.207c.054-.066.127-.093.215-.083h8.853c.045 0 .088.006.133.017.043.011.07.033.082.066.012.034.027.055.049.066.023.011.033.045.033.099 0 .056.006.088.017.099v5.534h1.768c.164 0 .303.06.412.181.112.122.17.259.182.414zm-5.896 3.833c0 .077-.028.147-.084.214-.055.066-.125.093-.215.083h-8.854c-.043 0-.086-.006-.131-.017-.043-.011-.072-.033-.082-.066-.011-.033-.029-.055-.051-.067-.021-.009-.031-.043-.031-.098s-.006-.088-.017-.099v-5.534h-1.768c-.164 0-.303-.06-.414-.181-.109-.121-.166-.256-.174-.405-.004-.149.037-.278.125-.388l2.957-3.535c.121-.132.27-.198.446-.198.175 0 .324.066.447.198l2.957 3.535c.088.099.133.228.133.388s-.063.294-.184.405c-.121.11-.258.171-.412.181h-1.768v3.535h5.303c.098 0 .176.033.231.099l1.47 1.767c.043.067.065.133.065.198z" fill="#2373a8" fill-rule="nonzero" transform="matrix(1.12573 0 0 1.12573 19.944 4.652)"/></svg>
