<svg clip-rule="evenodd" fill-rule="evenodd" stroke-linejoin="round" stroke-miterlimit="2" viewBox="0 0 14 14" xmlns="http://www.w3.org/2000/svg"><g fill="#be1622"><path d="m516.762 673.327h9.004v9h-9.004z" transform="matrix(-1 0 0 1 528.266 -668.327)"/><path d="m0 .56c0 .396-.324.72-.72.72h-12.56c-.396 0-.72-.324-.72-.72v-.561c0-.396.324-.719.72-.719h12.56c.396 0 .72.323.72.719z" fill-rule="nonzero" transform="translate(14 2.72)"/><path d="m518.264 685.327h6v2h-6z" transform="matrix(-1 0 0 1 528.266 -685.327)"/></g><path d="m518.764 675.327h1v5h-1z" fill="#fff" transform="matrix(-1 0 0 1 524.266 -668.327)"/><path d="m522.764 675.327h1v5h-1z" fill="#fff" transform="matrix(-1 0 0 1 532.266 -668.327)"/></svg>