<svg clip-rule="evenodd" fill-rule="evenodd" stroke-linejoin="round" stroke-miterlimit="2" viewBox="0 0 24 24" xmlns="http://www.w3.org/2000/svg"><path d="m151.257 48.925h24.811v26.503h-24.811z" fill="none" transform="matrix(.967316 0 0 .905544 -146.3137 -44.3034)"/><g transform="scale(1.5)"><path d="m2 3.5c0-.274.226-.5.5-.5h11c.274 0 .5.226.5.5s-.226.5-.5.5h-11c-.274 0-.5-.226-.5-.5zm5 3c0-.274.226-.5.5-.5h6c.274 0 .5.226.5.5s-.226.5-.5.5h-6c-.274 0-.5-.226-.5-.5zm0 3c0-.274.226-.5.5-.5h6c.274 0 .5.226.5.5s-.226.5-.5.5h-6c-.274 0-.5-.226-.5-.5zm-5 3c0-.274.226-.5.5-.5h11c.274 0 .5.226.5.5s-.226.5-.5.5h-11c-.274 0-.5-.226-.5-.5z"/><path d="m3.734 6.352c-.152.086-.3.177-.445.275-.127.086-.243.186-.346.299-.103.108-.189.233-.252.369-.058.129-.1.295-.123.498h.282c.242 0 .431.06.568.182.14.117.21.29.21.521-.003.172-.07.337-.187.463-.12.14-.289.21-.503.21-.336 0-.577-.108-.721-.327-.145-.223-.217-.514-.217-.873 0-.254.055-.485.164-.692.11-.21.242-.398.398-.562.16-.168.33-.31.51-.428.18-.117.33-.213.451-.287zm2.168 0c-.152.086-.3.177-.445.275-.127.086-.243.186-.346.299-.113.12-.199.246-.257.375-.063.157-.103.323-.118.492h.282c.242 0 .431.06.568.182.14.117.21.29.21.521-.003.172-.07.337-.187.463-.12.14-.289.21-.504.21-.335 0-.576-.108-.72-.327-.145-.223-.217-.514-.217-.873 0-.254.055-.485.164-.692.11-.21.242-.398.398-.562.16-.168.33-.31.51-.428.18-.117.33-.213.451-.287z" fill="#676e78" fill-rule="nonzero"/></g></svg>