<svg clip-rule="evenodd" fill-rule="evenodd" stroke-linejoin="round" stroke-miterlimit="2" viewBox="0 0 24 24" xmlns="http://www.w3.org/2000/svg"><path d="m151.257 48.925h24.811v26.503h-24.811z" fill="none" transform="matrix(.967316 0 0 .905544 -146.3137 -44.3034)"/><g fill-rule="nonzero"><path d="m245.122 121.855-48-40c-1.439-1.204-3.256-1.863-5.132-1.863-4.389 0-8 3.611-8 8 0 2.377 1.06 4.635 2.888 6.154l40.625 33.854-40.625 33.854c-1.828 1.519-2.888 3.777-2.888 6.154 0 4.389 3.611 8 8 8 1.876 0 3.693-.659 5.132-1.863l48-40c1.822-1.518 2.878-3.772 2.878-6.145s-1.056-4.627-2.878-6.146z" transform="matrix(.083333205 0 0 .083333205 .332938 1.332974)"/><path d="m162.734 32.482c-4.124-1.497-8.75.661-10.253 4.784l-64 176c-.32.878-.483 1.805-.483 2.74 0 4.389 3.611 8 8 8 3.358 0 6.375-2.114 7.521-5.272l64-176c1.499-4.124-.661-8.753-4.785-10.253z" fill="#167bba" transform="matrix(.083333205 0 0 .083333205 1.332898 1.332974)"/><path d="m69.122 94.146-40.625 33.854 40.625 33.854c1.828 1.519 2.888 3.777 2.888 6.154 0 4.389-3.611 8-8 8-1.876 0-3.693-.659-5.132-1.863l-48-40c-1.822-1.518-2.878-3.772-2.878-6.145s1.056-4.627 2.878-6.146l48-40c1.439-1.203 3.256-1.862 5.132-1.862 4.389 0 8 3.611 8 8 0 2.377-1.06 4.635-2.888 6.153z" transform="matrix(.083333205 0 0 .083333205 2.333499 1.332974)"/></g></svg>