<svg viewBox="0 0 32 32" xmlns="http://www.w3.org/2000/svg"><path d="m20 18h6v2h-6z" transform="matrix(-1 0 0 -1 46 38)"/><path d="m24 26h6v2h-6z" transform="matrix(-1 0 0 -1 54 54)"/><path d="m22 22h6v2h-6z" transform="matrix(-1 0 0 -1 50 46)"/><path d="m17.0029 20a4.8952 4.8952 0 0 0 -2.4044-4.1729l7.4015-12.8271-1.7309-1-7.5758 13.126a5.6988 5.6988 0 0 0 -5.2433 1.5029c-3.7436 3.6111-3.4537 12.0532-3.44 12.4111a1 1 0 0 0 1 .96h14.9912a1 1 0 0 0 .6-1.8c-3.5397-2.6561-3.5983-8.1463-3.5983-8.2zm-5.0729-3.0029a3.11 3.11 0 0 1 3.0741 3.0029c0 .0381.0019.208.0168.4688l-5.8994-2.6236a3.8 3.8 0 0 1 2.8085-.8481zm3.5194 11.0029a5.2 5.2 0 0 1 -1.4494-3h-2a6.4993 6.4993 0 0 0 .9684 3h-2.2233a16.6166 16.6166 0 0 1 -.7451-4h-2a17.3424 17.3424 0 0 0 .6652 4h-2.6652c.031-1.8364.29-5.8921 1.8027-8.5527l7.533 3.35a13.0253 13.0253 0 0 0 2.2611 5.2027z"/><path d="m0 0h32v32h-32z" fill="none"/></svg>
