<svg clip-rule="evenodd" fill-rule="evenodd" stroke-linejoin="round" stroke-miterlimit="2" viewBox="0 0 24 24" xmlns="http://www.w3.org/2000/svg"><path d="m151.257 48.925h24.811v26.503h-24.811z" fill="none" transform="matrix(.967316 0 0 .905544 -146.3137 -44.3034)"/><g fill-rule="nonzero" transform="matrix(1.33333 0 0 1.33333 1.33359 1.3333)"><path d="m5 5.1c0-.554.292-1.065.84-1.455.552-.393 1.347-.645 2.26-.645 1.298 0 2.384.561 2.763 1.243.134.241.438.328.68.194.241-.134.328-.438.194-.68-.621-1.118-2.135-1.757-3.637-1.757-1.087 0-2.092.298-2.84.83-.752.535-1.26 1.324-1.26 2.27 0 .72.3 1.375.789 1.9h1.723c-.96-.407-1.512-1.17-1.512-1.9z" fill="#212121"/><path d="m9.384 8h-3.061c.073.027.147.052.221.075l2.601.9.008.003c1.191.366 1.847 1.131 1.847 1.922 0 .498-.285 1.012-.845 1.421-.557.407-1.351.679-2.255.679-1.376 0-2.398-.549-2.884-1.277-.153-.23-.464-.292-.693-.139-.23.153-.292.464-.139.693.714 1.072 2.092 1.723 3.716 1.723 1.096 0 2.102-.328 2.845-.871.74-.541 1.255-1.327 1.255-2.229 0-1.406-1.139-2.44-2.544-2.875z" fill="#212121"/><path d="m2 8.5c0-.276.224-.5.5-.5h11c.276 0 .5.224.5.5s-.224.5-.5.5h-11c-.276 0-.5-.224-.5-.5z" fill="#c44d58" stroke="#c44d58" stroke-width=".75"/></g></svg>