<svg fill="none" viewBox="0 0 16 16" xmlns="http://www.w3.org/2000/svg"><g fill="#212121"><path d="m5 5.1c0-.5544.29153-1.06493.83988-1.4551.5523-.39299 1.34678-.6449 2.26012-.6449 1.29792 0 2.3839.56064 2.7629 1.24282.1341.24139.4385.32837.6799.19426s.3284-.43851.1943-.6799c-.621-1.11782-2.13502-1.75718-3.6371-1.75718-1.08666 0-2.09218.29809-2.83988.8301-.75165.53483-1.26012 1.3243-1.26012 2.2699 0 .7196.30015 1.37451.78915 1.9h1.72241c-.95908-.40669-1.51156-1.16986-1.51156-1.9z"/><path d="m9.38409 8h-3.0614c.07296.02696.1469.05206.22171.07525l2.60025.90008.00831.00256c1.19094.36644 1.84704 1.13141 1.84704 1.92211 0 .4982-.2854 1.0124-.845 1.4213-.5569.407-1.35141.6787-2.255.6787-1.37633 0-2.39849-.5491-2.88397-1.2774-.15318-.2297-.46362-.2918-.69338-.1386s-.29185.4636-.13868.6934c.71452 1.0717 2.09236 1.7226 3.71603 1.7226 1.09641 0 2.1019-.3283 2.845-.8713.7404-.5411 1.255-1.3269 1.255-2.2287 0-1.40643-1.1393-2.44015-2.54443-2.87526z"/><path d="m2 8.5c0-.27614.22386-.5.5-.5h11c.2761 0 .5.22386.5.5s-.2239.5-.5.5h-11c-.27614 0-.5-.22386-.5-.5z"/></g></svg>
