<svg clip-rule="evenodd" fill-rule="evenodd" stroke-linejoin="round" stroke-miterlimit="2" viewBox="0 0 24 24" xmlns="http://www.w3.org/2000/svg"><path d="m151.257 48.925h24.811v26.503h-24.811z" fill="none" transform="matrix(.967316 0 0 .905544 -146.3137 -44.3034)"/><path d="m10 4.75c0-.411.339-.75.75-.75h8.5c.411 0 .75.339.75.75s-.339.75-.75.75h-3.514l-5.828 13h3.342c.411 0 .75.339.75.75s-.339.75-.75.75h-8.5c-.411 0-.75-.339-.75-.75s.339-.75.75-.75h3.514l5.828-13h-3.342c-.411 0-.75-.339-.75-.75z"/></svg>