<svg viewBox="0 0 24 24" xmlns="http://www.w3.org/2000/svg"><path d="m3.31935068 14.3847701c1.04518462 3.8131958 4.5356919 6.6152299 8.68064932 6.6152299 3.3304686 0 6.2384173-1.8090224 7.7948361-4.4980572l-3.2948361-3.294836-2.6464466 2.6464466c-.1952622.1952621-.5118446.1952621-.7071068 0l-5.6464466-5.6464466-4.14644661 4.1464466c-.01102846.0110285-.02244393.021434-.03420271.0312167zm-.2384428-1.1727848 4.06553873-4.06553869c.19526215-.19526215.51184463-.19526215.70710678 0l5.64644661 5.64644659 2.6464466-2.6464466c.1952622-.1952621.5118446-.1952621.7071068 0l3.4145144 3.4145144c.4709899-1.092111.7319322-2.2960628.7319322-3.560961 0-4.97056275-4.0294373-9-9-9-4.97056275 0-9 4.02943725-9 9 0 .4110121.02755133.8155892.08090788 1.2119853zm8.91909212 8.7880147c-5.5228475 0-10-4.4771525-10-10s4.4771525-10 10-10 10 4.4771525 10 10-4.4771525 10-10 10zm3-16h2c.5522847 0 1 .44771525 1 1v2c0 .55228475-.4477153 1-1 1h-2c-.5522847 0-1-.44771525-1-1v-2c0-.55228475.4477153-1 1-1zm0 1v2h2v-2z"/></svg>
