<svg clip-rule="evenodd" fill-rule="evenodd" stroke-linejoin="round" stroke-miterlimit="2" viewBox="0 0 24 24" xmlns="http://www.w3.org/2000/svg"><path d="m151.257 48.925h24.811v26.503h-24.811z" fill="none" transform="matrix(.967316 0 0 .905544 -146.3137 -44.3034)"/><g transform="matrix(1.37338 0 0 1.37338 1.69976 .90992)"><path d="m3.5 13.1c-.221 0-.4.179-.4.4s.179.4.4.4h8c.221 0 .4-.179.4-.4s-.179-.4-.4-.4z" fill="#080" stroke="#080" stroke-width=".73"/><path d="m5 2.75c0-.276-.224-.5-.5-.5s-.5.224-.5.5v5.3c0 1.933 1.567 3.5 3.5 3.5s3.5-1.567 3.5-3.5v-5.3c0-.276-.224-.5-.5-.5s-.5.224-.5.5v5.3c0 1.381-1.119 2.5-2.5 2.5s-2.5-1.119-2.5-2.5z"/></g></svg>