<svg clip-rule="evenodd" fill-rule="evenodd" stroke-linejoin="round" stroke-miterlimit="2" viewBox="0 0 24 24" xmlns="http://www.w3.org/2000/svg"><path d="m151.257 48.925h24.811v26.503h-24.811z" fill="none" transform="matrix(.967316 0 0 .905544 -146.3137 -44.3034)"/><g fill-rule="nonzero" transform="matrix(.9999976482 0 0 .9999976482 .000315718 -.00000339)"><path d="m3.081 13.212 4.065-4.066c.196-.195.512-.195.708 0l5.646 5.647 2.646-2.647c.196-.195.512-.195.708 0l3.414 3.415c-.108.147-.592 1.513-.795 1.796-.425.591-3.751 4.459-8.235 3.799-4.447-.654-6.354-3.425-7.487-5.04-.391-.558-.68-2.981-.67-2.904z" fill="#008900"/><path d="m15 6h2c.552 0 1 .448 1 1v2c0 .552-.448 1-1 1h-2c-.552 0-1-.448-1-1v-2c0-.552.448-1 1-1z" fill="#ff7a00"/><path d="m3.319 14.385c1.046 3.813 4.536 6.615 8.681 6.615 3.33 0 6.238-1.809 7.795-4.498l-3.295-3.295-2.646 2.647c-.196.195-.512.195-.708 0l-5.646-5.647-4.146 4.147c-.011.011-.023.021-.035.031zm-.238-1.173 4.065-4.066c.196-.195.512-.195.708 0l5.646 5.647 2.646-2.647c.196-.195.512-.195.708 0l3.414 3.415c.471-1.092.732-2.296.732-3.561 0-4.971-4.029-9-9-9s-9 4.029-9 9c0 .411.028.816.081 1.212zm8.919 8.788c-5.523 0-10-4.477-10-10s4.477-10 10-10 10 4.477 10 10-4.477 10-10 10z" fill="#167bba"/></g></svg>