<svg clip-rule="evenodd" fill-rule="evenodd" stroke-linejoin="round" stroke-miterlimit="2" viewBox="0 0 24 24" xmlns="http://www.w3.org/2000/svg"><path d="m151.257 48.925h24.811v26.503h-24.811z" fill="none" transform="matrix(.967316 0 0 .905544 -146.3137 -44.3034)"/><g fill-rule="nonzero"><path d="m13.677 14.531c.261.091.347-.714-.237-1.299l-4.672-4.672c-.282-.282-1.389-.498-1.299-.237l-7.322 7.322c-.094.094-.146.221-.146.354v1.5c0 .276.224.5.5.5h9.5c.133 0 .26-.053.354-.146z" fill="#fffd00" stroke="#000" transform="matrix(.99999846 0 0 .99999846 1.998578 2.001295)"/><path d="m19.854 9.646c-.195-.195-.512-.195-.707 0l-3.586 3.586c-.585.585-1.537.585-2.121 0l-4.672-4.672c-.282-.282-.437-.658-.437-1.061s.155-.779.437-1.061l3.586-3.586c.195-.195.195-.512 0-.707s-.512-.195-.707 0l-3.586 3.586c-.471.471-.73 1.098-.73 1.768 0 .285.048.563.138.824l6.208 6.208c.261.091.539.138.824.138.669 0 1.297-.259 1.768-.73l3.586-3.586c.195-.195.195-.512 0-.707zm-7.059 4.352-4.793-4.793c.02.021.039.042.059.062l4.672 4.672c.02.02.041.04.062.059z" transform="matrix(.99999846 0 0 .99999846 2.210749 1.473752)"/></g></svg>