<svg viewBox="0 0 20 20" xmlns="http://www.w3.org/2000/svg"><path d="m19.854 9.646c-.195-.195-.512-.195-.707 0l-3.586 3.586c-.585.585-1.537.585-2.121 0l-4.672-4.672c-.282-.282-.437-.658-.437-1.061s.155-.779.437-1.061l3.586-3.586c.195-.195.195-.512 0-.707s-.512-.195-.707 0l-3.586 3.586c-.471.471-.73 1.098-.73 1.768 0 .285.048.563.138.824l-7.322 7.322c-.094.094-.146.221-.146.354v1.5c0 .276.224.5.5.5h9.5c.133 0 .26-.053.354-.146l3.322-3.322c.261.091.539.138.824.138.669 0 1.297-.259 1.768-.73l3.586-3.586c.195-.195.195-.512 0-.707zm-10.061 7.354h-8.793v-.793l7.002-7.002c.02.021.039.042.059.062l4.672 4.672c.02.02.041.04.062.059z"/></svg>
