<svg viewBox="0 0 1024 1024" xmlns="http://www.w3.org/2000/svg"><path d="m920 760h-584c-4.4 0-8 3.6-8 8v56c0 4.4 3.6 8 8 8h584c4.4 0 8-3.6 8-8v-56c0-4.4-3.6-8-8-8zm0-568h-584c-4.4 0-8 3.6-8 8v56c0 4.4 3.6 8 8 8h584c4.4 0 8-3.6 8-8v-56c0-4.4-3.6-8-8-8zm0 284h-584c-4.4 0-8 3.6-8 8v56c0 4.4 3.6 8 8 8h584c4.4 0 8-3.6 8-8v-56c0-4.4-3.6-8-8-8zm-704 236h-116c-2.2 0-4 1.8-4 4v34c0 2.2 1.8 4 4 4h72.4v20.5h-35.7c-2.2 0-4 1.8-4 4v34c0 2.2 1.8 4 4 4h35.7v21.5h-72.4c-2.2 0-4 1.8-4 4v34c0 2.2 1.8 4 4 4h116c2.2 0 4-1.8 4-4v-160c0-2.2-1.8-4-4-4zm-116-524h38v120c0 2.2 1.8 4 4 4h40c2.2 0 4-1.8 4-4v-156c0-4.4-3.6-8-8-8h-78c-2.2 0-4 1.8-4 4v36c0 2.2 1.8 4 4 4zm116 240h-116c-2.2 0-4 1.8-4 4v36c0 2.2 1.8 4 4 4h68.4l-70.3 77.7a8.3 8.3 0 0 0 -2.1 5.4v36.9c0 2.2 1.8 4 4 4h116c2.2 0 4-1.8 4-4v-36c0-2.2-1.8-4-4-4h-68.4l70.3-77.7a8.3 8.3 0 0 0 2.1-5.4v-36.9c0-2.2-1.8-4-4-4z"/></svg>