<svg clip-rule="evenodd" fill-rule="evenodd" stroke-linejoin="round" stroke-miterlimit="2" viewBox="0 0 24 24" xmlns="http://www.w3.org/2000/svg"><path d="m151.257 48.925h24.811v26.503h-24.811z" fill="none" transform="matrix(.967316 0 0 .905544 -146.3137 -44.3034)"/><g fill-rule="nonzero"><path d="m912 192h-584c-4.4 0-8 3.6-8 8v56c0 4.4 3.6 8 8 8h584c4.4 0 8-3.6 8-8v-56c0-4.4-3.6-8-8-8zm0 284h-584c-4.4 0-8 3.6-8 8v56c0 4.4 3.6 8 8 8h584c4.4 0 8-3.6 8-8v-56c0-4.4-3.6-8-8-8zm0 284h-584c-4.4 0-8 3.6-8 8v56c0 4.4 3.6 8 8 8h584c4.4 0 8-3.6 8-8v-56c0-4.4-3.6-8-8-8z" transform="matrix(.02450978456 0 0 .02450978456 -1.195386692 -.549050415)"/><path d="m216 712h-116c-2.2 0-4 1.8-4 4v34c0 2.2 1.8 4 4 4h72.4v20.5h-35.7c-2.2 0-4 1.8-4 4v34c0 2.2 1.8 4 4 4h35.7v21.5h-72.4c-2.2 0-4 1.8-4 4v34c0 2.2 1.8 4 4 4h116c2.2 0 4-1.8 4-4v-160c0-2.2-1.8-4-4-4z" fill="#007bbe" transform="matrix(.02403841752 0 0 .02403841752 -.307150616 -.307469724)"/><path d="m216 428h-116c-2.2 0-4 1.8-4 4v36c0 2.2 1.8 4 4 4h68.4l-70.3 77.7c-1.326 1.489-2.071 3.407-2.1 5.4v36.9c0 2.2 1.8 4 4 4h116c2.2 0 4-1.8 4-4v-36c0-2.2-1.8-4-4-4h-68.4l70.3-77.7c1.326-1.489 2.071-3.407 2.1-5.4v-36.9c0-2.2-1.8-4-4-4z" fill="#008900" transform="matrix(.02403841752 0 0 .02403841752 -.307150616 -.307469724)"/><path d="m100 188h38v120c0 2.2 1.8 4 4 4h40c2.2 0 4-1.8 4-4v-156c0-4.4-3.6-8-8-8h-78c-2.2 0-4 1.8-4 4v36c0 2.2 1.8 4 4 4z" fill="#c44d58" transform="matrix(.02403841752 0 0 .02403841752 -.307150616 -.307469724)"/></g></svg>