<svg clip-rule="evenodd" fill-rule="evenodd" stroke-linecap="round" stroke-linejoin="round" viewBox="0 0 24 24" xmlns="http://www.w3.org/2000/svg"><g fill="none" stroke="#000" stroke-width="2" transform="matrix(-.502838 0 0 .503344 18.0341 5.95987)"><path d="m10 13c.943 1.261 2.429 2.005 4.004 2.005 1.326 0 2.599-.527 3.536-1.465l3-3c.9-.932 1.404-2.178 1.404-3.474 0-2.742-2.258-5-5-5-1.296 0-2.542.504-3.474 1.404l-1.72 1.71"/><path d="m14 11c-.943-1.261-2.429-2.005-4.004-2.005-1.326 0-2.599.527-3.536 1.465l-3 3c-.9.932-1.404 2.178-1.404 3.474 0 2.742 2.258 5 5 5 1.296 0 2.542-.504 3.474-1.404l1.71-1.71"/></g><path d="m20 6.529v12.972c0 1.381-1.119 2.5-2.5 2.5h-11c-1.381 0-2.5-1.119-2.5-2.5v-15c0-1.381 1.119-2.5 2.5-2.5h8.972c.133-.008.271.036.382.146l4 4c.11.111.154.249.146.382zm-5-3.528h-8.5c-.828 0-1.5.672-1.5 1.5v15c0 .828.672 1.5 1.5 1.5h11c.828 0 1.5-.672 1.5-1.5v-12.5h-3.5c-.276 0-.5-.224-.5-.5zm1 .707v2.293h2.293z" fill-rule="nonzero"/></svg>