<svg clip-rule="evenodd" fill-rule="evenodd" stroke-linejoin="round" stroke-miterlimit="2" viewBox="0 0 24 24" xmlns="http://www.w3.org/2000/svg"><path d="m151.257 48.925h24.811v26.503h-24.811z" fill="none" transform="matrix(.967316 0 0 .905544 -146.3137 -44.3034)"/><path d="m115.986 132.484-72 64c-1.098.976-2.517 1.516-3.986 1.516-3.292 0-6-2.708-6-6 0-1.713.733-3.346 2.014-4.484l66.955-59.516-66.955-59.516c-1.281-1.138-2.014-2.771-2.014-4.484 0-3.292 2.708-6 6-6 1.469 0 2.888.54 3.986 1.516l72 64c1.281 1.138 2.014 2.771 2.014 4.484s-.733 3.346-2.014 4.484zm100.008 53.516h-96c-3.291 0-6 2.708-6 6s2.709 6 6 6h96c3.292 0 6-2.708 6-6s-2.708-6-6-6z" fill-rule="nonzero" transform="matrix(.0999999 0 0 .0999999 -.7997 -.8)"/></svg>