<svg clip-rule="evenodd" fill-rule="evenodd" stroke-linejoin="round" stroke-miterlimit="2" viewBox="0 0 24 24" xmlns="http://www.w3.org/2000/svg"><path d="m151.257 48.925h24.811v26.503h-24.811z" fill="none" transform="matrix(.96731789291 0 0 .90554551218 -146.31264309 -44.3034325084)"/><g fill-rule="nonzero" transform="matrix(.0446429 0 0 .0446429 1.99999929 2.0000048)"><path d="m96 0v160h32v-128h192v96h96v288h-320v32h352v-336.98l-111.02-111.02z"/><path d="m110.094 369.906c.005-.031-31.943-32.026-31.977-32.023l-78.117 78.117 32 32z"/><path d="m160 192c-52.664 0-96 43.336-96 96 .042 17.606 4.927 34.866 14.117 49.883l31.977 32.023c15.026 9.187 32.294 14.063 49.906 14.094 52.664 0 96-43.336 96-96 0-52.664-43.336-96-96-96zm0 32c35.109 0 64 28.891 64 64 0 35.109-28.891 64-64 64s-64-28.891-64-64c0-35.109 28.891-64 64-64z" fill="#167bba"/></g></svg>