<svg viewBox="0 0 448 448" xmlns="http://www.w3.org/2000/svg"><path d="m96 0v32 128h32v-128h192v96h96v288h-256-16-16-32v32h32 320v-32-304.98047l-111.01953-111.01953h-208.98047z"/><path d="m160 192a96 95.999992 0 0 0 -96 96 96 95.999992 0 0 0 14.117188 49.88281l-78.117188 78.11719 32 32 78.09375-78.09375a96 95.999992 0 0 0 49.90625 14.09375 96 95.999992 0 0 0 96-96 96 95.999992 0 0 0 -96-96zm0 32a64 63.999996 0 0 1 64 64 64 63.999996 0 0 1 -64 64 64 63.999996 0 0 1 -64-64 64 63.999996 0 0 1 64-64z"/></svg>
