<svg fill="none" viewBox="0 0 48 48" xmlns="http://www.w3.org/2000/svg"><path d="m0 0h48v48h-48z" fill="currentColor" fill-opacity=".01"/><g clip-rule="evenodd" fill="currentColor" fill-rule="evenodd"><path d="m18.8533 9.11597c-7.5306 4.83633-11.71417 10.46523-12.55074 16.88693-1.30235 9.9971 7.63784 14.8904 12.16774 10.4938 4.5299-4.3965 1.8145-9.9771-1.4656-11.5025-3.2801-1.5255-5.286-.9942-4.9361-3.0326.3499-2.0385 5.0165-7.6903 9.1163-10.3224.272-.2313.3755-.6801.1136-1.0205-.1723-.224-.5102-.66315-1.0137-1.31758-.4403-.57226-.8621-.55085-1.4315-.18515z"/><path d="m38.6789 9.11597c-7.5305 4.83633-11.7141 10.46523-12.5507 16.88693-1.3023 9.9971 7.6379 14.8904 12.1678 10.4938 4.5299-4.3965 1.8145-9.9771-1.4656-11.5025-3.2801-1.5255-5.2861-.9942-4.9361-3.0326.3499-2.0385 5.0165-7.6903 9.1163-10.3224.272-.2313.3755-.6801.1135-1.0205-.1722-.224-.5101-.66315-1.0136-1.31758-.4403-.57226-.8621-.55085-1.4316-.18515z"/></g></svg>
