<svg clip-rule="evenodd" fill-rule="evenodd" stroke-linejoin="round" stroke-miterlimit="2" viewBox="0 0 24 24" xmlns="http://www.w3.org/2000/svg"><path d="m151.257 48.925h24.811v26.503h-24.811z" fill="none" transform="matrix(.967316 0 0 .905544 -146.3137 -44.3034)"/><g transform="matrix(.455823 0 0 .455823 1.1856 1.2946)"><path d="m18.853 9.116c-7.53 4.836-11.714 10.465-12.55 16.887-1.303 9.997 7.637 14.89 12.167 10.494 4.53-4.397 1.815-9.977-1.465-11.503-3.28-1.525-5.286-.994-4.936-3.032.35-2.039 5.016-7.691 9.116-10.323.272-.231.375-.68.114-1.02-.173-.224-.511-.663-1.014-1.318-.44-.572-.862-.551-1.432-.185z"/><path d="m38.679 9.116c-7.531 4.836-11.714 10.465-12.551 16.887-1.302 9.997 7.638 14.89 12.168 10.494 4.53-4.397 1.815-9.977-1.466-11.503-3.28-1.525-5.286-.994-4.936-3.032.35-2.039 5.017-7.691 9.117-10.323.272-.231.375-.68.113-1.02-.172-.224-.51-.663-1.013-1.318-.441-.572-.863-.551-1.432-.185z"/></g></svg>