<svg clip-rule="evenodd" fill-rule="evenodd" stroke-linejoin="round" stroke-miterlimit="2" viewBox="0 0 24 24" xmlns="http://www.w3.org/2000/svg"><path d="m151.257 48.925h24.811v26.503h-24.811z" fill="none" transform="matrix(.967316 0 0 .905544 -146.314 -44.3034)"/><path d="m6 4.75c0-.69.56-1.25 1.25-1.25h5c2.606 0 4.75 2.144 4.75 4.75 0 .977-.301 1.93-.862 2.729 1.746.825 2.864 2.59 2.864 4.521 0 2.743-2.257 5-5 5 0 0-.001 0-.002 0h-6.75c-.69 0-1.25-.56-1.25-1.25zm2.5 8.25v5h5.5c1.371 0 2.5-1.129 2.5-2.5s-1.129-2.5-2.5-2.5zm0-2.5h3.751c1.234 0 2.25-1.016 2.25-2.25s-1.016-2.25-2.251-2.25h-3.75z" transform="matrix(.941176 0 0 .941176 .2341 .7059)"/></svg>