<svg clip-rule="evenodd" fill-rule="evenodd" stroke-linejoin="round" stroke-miterlimit="2" viewBox="0 0 24 24" xmlns="http://www.w3.org/2000/svg"><path d="m151.257 48.925h24.811v26.503h-24.811z" fill="none" transform="matrix(.967316 0 0 .905544 -146.3137 -44.3034)"/><g fill-rule="nonzero" transform="matrix(.02450978456 0 0 .02450978456 -.548731307 -.549050415)"><path d="m912 192h-584c-4.4 0-8 3.6-8 8v56c0 4.4 3.6 8 8 8h584c4.4 0 8-3.6 8-8v-56c0-4.4-3.6-8-8-8zm0 284h-584c-4.4 0-8 3.6-8 8v56c0 4.4 3.6 8 8 8h584c4.4 0 8-3.6 8-8v-56c0-4.4-3.6-8-8-8zm0 284h-584c-4.4 0-8 3.6-8 8v56c0 4.4 3.6 8 8 8h584c4.4 0 8-3.6 8-8v-56c0-4.4-3.6-8-8-8z"/><path d="m104 796c0 30.721 25.279 56 56 56s56-25.279 56-56-25.279-56-56-56-56 25.279-56 56z" fill="#167bba"/><path d="m104 512c0 30.721 25.279 56 56 56s56-25.279 56-56-25.279-56-56-56-56 25.279-56 56z" fill="#080"/><path d="m104 228c0 30.721 25.279 56 56 56s56-25.279 56-56-25.279-56-56-56-56 25.279-56 56z" fill="#c44d58"/></g></svg>