<svg clip-rule="evenodd" fill-rule="evenodd" stroke-linejoin="round" stroke-miterlimit="2" viewBox="0 0 64 64" xmlns="http://www.w3.org/2000/svg"><path d="m-.000738 0h64v64h-64z" fill="none"/><g transform="translate(-455.098 -175.784)"><path d="m519.098 177.605c0-1.005-.816-1.821-1.821-1.821h-60.359c-1.005 0-1.82.816-1.82 1.821v14.562c0 1.005.815 1.82 1.82 1.82h60.359c1.005 0 1.821-.815 1.821-1.82z" fill="#88c200"/><path d="m496.764 201.785c0-2.3-1.867-4.167-4.166-4.167h-33.334c-2.299 0-4.166 1.867-4.166 4.167v33.833c0 2.299 1.867 4.166 4.166 4.166h33.334c2.299 0 4.166-1.867 4.166-4.166z" fill="#8fcceb"/><path d="m519.098 199.97c0-1.298-1.054-2.352-2.352-2.352h-14.079c-1.298 0-2.351 1.054-2.351 2.352v11.503c0 1.297 1.053 2.351 2.351 2.351h14.079c1.298 0 2.352-1.054 2.352-2.351z" fill="#b3b3b3"/><path d="m519.098 221.157c0-1.355-1.247-2.456-2.782-2.456h-13.218c-1.536 0-2.782 1.101-2.782 2.456v16.171c0 1.356 1.246 2.456 2.782 2.456h13.218c1.535 0 2.782-1.1 2.782-2.456z" fill="#c44d58" transform="matrix(1 0 0 1.1327 0 -31.8203)"/></g></svg>