<svg clip-rule="evenodd" fill-rule="evenodd" stroke-linejoin="round" stroke-miterlimit="2" viewBox="0 0 65 64" xmlns="http://www.w3.org/2000/svg"><path d="m-.000438 0h64v64h-64z" fill="none"/><g fill-rule="nonzero" transform="matrix(.5730897909 0 0 .5730897909 374.92418418 -264.79893775)"><path d="m-619.695 565.147c-.316-.224-1.098-1.187-1.739-2.14-1.181-1.756-3.986-5.864-6.964-10.2-3.694-5.378-4.925-7.261-4.819-7.367.114-.114 5.249-1.422 13.272-3.381 2.975-.727 4.671-1.056 5.005-.972.782.196 2.109 1.541 2.564 2.599.225.524.502 1.657.616 2.516.441 3.354 1.089 4.479 3.185 5.532 2.279 1.145 4.225 2.448 5.19 3.477.848.903 1.702 2.951 1.73 4.15.029 1.227-.367 1.915-1.398 2.428-1.005.5-14.167 3.765-15.178 3.765-.605 0-1.075-.13-1.464-.407z" fill="#676e78" stroke="#676e78" stroke-width="1.74"/><path d="m-547.866 523.631c-.643-.25-6.922-2.922-8.086-3.44-.314-.14-1.513-.654-2.664-1.143-3.498-1.484-3.714-1.659-3.855-3.132-.122-1.273.408-2.153 1.564-2.594 1.033-.395.935-.424 6.477 1.958 2.302.989 4.87 2.081 5.708 2.427 3.925 1.623 4.219 1.841 4.412 3.279.122.908-.313 2.002-.965 2.429-.662.434-1.791.528-2.591.216zm-12.397-19.058c-.683-.371-1.302-1.421-1.301-2.206.001-.743.547-1.734 1.179-2.141.241-.154 3.806-1.117 7.923-2.138 7.31-1.814 7.505-1.851 8.27-1.585 1.002.35 1.653 1.274 1.652 2.347 0 .87-.523 1.877-1.146 2.21-.621.333-14.76 3.804-15.458 3.795-.337-.004-.841-.131-1.119-.282zm-6.425-10.508c-.951-.485-1.409-1.207-1.409-2.223 0-1.012-.242-.629 6.448-10.172 1.413-2.016 2.699-3.651 3.03-3.852 1.656-1.011 3.775.311 3.747 2.337-.01.774.214.424-6.076 9.461-2.231 3.205-3.052 4.241-3.548 4.476-.829.393-1.381.387-2.192-.027z" fill="#c44d58" stroke="#c44d58" stroke-width="1.74"/><path d="m-568.89 542.925c-9.392-4.864-27.169-12.451-40.182-10.449l-1.371.292-.176-.777c-.096-.428-.61-2.49-1.141-4.583-2.8-11.04-6.897-27.73-6.826-27.801.045-.046.801-.283 1.678-.529 12.508-4.798 21.783-15.932 28.116-25.276 2.072-3.073 2.69-3.566 4.47-3.566 1.556 0 2.507.591 3.213 1.998.282.561 1.85 6.619 4.138 15.981.639 2.616 1.292 4.957 1.451 5.203.159.245.55.588.868.761 2.95 1.606 5.212 3.644 6.583 5.934 1.177 1.965 1.737 3.61 1.987 5.843.409 3.654-.342 6.885-2.336 10.042-.676 1.072-.947 1.693-.946 2.175 0 .37 1.113 5.115 2.473 10.544 1.425 5.688 2.471 10.243 2.468 10.749-.004.981-.498 2.219-1.098 2.752-.814.725-2.153 1.005-3.369.707zm-4.921-11.189c-.052-.183-1.385-5.555-2.961-11.938s-2.952-11.906-3.057-12.272-1.518-6.01-3.14-12.541-2.991-11.918-3.044-11.97c-.052-.052-.123-.06-.157-.016-7.957 9.313-15.362 16.425-24.438 21.573-.073.065 4.722 19.353 4.884 19.649 10.23.775 22.031 3.714 29.985 7.146 1.774.775 2.06.829 1.928.369zm-61.373 6.279c-.11-.393-.547-2.126-.973-3.853-1.37-5.56-6.862-27.671-6.959-28.015-.142-.504-1.149-.22 15.192-4.283 1.539-.382 2.852-.642 2.917-.577.121.121 8.266 32.613 8.267 32.98 0 .179-3.801 1.183-11.129 2.94-1.36.326-3.321.802-4.356 1.057-2.577.635-2.716.623-2.959-.249zm-8-1.32c-2.31-.383-4.64-1.629-6.487-3.471-4.536-4.522-5.893-12.313-3.083-17.709.939-1.803 3.761-4.728 4.169-4.321.12.12 6.35 25.03 6.351 25.394 0 .24-.088.25-.95.107z" fill="#167bba"/></g></svg>