<svg clip-rule="evenodd" fill-rule="evenodd" stroke-linejoin="round" stroke-miterlimit="2" viewBox="0 0 64 64" xmlns="http://www.w3.org/2000/svg"><path d="m-.000438 0h64v64h-64z" fill="none"/><g fill-rule="nonzero"><path d="m24.022 4.992c0 .549.451 1 1 1s1-.451 1-1-.451-1-1-1-1 .451-1 1z" fill="#c44d58" stroke="#c44d58" stroke-width="1.44" transform="matrix(1.73061 0 0 1.73061 .5793 6.3)"/><path d="m29.08 0h-10.674c-.306.016-1.002.494-1.092.584l-12.73 12.728c-.78.78-.78 2.044 0 2.824l1.588 1.588-1.588 1.588c-.78.78-.78 2.044 0 2.824l9.292 9.292c.39.39.9.584 1.412.584.51 0 1.022-.194 1.412-.584l12.728-12.73c.092-.09.572-.706.572-1.09v-16.614c.028-.558-.372-.994-.92-.994zm-1.058 17.27c-.006.01-.01.016-.008.016l-12.724 12.73-9.292-9.288 1.588-1.588 6.29 6.29c.39.39.9.584 1.412.584.51 0 1.022-.194 1.412-.584l11.322-11.322zm0-15.27v9.27c-.006.01-.01.016-.008.016l-12.724 12.73-9.292-9.288 12.644-12.642c.038-.028.084-.058.13-.086z" fill="#167bba" stroke="#167bba" stroke-width=".58" transform="matrix(1.73061 0 0 1.73061 2.5793 4.3)"/></g></svg>