<svg clip-rule="evenodd" fill-rule="evenodd" stroke-linecap="round" stroke-miterlimit="2" viewBox="0 0 66 64" xmlns="http://www.w3.org/2000/svg"><g transform="translate(-312.436 -262.9095)"><g fill="#fff"><path d="m23.949 6h-8.127l2 2h8.139m0 0 4.039 4.287m0 0v17.713h-22v-12.178l-2-2v14.178c0 1.104.896 2 2 2h22c1.104 0 2-.896 2-2v-16.066m0 0-8.051-7.934" fill-rule="nonzero" transform="matrix(2.00003 0 0 2.00003 312.434 262.909)"/><path d="m99.96 95.783 11.191 15.126h-22.382z" stroke="#fff" stroke-width="2.23" transform="matrix(-.708413 -.708413 .549695 -.549695 377.654 415.432)"/><path d="m21.172 21.172-1.782-5.38-10.28-10.28-3.598 3.598 10.28 10.28z" fill-rule="nonzero" transform="matrix(2.00003 0 0 2.00003 312.434 262.909)"/></g><path d="m.746.746c-.994.994-.994 2.604 0 3.598l2.648 2.648 3.598-3.598-2.648-2.648c-.994-.994-2.604-.994-3.598 0z" fill="#88c200" fill-rule="nonzero" transform="matrix(2.00003 0 0 2.00003 312.434 262.909)"/><path d="m337.518 314.715h25.917" fill="none" stroke="#88c200" stroke-linejoin="round" stroke-miterlimit="1.5" stroke-width="4"/></g></svg>