<svg clip-rule="evenodd" fill-rule="evenodd" stroke-linejoin="round" stroke-miterlimit="2" viewBox="0 0 64 64" xmlns="http://www.w3.org/2000/svg"><path d="m0 0h64v64h-64z" fill="none"/><g fill-rule="nonzero" transform="matrix(2 0 0 2 1.803 0)"><path d="m4 28h2v2c0 1.104.896 2 2 2h20c1.104 0 2-.896 2-2v-24c0-1.104-.896-2-2-2h-2v-2c0-1.104-.896-2-2-2h-20c-1.104 0-2 .896-2 2v24c0 1.104.896 2 2 2zm20.5-1.5h-21v-25h21zm4-21v25h-21v-2.5h16.5c1.104 0 2-.896 2-2v-20.5z" fill="#b3b3b3"/><path d="m7 14h14c.552 0 1-.448 1-1s-.448-1-1-1h-14c-.552 0-1 .448-1 1s.448 1 1 1zm0 4h14c.552 0 1-.448 1-1s-.448-1-1-1h-14c-.552 0-1 .448-1 1s.448 1 1 1zm0 4h14c.552 0 1-.448 1-1s-.448-1-1-1h-14c-.552 0-1 .448-1 1s.448 1 1 1z" fill="#fff"/></g></svg>