<svg clip-rule="evenodd" fill-rule="evenodd" stroke-linejoin="round" stroke-miterlimit="2" viewBox="0 0 64 64" xmlns="http://www.w3.org/2000/svg"><path d="m-.00037.0001h64v64h-64z" fill="none"/><g fill-rule="nonzero" transform="matrix(2 0 0 2 -.00067 .0001)"><path d="m27.526 12.682c-.252-.876-.594-1.71-1.028-2.492l1.988-4.182c-.738-.92-1.574-1.756-2.494-2.494l-4.182 1.988c-.78-.432-1.616-.776-2.492-1.028l-1.556-4.372c-.578-.064-1.166-.102-1.762-.102s-1.184.038-1.762.102l-1.556 4.372c-.874.252-1.71.596-2.49 1.028l-4.184-1.988c-.92.738-1.756 1.574-2.494 2.494l1.988 4.182c-.432.78-.776 1.616-1.028 2.492l-4.372 1.556c-.064.578-.102 1.166-.102 1.762s.038 1.184.102 1.762l4.374 1.556c.252.876.594 1.71 1.028 2.492l-1.988 4.182c.738.92 1.574 1.758 2.494 2.494l4.182-1.988c.78.432 1.616.776 2.492 1.028l1.556 4.374c.576.062 1.164.1 1.76.1s1.184-.038 1.762-.102l1.556-4.374c.876-.252 1.71-.594 2.492-1.028l4.182 1.988c.92-.738 1.758-1.574 2.494-2.494l-1.988-4.182c.432-.78.776-1.616 1.028-2.492l4.374-1.556c.062-.576.1-1.164.1-1.76s-.038-1.184-.102-1.762zm-11.526 11.318c-4.418 0-8-3.582-8-8s3.582-8 8-8 8 3.582 8 8-3.582 8-8 8z" fill="#88c200"/><path d="m12 16c0 2.194 1.806 4 4 4s4-1.806 4-4-1.806-4-4-4-4 1.806-4 4z" fill="#c44d58"/></g></svg>