<svg enable-background="new 0 0 16 16" height="16" viewBox="0 0 16 16" width="16" xmlns="http://www.w3.org/2000/svg"><path d="m13 0h-10c-1.657 0-3 1.343-3 3v10c0 1.657 1.343 3 3 3h10c1.657 0 3-1.343 3-3v-10c0-1.657-1.343-3-3-3zm-8.685 12.977c-.719 0-1.303-.58-1.303-1.299 0-.714.584-1.301 1.303-1.301.721 0 1.304.587 1.305 1.301 0 .718-.583 1.299-1.305 1.299zm3.274.011c0-1.228-.477-2.381-1.341-3.243-.864-.866-2.013-1.344-3.234-1.344v-1.876c3.561 0 6.46 2.899 6.46 6.463zm3.329-.002c0-4.361-3.545-7.91-7.902-7.91v-1.876c5.394 0 9.784 4.392 9.784 9.786z" fill="#676e78"/></svg>