<?xml version="1.0" encoding="utf-8"?>
<!-- Generator: Adobe Illustrator 15.0.2, SVG Export Plug-In  -->
<!DOCTYPE svg PUBLIC "-//W3C//DTD SVG 1.1//EN" "http://www.w3.org/Graphics/SVG/1.1/DTD/svg11.dtd" [
	<!ENTITY ns_flows "http://ns.adobe.com/Flows/1.0/">
]>
<svg version="1.1"
	 xmlns="http://www.w3.org/2000/svg" xmlns:xlink="http://www.w3.org/1999/xlink" xmlns:a="http://ns.adobe.com/AdobeSVGViewerExtensions/3.0/"
	 x="0px" y="0px" width="18px" height="32px" viewBox="0 0 18 32" overflow="visible" enable-background="new 0 0 18 32"
	 xml:space="preserve">
<defs>
</defs>
<path fill="#999999" d="M11.561,0c0.842,1.245,1.376,2.453,1.38,3.593l0.03,16.824c-0.003,1.58-0.475,2.816-1.413,3.715
	c-0.687,0.657-1.533,0.974-2.542,0.957c-1.01-0.023-1.833-0.37-2.478-1.043c-0.884-0.923-1.324-2.192-1.319-3.795L5.517,6.455
	c0.01-0.35,0.139-0.646,0.392-0.89c0.252-0.241,0.562-0.36,0.926-0.351C7.203,5.22,7.505,5.351,7.749,5.606
	C7.99,5.859,8.109,6.16,8.1,6.512L7.803,20.309c-0.019,0.846,0.167,1.471,0.553,1.874c0.198,0.202,0.433,0.312,0.705,0.312
	c0.27-0.002,0.502-0.096,0.695-0.281c0.404-0.391,0.616-1.003,0.629-1.854l-0.03-16.779c0.013-0.408-0.17-0.951-0.542-1.334H3.2
	C2.812,2.613,2.613,2.988,2.606,3.371L2.583,23.633c-0.003,1.551,0.509,2.862,1.539,3.934c1.127,1.179,2.726,1.786,4.8,1.837
	c2.075,0.04,3.7-0.5,4.881-1.626c0.486-0.471,0.894-1.062,1.221-1.772c0.319-0.709,0.475-1.4,0.455-2.069V7.5
	c0.006-0.378,0.052-0.685,0.293-0.911c0.252-0.245,0.562-0.36,0.923-0.354c0.366,0.009,0.673,0.138,0.91,0.391
	c0.263,0.268,0.474,0.578,0.461,0.93v16.435c0.006,1.017-0.212,2.041-0.649,3.063c-0.438,1.016-1.037,1.89-1.794,2.624
	c-1.674,1.598-3.91,2.367-6.725,2.318c-2.807-0.056-5.015-0.916-6.613-2.587c-1.53-1.597-2.289-3.54-2.284-5.837V3.313
	C0.026,2.203,0.503,1.22,1.397,0H11.561z"/>
</svg>
