<svg enable-background="new 0 0 18 32" height="32" viewBox="0 0 18 32" width="18" xmlns="http://www.w3.org/2000/svg"><path d="m11.561 0c.842 1.245 1.376 2.453 1.38 3.593l.03 16.824c-.003 1.58-.475 2.816-1.413 3.715-.687.657-1.533.974-2.542.957-1.01-.023-1.833-.37-2.478-1.043-.884-.923-1.324-2.192-1.319-3.795l.298-13.796c.01-.35.139-.646.392-.89.252-.241.562-.36.926-.351.368.006.67.137.914.392.241.253.36.554.351.906l-.297 13.797c-.019.846.167 1.471.553 1.874.198.202.433.312.705.312.27-.002.502-.096.695-.281.404-.391.616-1.003.629-1.854l-.03-16.779c.013-.408-.17-.951-.542-1.334h-6.613c-.388.366-.587.741-.594 1.124l-.023 20.262c-.003 1.551.509 2.862 1.539 3.934 1.127 1.179 2.726 1.786 4.8 1.837 2.075.04 3.7-.5 4.881-1.626.486-.471.894-1.062 1.221-1.772.319-.709.475-1.4.455-2.069v-16.437c.006-.378.052-.685.293-.911.252-.245.562-.36.923-.354.366.009.673.138.91.391.263.268.474.578.461.93v16.435c.006 1.017-.212 2.041-.649 3.063-.438 1.016-1.037 1.89-1.794 2.624-1.674 1.598-3.91 2.367-6.725 2.318-2.807-.056-5.015-.916-6.613-2.587-1.53-1.597-2.289-3.54-2.284-5.837v-20.259c.025-1.11.502-2.093 1.396-3.313z" fill="#999"/></svg>