<svg clip-rule="evenodd" fill-rule="evenodd" stroke-linejoin="round" stroke-miterlimit="2" viewBox="0 0 64 64" xmlns="http://www.w3.org/2000/svg"><path d="m.000157 0h64v64h-64z" fill="none"/><g fill-rule="nonzero" transform="matrix(3.50954 0 0 3.50954 7.997 7.997)"><path d="m13.383 1.361-.975-1.229c-.127-.158-.318-.13-.318-.13h-11.651c-.242 0-.438.195-.438.437v12.802c0 .241.196.438.438.438h12.801c.242 0 .438-.196.438-.438v-11.171c0-.038.002-.302-.295-.709zm-11.085-.466h8.79v5.704h-8.79zm4.883 10.91c-1.17 0-2.12-.949-2.12-2.119s.949-2.119 2.12-2.119c1.17 0 2.118.949 2.118 2.119s-.948 2.119-2.118 2.119z" fill="#676e78" stroke="#676e78" stroke-width=".28"/><path d="m7.616 1.951h2.25v3.756h-2.25z" fill="#030104"/><path d="m7.195 8.681c-.555 0-1.003.449-1.003 1.003 0 .555.449 1.003 1.003 1.003.553 0 1.002-.448 1.002-1.003 0-.554-.449-1.003-1.002-1.003z" fill="#167bba" stroke="#167bba" stroke-width=".28"/></g></svg>