<svg clip-rule="evenodd" fill-rule="evenodd" stroke-linejoin="round" stroke-miterlimit="2" viewBox="0 0 64 64" xmlns="http://www.w3.org/2000/svg"><path d="m0 0h64v64h-64z" fill="none"/><g transform="matrix(1.75 0 0 1.75 3.559 3.955)"><g fill-rule="nonzero"><path d="m30 18h2v6h-2z" fill="#8fcceb" stroke="#8fcceb" stroke-width=".57"/><path d="m30 10h2v6h-2z" fill="#c44d58" stroke="#c44d58" stroke-width=".57"/><path d="m30 2h2v6h-2z" fill="#88c200" stroke="#88c200" stroke-width=".57"/><path d="m26 0h-24c-1.104 0-2 .896-2 2v28c0 1.104.896 2 2 2h24c1.104 0 2-.896 2-2v-28c0-1.104-.896-2-2-2zm-24 2h4v28h-4zm24 28h-18v-28h18z" fill="#b3b3b3"/></g><path d="m1.979 2.009h4.08v27.987h-4.08z" fill="#fff"/></g></svg>