<svg clip-rule="evenodd" fill-rule="evenodd" stroke-linejoin="round" stroke-miterlimit="2" viewBox="0 0 64 64" xmlns="http://www.w3.org/2000/svg"><path d="m-.000438 0h64v64h-64z" fill="none"/><g fill-rule="nonzero"><path d="m0 30c0 1.104.896 2 2 2h28c1.104 0 2-.896 2-2v-16h-32z" fill="#ebebeb" stroke="#676e78" stroke-width="1.9" transform="matrix(1.84375 0 0 1.84375 2.4993 -.942)"/><path d="m30 4h-10c-1.104 0-2 .896-2 2 0 0-.26 1.834-2 2h-1.321c-1.104 0-2 .864-2 1.968v2.032h19.321v-6c0-1.104-.896-2-2-2z" fill="#c44d58" stroke="#c44d58" stroke-width=".53" transform="matrix(1.89286 0 0 1.89286 -12.2857 -2.071)"/><path d="m30 4h-10c-1.104 0-2 .896-2 2 0 0-.26 1.834-2 2h-14c-1.104 0-2 .864-2 1.968v2.032h32v-6c0-1.104-.896-2-2-2z" fill="#88c200" stroke="#88c200" stroke-width=".53" transform="matrix(1.89286 0 0 1.89286 1.7143 -2.071)"/></g></svg>