<svg clip-rule="evenodd" fill-rule="evenodd" stroke-linejoin="round" stroke-miterlimit="2" viewBox="0 0 64 64" xmlns="http://www.w3.org/2000/svg"><path d="m.000157 0h64v64h-64z" fill="none"/><g fill-rule="nonzero" transform="matrix(2.66667 0 0 2.66667 -1 0)"><path d="m14.952 3c-1.037 0-1.872.835-3.542 2.505l-4.91 4.91 7.085 7.085 4.91-4.91c1.67-1.67 2.505-2.505 2.505-3.542 0-1.038-.835-1.873-2.505-3.543s-2.505-2.505-3.543-2.505z" fill="#b3b3b3"/><path d="m13.585 17.5-7.085-7.085-.995.995c-1.67 1.67-2.505 2.505-2.505 3.542 0 1.038.835 1.873 2.505 3.543s2.505 2.505 3.543 2.505c1.037 0 1.872-.835 3.542-2.505z" fill="#c44d58"/><g fill="#fff"><path d="m9.033 21h-.033z"/><path d="m9.063 21c.796-.006 1.476-.506 2.51-1.5h9.427c.414 0 .75.336.75.75s-.336.75-.75.75z"/></g></g></svg>