<svg clip-rule="evenodd" fill-rule="evenodd" stroke-linecap="round" stroke-linejoin="round" stroke-miterlimit="1.5" viewBox="0 0 64 64" xmlns="http://www.w3.org/2000/svg"><g transform="translate(-312.435 -262.91)"><g fill-rule="nonzero" transform="matrix(2.00003 0 0 2.00003 312.434 262.909)"><path d="m30 6h-14.178l2 2h12.178v22h-22v-12.178l-2-2v14.178c0 1.104.896 2 2 2h22c1.104 0 2-.896 2-2v-22c0-1.104-.896-2-2-2z" fill="#167bba"/><path d="m21.172 21.172-1.782-5.38-10.28-10.28-3.598 3.598 10.28 10.28z" fill="#676e78"/><path d="m.746.746c-.994.994-.994 2.604 0 3.598l2.648 2.648 3.598-3.598-2.648-2.648c-.994-.994-2.604-.994-3.598 0z" fill="#c44d58"/></g><path d="m337.518 314.715h25.917" fill="none" stroke="#167bba" stroke-width="4"/></g></svg>