<svg enable-background="new 0 0 508 508" viewBox="0 0 508 508" xmlns="http://www.w3.org/2000/svg"><path d="m343.6 37.2c-119.2-49.6-256.4 7.2-305.6 126.8-49.6 119.2 7.2 256.4 126.8 305.6 119.2 49.6 256.4-7.2 305.6-126.8 49.2-119.2-7.6-256-126.8-305.6zm50.8 274.4c-32 77.6-121.2 114.4-198.8 82.4s-114.4-121.2-82.4-198.8 121.2-114.4 198.8-82.4c77.6 32.4 114.8 121.2 82.4 198.8z" fill="#f4efef"/><g fill="#df5c4e"><path d="m312 394 31.2 75.6c55.2-22.8 102-66.8 126.8-126.8l-75.6-31.2c-16 38.8-46.4 67.6-82.4 82.4z"/><path d="m196.4 113.2c-38.8 16-67.6 46.4-82.4 82.4l-75.6-31.2c22.8-55.2 66.8-102 126.8-126.8z"/><path d="m113.6 311.6-75.6 31.2c22.8 55.2 66.8 102 126.8 126.8l31.2-75.6c-39.2-16-67.6-46.4-82.4-82.4z"/><path d="m312 113.2c38.8 16 67.6 46.4 82.4 82.4l75.6-31.2c-22.8-55.2-66.8-102-126.8-126.8z"/></g><path d="m253.6 491.6c-30.4 0-61.2-6-90.8-18-121.2-50.4-178.8-189.6-128.8-310.8 24.4-58.8 70-104.4 128.8-128.8s123.6-24.4 182 0c121.2 50.4 178.8 189.6 128.8 310.8-37.6 91.2-126.4 146.8-220 146.8zm.4-468c-30 0-59.6 6-88 17.6-56.8 23.6-100.8 67.6-124.4 124.4-48.4 117.2 7.2 252 124.4 300.4s252-7.2 300.4-124.4-7.2-252-124.4-300.4c-28.4-12-58.4-17.6-88-17.6zm0 386c-20.4 0-40.4-4-59.6-12-79.6-32.8-117.6-124.4-84.4-204 16-38.4 46-68.4 84.4-84.4s80.8-16 119.6 0c38.4 16 68.4 46 84.4 84.4s16 80.8 0 119.6c-16 38.4-46 68.4-84.4 84.4-19.6 8-40 12-60 12zm0-304.4c-19.2 0-38.4 3.6-56.8 11.2-36.4 15.2-65.2 43.6-80 80-31.2 75.6 4.8 162.4 80 193.6 36.4 15.2 76.8 15.2 113.2 0s65.2-43.6 80-80c15.2-36.4 15.2-76.8 0-113.2s-43.6-65.2-80-80c-18-7.6-37.2-11.6-56.4-11.6z"/><path d="m113.6 199.2c-.4 0-1.2 0-1.6-.4l-57.2-23.6c-2-.8-3.2-3.2-2-5.2.8-2 3.2-3.2 5.2-2l53.2 22c15.6-35.6 43.6-63.6 79.2-79.2l-22.8-54.4c-.8-2 0-4.4 2-5.2s4.4 0 5.2 2l24 58.4c.8 2 0 4.4-2 5.2-36.4 15.2-65.2 43.6-80 80-.4 1.6-1.6 2.4-3.2 2.4z"/><path d="m38 168c-.4 0-1.2 0-1.6-.4-2-.8-3.2-3.2-2-5.2 24.4-58.8 70-104.4 128.8-128.8 2-.8 4.4 0 5.2 2s0 4.4-2 5.2c-56.8 23.6-100.8 67.6-124.4 124.4-1.2 2-2.8 2.8-4 2.8z"/><path d="m394.4 199.2c-.4 0-1.2 0-1.6-.4-.8-.4-1.6-1.2-2-2-15.2-36.4-43.6-65.2-80-80-2-.8-3.2-3.2-2-5.2l31.2-75.6c.8-2 3.2-3.2 5.2-2 58.8 24.4 104.4 70 128.8 128.8.4.8.4 2 0 3.2-.4.8-1.2 1.6-2 2l-75.6 31.2c-.8 0-1.6 0-2 0zm-77.2-88.4c35.6 15.6 63.6 43.6 79.2 79.2l68.4-28.4c-23.2-53.6-65.6-96-119.2-119.2z"/><path d="m343.6 473.6c-.4 0-1.2 0-1.6-.4-.8-.4-1.6-1.2-2-2l-31.2-75.6c-.8-2 0-4.4 2-5.2 36.4-15.2 65.2-43.6 80-80 .8-2 3.2-3.2 5.2-2l75.6 31.2c.8.4 1.6 1.2 2 2s.4 2 0 3.2c-24.4 58.8-70 104.4-128.8 128.8-.4 0-.8 0-1.2 0zm-26.4-77.6 28.4 68.4c53.6-23.2 96-65.6 119.2-119.2l-68.4-28.4c-15.6 35.6-43.6 63.6-79.2 79.2z"/><path d="m164.4 473.6c-.4 0-1.2 0-1.6-.4-58.8-24.4-104.4-70-128.8-128.8-.8-2 0-4.4 2-5.2l75.6-31.2c.8-.4 2-.4 3.2 0s1.6 1.2 2 2c15.2 36.4 43.6 65.2 80 80 .8.4 1.6 1.2 2 2s.4 2 0 3.2l-31.2 75.6c0 2-1.6 2.8-3.2 2.8zm-121.2-128.4c23.2 53.6 65.6 96 119.2 119.2l28.4-68.4c-35.6-15.6-63.6-43.6-79.2-79.2z"/><path d="m18 267.6h-6c-6.4 0-12-5.2-12-12s5.2-12 12-12h6c2.4 0 4 1.6 4 4s-1.6 4-4 4h-6c-2 0-4 2-4 4s2 4 4 4h6c2.4 0 4 1.6 4 4s-1.6 4-4 4z"/><path d="m496 267.6h-6c-2.4 0-4-1.6-4-4s1.6-4 4-4h6c2 0 4-2 4-4s-2-4-4-4h-6c-2.4 0-4-1.6-4-4s1.6-4 4-4h6c6.4 0 12 5.2 12 12s-5.2 12-12 12z"/><path d="m250 507.6c-6.4 0-12-5.6-12-12v-4c0-2.4 1.6-4 4-4s4 1.6 4 4v4c0 2.4 1.6 4 4 4 2 0 4-2 4-4v-4c0-2.4 1.6-4 4-4s4 1.6 4 4v4c0 6.4-5.6 12-12 12z"/><path d="m258 23.6c-2.4 0-4-1.6-4-4v-7.2c0-2-2-4-4-4s-4 1.6-4 4v7.2c0 2.4-1.6 4-4 4s-4-1.6-4-4v-7.2c0-6.4 5.2-12 12-12s12 5.2 12 12v7.2c0 2.4-1.6 4-4 4z"/><path d="m443.2 157.2c-1.6 0-2.8-.8-3.6-2-19.6-36.8-49.2-66.8-86-86.4-2-1.2-2.8-3.6-1.6-5.6s3.6-2.8 5.6-1.6c38 20.4 69.2 51.6 89.6 90 1.2 2 .4 4.4-1.6 5.6-1.2-.4-2 0-2.4 0z"/><path d="m315.2 52.4c-.4 0-.8 0-1.2 0-20-6-40.8-8.8-61.6-8.8-2 0-4-1.6-4-4s1.6-4 4-4c21.6 0 43.2 2.8 64 9.2 2 .8 3.2 2.8 2.8 4.8-.8 1.6-2.4 2.8-4 2.8z"/></svg>