<svg clip-rule="evenodd" fill-rule="evenodd" stroke-linejoin="round" stroke-miterlimit="2" viewBox="0 0 64 64" xmlns="http://www.w3.org/2000/svg"><path d="m-.000738 0h64v64h-64z" fill="none"/><g fill-rule="nonzero" transform="matrix(3.375 0 0 3.375 5.002375 5.000875)"><path d="m3 3.7c.6-.3-2.6-.3-2 0v12.3h2z" fill="#b3b3b3"/><path d="m4 2c0-1.1-.9-2-2-2s-2 .9-2 2c0 .7.4 1.4 1 1.7h2c.6-.3 1-1 1-1.7z" fill="#c44d58"/><path d="m4 4s1-3 3.6-3c2.7 0 2.3 1 4.4 1 2.4 0 4-1 4-1v8s-.7 2-4 2c-2.2 0-2.3-1-5-1-2.3 0-3 2-3 2z" fill="#8fcceb"/></g></svg>