<svg clip-rule="evenodd" fill-rule="evenodd" stroke-linejoin="round" stroke-miterlimit="2" viewBox="0 0 65 65" xmlns="http://www.w3.org/2000/svg"><g fill-rule="nonzero" transform="matrix(2 0 0 2 .25 .25)"><path d="m14.79 8.188c0 1.526 1.256 2.782 2.782 2.782s2.782-1.256 2.782-2.782-1.256-2.782-2.782-2.782-2.782 1.256-2.782 2.782z" fill="#c44d58" stroke="#c44d58" stroke-width=".5"/><path d="m10 10-6 4v8h20v-10l-8 4z" fill="#88c200" stroke="#88c200" stroke-width=".5"/><path d="m30 6h-2v-4c0-1.104-.896-2-2-2h-24c-1.104 0-2 .896-2 2v22c0 1.104.896 2 2 2h2v4c0 1.104.896 2 2 2h24c1.104 0 2-.896 2-2v-22c0-1.104-.896-2-2-2zm-28.5 18.5v-23h25v23zm29 6h-25v-4.5h2.5v1.5h20v-20h2.5z" fill="#8fcceb" stroke="#8fcceb" stroke-width=".25"/></g></svg>