<svg clip-rule="evenodd" fill-rule="evenodd" stroke-linejoin="round" stroke-miterlimit="2" viewBox="0 0 64 64" xmlns="http://www.w3.org/2000/svg"><path d="m-.0004.0001h64v64h-64z" fill="none"/><g fill-rule="nonzero"><path d="m15 9-8-8-1.354 1.353 8 8z" fill="#167bba" transform="matrix(2.2466538432 0 0 2.2466538432 -2.2931413664 .27753020326)"/><path d="m16 4.414c.208-.633-.781-1.622-1.414-1.414-.701.23-2.793 2.793-2.793 2.793l1.414 1.414s2.563-2.092 2.793-2.793z" fill="#676e78" transform="matrix(2.2466538432 0 0 2.2466538432 -2.2931413664 .27753020326)"/><path d="m8.793 2.793 1.414 1.414s2.563-2.092 2.793-2.793c.208-.633-.781-1.622-1.414-1.414-.701.23-2.793 2.793-2.793 2.793z" fill="#676e78" transform="matrix(2.2466538432 0 0 2.2466538432 -2.2931413664 .27753020326)"/><path d="m12.407 10.528-6.935-6.935c-1.497 1.795-3.196 4.57-2.022 6.957l-2.066 2.066c-.486.486-.486 1.282 0 1.768l.232.232c.486.486 1.282.486 1.768 0l2.066-2.066c2.387 1.174 5.161-.524 6.957-2.022z" fill="#167bba" transform="matrix(2.2466538432 0 0 2.2466538432 -2.2931413664 .27753020326)"/><path d="m15 9-8-8-1.354 1.353 8 8z" fill="#669a00" transform="matrix(3.5021477088 0 0 3.5021477088 7.8674342224 11.31813317178)"/><path d="m16 4.414c.208-.633-.781-1.622-1.414-1.414-.701.23-2.793 2.793-2.793 2.793l1.414 1.414s2.563-2.092 2.793-2.793z" fill="#676e78" transform="matrix(3.5021477088 0 0 3.5021477088 7.8674342224 11.31813317178)"/><path d="m8.648 2.703 1.559 1.504s2.563-2.092 2.793-2.793c.208-.633-.775-1.603-1.414-1.414-.725.215-2.938 2.703-2.938 2.703z" fill="#676e78" transform="matrix(3.5021477088 0 0 3.5021477088 7.8674342224 11.31813317178)"/><path d="m12.407 10.528-6.935-6.935c-1.497 1.795-3.196 4.57-2.022 6.957l-2.066 2.066c-.486.486-.486 1.282 0 1.768l.232.232c.486.486 1.282.486 1.768 0l2.066-2.066c2.387 1.174 5.161-.524 6.957-2.022z" fill="#669a00" transform="matrix(3.5021477088 0 0 3.5021477088 7.8674342224 11.31813317178)"/></g></svg>