<svg clip-rule="evenodd" fill-rule="evenodd" stroke-linejoin="round" stroke-miterlimit="2" viewBox="0 0 65 64" xmlns="http://www.w3.org/2000/svg"><path d="m.06354-.0003h64v64h-64z" fill="none"/><path d="m472.162 100.313c0-2.354-1.912-4.266-4.266-4.266h-8.532c-2.355 0-4.266 1.912-4.266 4.266v8.612c0 2.355 1.911 4.266 4.266 4.266h8.532c2.354 0 4.266-1.911 4.266-4.266z" fill="#b3b3b3" transform="translate(-408.098 -49.191)"/><path d="m472.162 100.313c0-2.354-1.912-4.266-4.266-4.266h-8.532c-2.355 0-4.266 1.912-4.266 4.266v8.612c0 2.355 1.911 4.266 4.266 4.266h8.532c2.354 0 4.266-1.911 4.266-4.266z" fill="#88c200" transform="translate(-431.5657 -49.191)"/><path d="m472.162 100.313c0-2.354-1.912-4.266-4.266-4.266h-8.532c-2.355 0-4.266 1.912-4.266 4.266v8.612c0 2.355 1.911 4.266 4.266 4.266h8.532c2.354 0 4.266-1.911 4.266-4.266z" fill="#167bba" transform="translate(-455.0977 -49.191)"/><path d="m472.162 100.313c0-2.354-1.912-4.266-4.266-4.266h-8.532c-2.355 0-4.266 1.912-4.266 4.266v8.612c0 2.355 1.911 4.266 4.266 4.266h8.532c2.354 0 4.266-1.911 4.266-4.266z" fill="#ececec" transform="translate(-408.098 -72.6192)"/><path d="m472.162 100.313c0-2.354-1.912-4.266-4.266-4.266h-8.532c-2.355 0-4.266 1.912-4.266 4.266v8.612c0 2.355 1.911 4.266 4.266 4.266h8.532c2.354 0 4.266-1.911 4.266-4.266z" fill="#ae3742" transform="translate(-431.5657 -72.6192)"/><path d="m472.162 100.313c0-2.354-1.912-4.266-4.266-4.266h-8.532c-2.355 0-4.266 1.912-4.266 4.266v8.612c0 2.355 1.911 4.266 4.266 4.266h8.532c2.354 0 4.266-1.911 4.266-4.266z" fill="#659b00" transform="translate(-455.0977 -72.6192)"/><path d="m472.162 100.313c0-2.354-1.912-4.266-4.266-4.266h-8.532c-2.355 0-4.266 1.912-4.266 4.266v8.612c0 2.355 1.911 4.266 4.266 4.266h8.532c2.354 0 4.266-1.911 4.266-4.266z" fill="#8fcceb" transform="translate(-408.098 -96.0473)"/><path d="m472.162 100.313c0-2.354-1.912-4.266-4.266-4.266h-8.532c-2.355 0-4.266 1.912-4.266 4.266v8.612c0 2.355 1.911 4.266 4.266 4.266h8.532c2.354 0 4.266-1.911 4.266-4.266z" fill="#676e78" transform="translate(-431.5657 -96.0473)"/><path d="m472.162 100.313c0-2.354-1.912-4.266-4.266-4.266h-8.532c-2.355 0-4.266 1.912-4.266 4.266v8.612c0 2.355 1.911 4.266 4.266 4.266h8.532c2.354 0 4.266-1.911 4.266-4.266z" fill="#c44d58" transform="translate(-455.0977 -96.0473)"/></svg>