<svg clip-rule="evenodd" fill-rule="evenodd" stroke-linejoin="round" stroke-miterlimit="2" viewBox="0 0 64 64" xmlns="http://www.w3.org/2000/svg"><path d="m.00083-.0003h64v64h-64z" fill="none"/><g fill-opacity=".61"><path d="m0-104.49h67.44c10.03 0 18.16 8.19 18.16 18.29v67.91c0 10.1-8.13 18.29-18.16 18.29h-67.44c-10.03 0-18.16-8.19-18.16-18.29v-67.91c0-10.1 8.13-18.29 18.16-18.29" fill="#ececec" transform="matrix(.57825740638 0 0 .57825740638 12.501233166 62.211211214)"/><path d="m22.334-13.733s-12.14 12.667-12.231 24.844c1.63 12.534 6.918 9.981 12.231 36.197 5.786-2.28 17.495-17.628 15.131-39.175-3.075-15.357-15.131-21.866-15.131-21.866" fill="#aedc4b" transform="matrix(.35769701975 .4667491228 .4667491228 -.35769701975 7.86939770748 12.20747711158)"/><path d="m0 43.4s13.37-10.8 27.91-18.24c23-11.76 28.98-25.16 28.98-25.16s-6.65 12.53-29.65 24.3c-14.54 7.44-27.91 18.24-27.91 18.24z" fill="#9acf00" transform="matrix(.58804947921 0 0 .58804947921 6.54301940748 3.65152084378)"/><path d="m356.117 2.443v188.509c0 44.787-61.426 85.909-150.067 85.909-74.644 0-148.511-36.237-148.511-85.909s73.867-85.908 148.511-85.908c48.986 0 83.198 10.586 115.077 28.093v-18.321c-22.549-9.772-58.316-24.429-115.077-24.429-100.303 0-179.613 42.343-179.613 100.565 0 58.223 79.31 100.566 179.613 100.566 100.304 0 179.614-42.343 179.614-100.566v-188.509z" fill="#008ed2" fill-rule="nonzero" transform="matrix(.06668710401 0 0 .1273554434 23.70703480348 18.51743279138)"/></g><path d="m508.333 154.46-3.843-22.344c-.063-.375-.094-.75-.094-1.125 0-3.208 2.094-4.812 6.281-4.812 4.188 0 6.281 1.594 6.281 4.781 0 .438-.031.823-.093 1.156l-3.844 22.344zm2.344 4.594c3.667 0 5.5 1.833 5.5 5.5 0 3.666-1.833 5.5-5.5 5.5-3.666 0-5.5-1.834-5.5-5.5 0-3.667 1.834-5.5 5.5-5.5z" fill="#676e78" fill-rule="nonzero" stroke="#fff" transform="translate(-478.74017 -115.281)"/></svg>