<svg clip-rule="evenodd" fill-rule="evenodd" stroke-linejoin="round" stroke-miterlimit="2" viewBox="0 0 64 65" xmlns="http://www.w3.org/2000/svg"><path d="m-.000438.999h64v64h-64z" fill="none"/><g fill-rule="nonzero"><path d="m12.196 24.51s6.204-.172 6.204-2.172c0-2.4-1.021-9.213-6.4-9.338-5.609-.13-6.466 6.849-6.466 9.249 0 2 6.662 2.261 6.662 2.261z" fill="#167bba" transform="matrix(2.59147528004 0 0 2.59147528004 7.49880731288 1.48401710788)"/><path d="m12 4c2.21 0 4 1.79 4 4s-1.79 4-4 4-4-1.79-4-4 1.79-4 4-4z" fill="#8fcceb" transform="matrix(2.59147528004 0 0 2.59147528004 7.49880731288 1.48401710788)"/><path d="m12.196 24.51s6.204-.172 6.204-2.172c0-2.4-1.021-9.213-6.4-9.338-5.609-.13-6.466 6.849-6.466 9.249 0 2 6.662 2.261 6.662 2.261z" fill="#676e78" stroke="#fff" stroke-width=".79" transform="matrix(2.53653572776 0 0 2.53653572776 -5.21720726806 -9.14624985691)"/><path d="m12 4c2.21 0 4 1.79 4 4s-1.79 4-4 4-4-1.79-4-4 1.79-4 4-4z" fill="#8fcceb" stroke="#fff" stroke-width=".79" transform="matrix(2.53653572776 0 0 2.53653572776 -5.21720726806 -9.14624985691)"/></g></svg>