<svg clip-rule="evenodd" fill-rule="evenodd" stroke-linejoin="round" stroke-miterlimit="2" viewBox="0 0 64 65" xmlns="http://www.w3.org/2000/svg"><path d="m-.000438.007h64v64h-64z" fill="none"/><g fill-rule="nonzero"><path d="m12.196 24.51s6.204-.172 6.204-2.172c0-2.4-1.021-9.213-6.4-9.338-5.609-.13-6.466 6.849-6.466 9.249 0 2 6.662 2.261 6.662 2.261z" fill="#167bba" transform="matrix(3.12119 0 0 3.12119 -11.106758 -12.485)"/><path d="m12 4c2.21 0 4 1.79 4 4s-1.79 4-4 4-4-1.79-4-4 1.79-4 4-4z" fill="#8fcceb" transform="matrix(3.12119 0 0 3.12119 -11.106758 -12.485)"/><path d="m31.984 13.834c-.084-4.908-4.066-9.282-8.984-9.282-2.844 0-5.35 1.488-7 3.672-1.65-2.184-4.156-3.672-7-3.672-4.918 0-8.9 4.374-8.984 9.282h-.016c0 .03.006.058.006.088 0 .022-.006.044-.006.068 0 .138.034.242.04.374.44 12.508 15.834 17.636 15.834 17.636s15.62-5.122 16.082-17.616c.008-.14.044-.25.044-.394 0-.024-.006-.046-.006-.068 0-.032.006-.058.006-.088z" fill="#c44d58" stroke="#fff" stroke-width="3.2" transform="matrix(.78125 0 0 .78125 32.835242 21.565)"/></g></svg>