<svg clip-rule="evenodd" fill-rule="evenodd" stroke-linejoin="round" stroke-miterlimit="2" viewBox="0 0 24 24" xmlns="http://www.w3.org/2000/svg"><path d="m151.257 48.925h24.811v26.503h-24.811z" fill="none" transform="matrix(.96731789291 0 0 .90554551218 -146.31264309 -44.3034325084)"/><g fill-rule="nonzero" transform="matrix(.66666581857 0 0 .66666581857 -.00000263 .66666869857)"><path d="m32.12 10h-28.24c-1.031 0-1.88.849-1.88 1.88v18.24c0 1.031.849 1.88 1.88 1.88h28.24c1.031 0 1.88-.849 1.88-1.88v-18.24c0-1.031-.849-1.88-1.88-1.88zm-.12 20h-28v-18h28z" fill="#676e78"/><path d="m8.56 19.45c1.646 0 3-1.354 3-3s-1.354-3-3-3-3 1.354-3 3 1.354 3 3 3z" fill="#ff7a00"/><path d="m7.9 28 6-6 3.18 3.18-2.82 2.82h2l7.46-7.46 6.28 6.23v-2l-5.8-5.77c-.275-.273-.725-.273-1 0l-5.16 5.16-3.67-3.66c-.275-.273-.725-.273-1 0l-7.45 7.5z" fill="#008900"/><path d="m30.14 3c0-.549-.451-1-1-1h-22c-.549 0-1 .451-1 1v1h24z" fill="#167bba"/><path d="m32.12 7c0-.549-.451-1-1-1h-26c-.549 0-1 .451-1 1v1h28z" fill="#c44d58"/></g></svg>