<svg clip-rule="evenodd" fill-rule="evenodd" stroke-linecap="round" stroke-miterlimit="2" viewBox="0 0 64 64" xmlns="http://www.w3.org/2000/svg"><path d="m-.000438 0h64v64h-64z" fill="none"/><path d="m500.164 490.358h-26.133c-.902 0-1.633-1.732-1.633-2.634 0-.901.731-2.633 1.633-2.633h26.133c.902 0 1.634 1.732 1.634 2.633 0 .902-.732 2.634-1.634 2.634zm0-9.8h-26.133c-.902 0-1.633-1.732-1.633-2.634 0-.901.731-2.633 1.633-2.633h26.133c.902 0 1.634 1.732 1.634 2.633 0 .902-.732 2.634-1.634 2.634zm0-9.8h-26.133c-.902 0-1.633-1.732-1.633-2.634 0-.901.731-2.633 1.633-2.633h26.133c.902 0 1.634 1.732 1.634 2.633 0 .902-.732 2.634-1.634 2.634z" fill="#88c200" stroke="#88c200" stroke-width="2.19" transform="matrix(1.14286 0 0 1.14286 -524.68345238 -514.19946)"/><path d="m30 2h-26c-1.104 0-2 .896-2 2v26c0 1.104.896 2 2 2h26c1.104 0 2-.896 2-2v-26c0-1.104-.896-2-2-2zm-5 22.612h-16c-.552 0-1-1.06-1-1.612s.448-1.612 1-1.612h16c.552 0 1 1.06 1 1.612s-.448 1.612-1 1.612zm0-6h-16c-.552 0-1-1.06-1-1.612s.448-1.612 1-1.612h16c.552 0 1 1.06 1 1.612s-.448 1.612-1 1.612zm0-6h-16c-.552 0-1-1.06-1-1.612s.448-1.612 1-1.612h16c.552 0 1 1.06 1 1.612s-.448 1.612-1 1.612z" fill="#e0e0e0" fill-rule="nonzero" transform="matrix(1.8666675238 0 0 1.8666675238 .26757428 .26811188)"/></svg>