<svg clip-rule="evenodd" fill-rule="evenodd" stroke-linejoin="round" stroke-miterlimit="2" viewBox="0 0 32 22" xmlns="http://www.w3.org/2000/svg"><path d="m179.17 242.758h28.235v27.809h-28.235z" fill="none" transform="matrix(1.13335 0 0 .791101 -203.062 -192.0456)"/><path d="m22.808 8.548c-.392-.392-1.03-.392-1.422 0l-5.92 6.69c-.2.2-.296.462-.292.724-.002.262.092.526.292.726l5.918 6.69c.392.392 1.03.392 1.422 0s.392-1.03 0-1.422l-5.3-5.992 5.3-5.992c.394-.394.394-1.032.002-1.424z" fill="#b3b3b3" fill-rule="nonzero" stroke="#b5b5b5" stroke-width="1.68" transform="matrix(-1.19207 0 0 1.19207 39.8137 -8.029009)"/></svg>