<svg clip-rule="evenodd" fill-rule="evenodd" stroke-linejoin="round" stroke-miterlimit="2" viewBox="0 0 64 64" xmlns="http://www.w3.org/2000/svg"><path d="m-.000738-.001h64v64h-64z" fill="none"/><path d="m91.399 18.428c-1.691 3.409-2.641 7.251-2.641 11.314 0 14.084 11.416 25.5 25.5 25.5.182 0 .363-.001.544-.005v35.714c0 4.287-2.287 8.248-6 10.392l-45.105 26.041c-3.713 2.144-8.287 2.144-12 0l-45.105-26.041c-3.713-2.144-6-6.105-6-10.392v-52.083c0-4.288 2.287-8.249 6-10.393l45.105-26.041c3.713-2.144 8.287-2.144 12 0zm-58.52 23.814c-1.657 0-3 1.344-3 3v1.432c0 1.657 1.343 3 3 3h50.666c1.657 0 3-1.343 3-3v-1.432c0-1.656-1.343-3-3-3zm0 18.478c-1.657 0-3 1.343-3 3v1.432c0 1.657 1.343 3 3 3h36.732c1.657 0 3-1.343 3-3v-1.432c0-1.657-1.343-3-3-3zm0 18.478c-1.657 0-3 1.343-3 3v1.432c0 1.657 1.343 3 3 3h50.666c1.657 0 3-1.343 3-3v-1.432c0-1.657-1.343-3-3-3zm81.879-28.956c-11.598 0-21-9.402-21-21s9.402-21 21-21 21 9.402 21 21-9.402 21-21 21zm3.574-15.67h2.213v-3.325h-2.236v-10.611h-4.586l-6.571 10.488v3.448h7.598v3.373h3.582zm-3.559-9.731v6.406h-3.902l3.833-6.406z" fill="#fff" transform="matrix(.443899 0 0 .443899 1.737 3.187)"/></svg>