<svg clip-rule="evenodd" fill-rule="evenodd" stroke-linejoin="round" stroke-miterlimit="2" viewBox="0 0 24 24" xmlns="http://www.w3.org/2000/svg"><g fill-rule="nonzero" transform="matrix(.026999988 0 0 .026999988 1.1999998 1.1999998)"><path d="m400 66.667c-184.333 0-333.333 149-333.333 333.333s149 333.333 333.333 333.333 333.333-149 333.333-333.333-149-333.333-333.333-333.333zm166.667 453-47 47-119.667-119.667-119.667 119.667-47-47 119.667-119.667-119.667-119.667 47-47 119.667 119.667 119.667-119.667 47 47-119.667 119.667z" fill="#ae323b"/><path d="m566.667 519.667-47 47-119.667-119.667-119.667 119.667-47-47 119.667-119.667-119.667-119.667 47-47 119.667 119.667 119.667-119.667 47 47-119.667 119.667z" fill="#fff"/></g></svg>