<svg clip-rule="evenodd" fill-rule="evenodd" stroke-linecap="round" stroke-linejoin="round" stroke-miterlimit="1.5" viewBox="0 0 40 36" xmlns="http://www.w3.org/2000/svg"><path d="m73.863 103.108h38.686v40.544h-38.686z" fill="none" transform="matrix(.93057 0 0 .789262 -66.735 -78.7699)"/><path d="m12 22h8v10h6c1.104 0 2-.896 2-2v-9.802c0-.6-.268-1.166-.732-1.546l-10-8.198c-.368-.302-.818-.454-1.268-.454s-.9.152-1.268.454l-10 8.198c-.464.378-.732.946-.732 1.546v9.802c0 1.104.896 2 2 2h6z" fill="#818891" fill-rule="nonzero" transform="matrix(1.18748 0 0 1.18748 1 -2.7805)"/><path d="m534.863 37.59 18-14.482 18 14.707" fill="none" stroke="#ff84b6" stroke-width="4" transform="translate(-532.863 -21.108)"/></svg>