<svg viewBox="0 0 24 24" xmlns="http://www.w3.org/2000/svg"><path d="m0 0h24v24h-24z" opacity="0"/><g fill="none" stroke="#323232" stroke-linecap="round" stroke-linejoin="round" stroke-width="1.5"><path d="m9.143 17.248 4.404.527.665-4.447" transform="matrix(.83 0 0 .83 2.04 2.04)"/><path d="m.75 9.748v-7.5c0-.82842712.67157288-1.5 1.5-1.5h19.5c.82842712 0 1.5.67157288 1.5 1.5v7.5" transform="matrix(.83 0 0 .83 2.04 2.04)"/><path d="m.75 12.748h4.5" transform="matrix(.83 0 0 .83 2.04 2.04)"/><path d="m17.25 12.748h6" transform="matrix(.83 0 0 .83 2.04 2.04)"/><path d="m.75 17.248v-1.5" transform="matrix(.83 0 0 .83 2.04 2.04)"/><path d="m23.25 17.248v-1.5" transform="matrix(.83 0 0 .83 2.04 2.04)"/><path d="m5.25 23.248h1.5" transform="matrix(.83 0 0 .83 2.04 2.04)"/><path d="m11.25 23.248h1.5" transform="matrix(.83 0 0 .83 2.04 2.04)"/><path d="m17.25 23.248h1.5" transform="matrix(.83 0 0 .83 2.04 2.04)"/><path d="m2.25 23.248c-.82842712 0-1.5-.67157288-1.5-1.5" transform="matrix(.83 0 0 .83 2.04 2.04)"/><path d="m23.25 21.748c0 .82842712-.67157288 1.5-1.5 1.5" transform="matrix(.83 0 0 .83 2.04 2.04)"/><path d="m15 5.633c-2.69742095.95463571-4.50038896 3.50563512-4.5 6.367.03360367 2.30207444 1.16610454 4.44925446 3.047 5.777" transform="matrix(.83 0 0 .83 2.04 2.04)"/></g></svg>
