<svg clip-rule="evenodd" fill-rule="evenodd" stroke-linecap="round" stroke-linejoin="round" viewBox="0 0 24 24" xmlns="http://www.w3.org/2000/svg"><g fill="none"><path d="m0 0h24v24h-24z" transform="matrix(0 1 1 0 0 0)"/><g stroke="#323232" stroke-width="1.5" transform="matrix(0 .83 .83 0 2.04 2.04)"><path d="m9.143 17.248 4.404.527.665-4.447"/><path d="m.75 9.748v-7.5c0-.828.672-1.5 1.5-1.5h19.5c.828 0 1.5.672 1.5 1.5v7.5"/><path d="m.75 12.748h4.5"/><path d="m17.25 12.748h6"/><path d="m.75 17.248v-1.5"/><path d="m23.25 17.248v-1.5"/><path d="m5.25 23.248h1.5"/><path d="m11.25 23.248h1.5"/><path d="m17.25 23.248h1.5"/><path d="m2.25 23.248c-.828 0-1.5-.672-1.5-1.5"/><path d="m23.25 21.748c0 .828-.672 1.5-1.5 1.5"/><path d="m15 5.633c-2.697.955-4.5 3.506-4.5 6.367.034 2.302 1.166 4.449 3.047 5.777"/></g></g></svg>
