<svg viewBox="0 0 24 24" xmlns="http://www.w3.org/2000/svg"><path d="m0 0h24v24h-24z" opacity="0"/><path fill="#323232" d="m24 4c-11.027708 0-20 8.972292-20 20 0 4.307713 1.3686453 8.311776 3.6914062 11.578125.30247472.45694069.83003354.71259825 1.37610535.66686732.54607182-.04573092 1.02376035-.38557317 1.24602173-.88645802.22226138-.50088484.1537272-1.08310659-.17876728-1.5186903-1.9752398-2.777651-3.134766-6.165557-3.134766-9.839844 0-9.406292 7.593708-17 17-17 5.660824 0 10.660921 2.7581979 13.75 7h-3.25c-.54095387-.00765043-1.04412205.27656294-1.31683158.74380927-.27270954.46724633-.27270954 1.04513513 0 1.51238146.27270953.46724633.77587771.7514597 1.31683158.74380927h7c.82839281-.00008283 1.49991717-.67160719 1.5-1.5v-7c.00581864-.40561872-.152881-.79630301-.43991023-1.08296417-.28702924-.28666116-.67791685-.44485935-1.08352777-.43852023-.82766065.01293037-1.48843502.69380791-1.476562 1.5214844v3.511719c-3.651149-4.8625557-9.46415-8.011719-16-8.011719zm18.425781 18.501953c-.365156.018797-.723828.175-.986328.4375-.28.281-.439453.660547-.439453 1.060547 0 .399.159453.780547.439453 1.060547s.660547.439453 1.060547.439453c.2 0 .390313-.039375.570312-.109375.180001-.08.350235-.189078.490235-.330078.28-.29.439453-.661547.439453-1.060547 0-.4-.159453-.779547-.439453-1.060547-.07-.069-.140469-.129453-.230469-.189453-.08-.05-.169765-.100625-.259766-.140625-.089999-.029-.181249-.060078-.28125-.080078-.12-.02525-.241562-.03361-.363281-.027344zm-.957031 5.728516c-.581719.050625-1.103828.444297-1.298828 1.029297-.26.79.180937 1.638672.960937 1.888672.16.050999.30875.080078.46875.080078.63 0 1.219922-.409063 1.419922-1.039063.26-.79-.168984-1.630625-.958984-1.890625-.1975-.065-.397891-.085234-.591797-.068359zm-2.449219 5.146484c-.482031-.017441-.963281.193906-1.269531.613281-.48.67-.339922 1.60961.330078 2.09961.27.19.580859.291015.88086.291015.469999 0 .92875-.221093 1.21875-.621093.49-.67.339921-1.61061-.330079-2.09961-.25125-.180375-.540859-.272738-.830078-.283203zm-26.287109 3.837891c-.63741825.02234508-1.19101701.44529522-1.38013256 1.05442298-.18911554.60912777.027605 1.2712385.54028856 1.65065502 3.36 2.559177 7.564376 4.080078 12.107422 4.080078.54095387.00765043 1.04412205-.27656294 1.31683158-.74380927.27270954-.46724633.27270954-1.04513513 0-1.51238146-.27270953-.46724633-.77587771-.7514597-1.31683158-.74380927-3.874954 0-7.433016-1.289974-10.291016-3.466797-.27791761-.21772656-.62372116-.33045845-.976562-.318359zm22.08789.251953c-.289218.009844-.578828.103203-.830078.283203-.67.491-.810078 1.429609-.330078 2.099609.3.4.750703.621094 1.220703.621094.3 0 .608907-.101016.878907-.291015.67-.490001.810078-1.429844.330078-2.089844-.30625-.425-.7875-.639453-1.269532-.623047zm-4.96875 2.638672c-.193906-.017344-.394296.001953-.591796.064453-.79.26-1.220704 1.100625-.970704 1.890625.21.629.801641 1.039062 1.431641 1.039062.16 0 .30875-.019078.46875-.080078.78-.25 1.210938-1.098672.960938-1.888672-.195-.585-.71711-.973359-1.298829-1.02539z" transform="scale(.5)"/></svg>
