<svg viewBox="0 0 24 24" xmlns="http://www.w3.org/2000/svg"><path d="m0 0h24v24h-24z" opacity="0"/><path fill="#323232" d="m24 4c-6.53585 0-12.348852 3.1491633-16 8.011719v-3.511719c.00581863-.40561863-.15288093-.79630284-.43991006-1.08296399s-.6779166-.44485939-1.08352744-.43852041c-.82766084.0129301-1.48843552.69380772-1.4765625 1.5214844v7c.00008283.82839281.67160719 1.49991717 1.5 1.5h7c.54095387.00765043 1.04412205-.27656294 1.31683158-.74380927.27270954-.46724633.27270954-1.04513513 0-1.51238146-.27270953-.46724633-.77587771-.7514597-1.31683158-.74380927h-3.25c3.089079-4.2418021 8.089176-7 13.75-7 9.406292 0 17 7.593708 17 17 0 4.886937-2.051213 9.272788-5.34375 12.375-.40331109.36423439-.57810155.91810565-.45691526 1.4478607.12118628.52975505.51939734.952547 1.04095333 1.10520963.52155598.15266263 1.08489225.01132146 1.47260293-.36947633 3.869462-3.645788 6.287109-8.829531 6.287109-14.558594 0-11.027708-8.972292-20-20-20zm-18.578125 18.503906c-.3665625.018797-.7199219.173047-.9824219.435547-.07.07-.1294531.140469-.1894531.230469-.05.08-.100625.169766-.140625.259766-.03.089999-.0600781.18025-.0800781.28125-.02.09-.0292969.188062-.0292969.289062 0 .2.039375.390312.109375.570312.08.190001.1900781.350235.3300781.490235.14.141.3002344.250078.4902344.330078.18.07.3703125.109375.5703125.109375.4 0 .7805469-.160406 1.0605469-.441406.14-.139.2500781-.300235.3300781-.490235.07-.179.109375-.368359.109375-.568359 0-.391-.1594531-.780547-.4394531-1.060547-.07-.069-.1504688-.1275-.2304688-.1875-.08-.05-.1697656-.102578-.2597656-.142578-.09-.029-.18125-.058125-.28125-.078125-.1225-.02525-.245-.033609-.3671875-.027344zm1.109375 5.72461c-.1939062-.016094-.3942969.005312-.5917969.070312-.79.26-1.2189843 1.100625-.9589843 1.890625.2.63.7899218 1.039063 1.4199218 1.039063.16 0 .3089844-.029079.4589844-.080078.79-.25 1.2207031-1.098672.9707031-1.888672-.195-.5925-.7171093-.982969-1.2988281-1.03125zm2.4492188 5.148437c-.2892188.010494-.5788282.103203-.8300782.283203-.67.49-.8200781 1.42961-.3300781 2.09961.29.4.7489844.621093 1.2089844.621093.31 0 .620625-.101015.890625-.291015.6700001-.491.8100781-1.42961.3300781-2.09961-.30625-.419375-.7875-.630771-1.2695312-.613281zm4.1992192 4.089844c-.482032-.016406-.963282.198047-1.269532.623047-.48.66-.339922 1.599843.330078 2.089844.27.19.578907.291015.878907.291015.47 0 .930703-.221094 1.220703-.621094.49-.67.339922-1.609609-.330078-2.099609-.25125-.18-.54086-.273359-.830078-.283203zm18.029296 2.046875c-.18534697.00873613-.36746478.05178215-.537109.126953-2.048087.875259-4.298297 1.359375-6.671875 1.359375-.54095387-.00765043-1.04412205.27656294-1.31683158.74380927-.27270954.46724633-.27270954 1.04513513 0 1.51238146.27270953.46724633.77587771.7514597 1.31683158.74380927 2.782422 0 5.439649-.570822 7.851562-1.601562.67347219-.27861701 1.04924818-1.0009768.89078598-1.71237118-.15846221-.71139438-.80530822-1.2059664-1.53336398-1.17239482zm-13.05664.58789c-.580313.051235-1.107735.446563-1.302735 1.039063-.25.78.180704 1.628906.970703 1.878906.15.049.308985.080078.458985.080078.63 0 1.22164-.398062 1.431641-1.039062.25-.79-.180704-1.630625-.970704-1.890625-.195-.06475-.394453-.085438-.58789-.06836z" transform="scale(.5)"/></svg>
