<?xml version="1.0" encoding="utf-8"?>
<!DOCTYPE svg PUBLIC "-//W3C//DTD SVG 1.1//EN" "http://www.w3.org/Graphics/SVG/1.1/DTD/svg11.dtd">
<svg version="1.1" xmlns="http://www.w3.org/2000/svg" xmlns:xlink="http://www.w3.org/1999/xlink"
	viewBox="0 0 12 12" enable-background="new 0 0 12 12" xml:space="preserve">
<path id="search-icon" fill="#76C2F1" d="M8.011,7.98L6.824,6.793c-0.025-0.023-0.053-0.04-0.086-0.05
	C6.94,6.46,7.061,6.113,7.061,5.738C7.061,4.778,6.282,4,5.322,4c-0.96,0-1.739,0.778-1.739,1.739c0,0.96,0.778,1.738,1.739,1.738
	c0.375,0,0.721-0.12,1.005-0.321C6.336,7.188,6.353,7.217,6.376,7.24l1.188,1.188c0.095,0.094,0.271,0.071,0.396-0.053
	C8.082,8.252,8.105,8.075,8.011,7.98z M5.322,6.845c-0.61,0-1.106-0.495-1.106-1.106c0-0.61,0.496-1.106,1.106-1.106
	c0.611,0,1.107,0.496,1.107,1.106C6.428,6.35,5.933,6.845,5.322,6.845z"/>
</svg>
