<svg clip-rule="evenodd" fill-rule="evenodd" stroke-linejoin="round" stroke-miterlimit="2" viewBox="0 0 24 24" xmlns="http://www.w3.org/2000/svg"><path d="m0 3.384c.232 0 .452-.044.66-.132s.388-.208.54-.36.272-.332.36-.54.132-.428.132-.66-.044-.452-.132-.66-.208-.388-.36-.54-.332-.272-.54-.36-.428-.132-.66-.132-.452.044-.66.132-.388.208-.54.36-.272.332-.36.54-.132.428-.132.66.044.452.132.66.208.388.36.54.332.272.54.36.428.132.66.132m5.646-2.52c.052.056.078.124.078.204v1.248c0 .08-.026.148-.078.204s-.118.088-.198.096l-1.452.144c-.096.344-.236.676-.42.996l.924 1.128c.056.064.082.134.078.21s-.034.142-.09.198l-.888.888c-.056.056-.128.084-.216.084-.072 0-.136-.024-.192-.072l-1.128-.924c-.32.184-.652.324-.996.42l-.144 1.452c-.008.08-.04.146-.096.198s-.124.078-.204.078h-1.248c-.08 0-.148-.026-.204-.078s-.088-.118-.096-.198l-.144-1.452c-.344-.096-.676-.236-.996-.42l-1.128.924c-.064.048-.128.072-.192.072-.088 0-.16-.028-.216-.084l-.888-.888c-.056-.056-.086-.122-.09-.198s.022-.146.078-.21l.924-1.128c-.184-.32-.324-.652-.42-.996l-1.452-.144c-.08-.008-.146-.04-.198-.096s-.078-.124-.078-.204v-1.248c0-.08.026-.148.078-.204s.118-.088.198-.096l1.452-.144c.096-.344.236-.676.42-.996l-.924-1.128c-.056-.064-.082-.134-.078-.21s.034-.142.09-.198l.888-.888c.056-.056.128-.084.216-.084.064 0 .128.024.192.072l1.128.924c.32-.184.652-.324.996-.42l.144-1.452c.008-.08.04-.146.096-.198s.124-.078.204-.078h1.248c.08 0 .148.026.204.078s.088.118.096.198l.144 1.452c.344.096.676.236.996.42l1.128-.924c.056-.048.12-.072.192-.072.088 0 .16.028.216.084l.888.888c.056.056.086.122.09.198s-.022.146-.078.21l-.924 1.128c.184.32.324.652.42.996l1.452.144c.08.008.146.04.198.096" fill="#2373a8" fill-rule="nonzero" transform="matrix(1.57233 0 0 1.57233 12 9.33962)"/></svg>