<svg clip-rule="evenodd" fill-rule="evenodd" stroke-linejoin="round" stroke-miterlimit="2" viewBox="0 0 64 64" xmlns="http://www.w3.org/2000/svg"><path d="m-.000738 0h64v64h-64z" fill="none"/><g fill-rule="nonzero" transform="matrix(1.72095 0 0 1.72095 4.464 4.465)"><path d="m16.078 30.064c2.344 2.344 6.142 2.344 8.486 0l1.59-1.592c2.344-2.344 2.344-6.142 0-8.486l-7.072-7.068c-1.566-1.566-3.778-2.06-5.776-1.532l10.726 10.726c1.17 1.17 1.17 3.072 0 4.242l-1.592 1.592c-1.17 1.17-3.072 1.17-4.242 0l-10.724-10.728c-.528 1.998-.034 4.21 1.532 5.776z" fill="#c44d58"/><path d="m9.558 4.056c1.17-1.17 3.072-1.17 4.242 0l10.726 10.726c.528-1.998.034-4.21-1.532-5.776l-7.072-7.07c-2.344-2.344-6.142-2.344-8.486 0l-1.59 1.59c-2.344 2.344-2.344 6.142 0 8.486l7.072 7.072c1.566 1.566 3.778 2.06 5.776 1.532l-10.726-10.726c-1.17-1.17-1.17-3.072 0-4.242z" fill="#8fcceb"/></g></svg>