<svg fill="none" viewBox="0 0 32 32" xmlns="http://www.w3.org/2000/svg"><path d="m29.84 15.92c0 7.69-10.92 14.08-13.92 14.08s-13.92-6.39-13.92-14.08 6.23-13.92 13.92-13.92 13.92 6.23 13.92 13.92z" fill="#86d72f"/><path d="m13.3684 24.2248c.4281-.3489 1.058-.2846 1.4069.1436.3756.461.8242.6441 1.2247.6441.4006 0 .8491-.1831 1.2248-.6441.3489-.4282.9788-.4925 1.4069-.1436.4282.3489.4924.9788.1436 1.4069-.7244.8889-1.7258 1.3808-2.7753 1.3808-1.0494 0-2.0509-.4919-2.7752-1.3808-.3489-.4281-.2846-1.058.1436-1.4069z" fill="#212121"/><path d="m6.47445 19.5267c2.25392 2.2529 4.60045 3.549 6.84405 1.3065 2.254-2.2426 2.2334-5.9048-.0102-8.1474-2.2437-2.2426-5.89729-2.2529-8.14092 0s-.94685 4.588 1.30707 6.8409z" fill="#533566"/><path d="m25.5247 19.5267c-2.2547 2.2529-4.6021 3.549-6.8465 1.3065-2.2444-2.2426-2.2341-5.9048.0103-8.1474s5.8993-2.2529 8.1437 0 .9472 4.588-1.3075 6.8409z" fill="#533566"/><g fill="#fff"><path d="m12.62 15.62c.61-.61.47-1.73-.31-2.51-.78-.77-1.9-.92-2.50998-.31-.61.61-.47 1.73.30998 2.51.78.78 1.9.92 2.51.31z"/><path d="m25.9 15.62c.61-.61.47-1.73-.31-2.51-.77-.77-1.9-.92-2.51-.31s-.47 1.73.31 2.51 1.9.92 2.51.31z"/></g></svg>
