<svg fill="none" viewBox="0 0 32 32" xmlns="http://www.w3.org/2000/svg"><path d="m15.9989 29.9978c9.3344 0 13.9989-6.2675 13.9989-13.9989 0-7.73139-4.6645-13.9989-13.9989-13.9989-9.33447 0-13.9989 6.26751-13.9989 13.9989 0 7.7314 4.66443 13.9989 13.9989 13.9989z" fill="#ffb02e"/><path d="m10.5 21c2.4853 0 4.5-2.0147 4.5-4.5s-2.0147-4.5-4.5-4.5c-2.48528 0-4.5 2.0147-4.5 4.5s2.01472 4.5 4.5 4.5z" fill="#fff"/><path d="m21.5 21c2.4853 0 4.5-2.0147 4.5-4.5s-2.0147-4.5-4.5-4.5-4.5 2.0147-4.5 4.5 2.0147 4.5 4.5 4.5z" fill="#fff"/><g fill="#402a32"><path d="m14.2899 12.501c.4136.0221.731.3753.709.7889-.0221.4136-.3752.731-.7889.709-1.0171-.0542-1.9887-.3036-2.8168-.8803-.8352-.5816-1.46012-1.4515-1.85451-2.6308-.13138-.3928.08056-.81773.47341-.94911.3928-.13138.8178.08056.9491.47341.3103.9277.7623 1.5086 1.2892 1.8756.5342.372 1.2103.5691 2.0395.6133z"/><path d="m17.71 12.501c-.4136.0221-.731.3753-.709.7889.0221.4136.3753.731.7889.709 1.0171-.0542 1.9887-.3036 2.8168-.8803.8353-.5816 1.4601-1.4515 1.8545-2.6308.1314-.3928-.0805-.81773-.4734-.94911-.3928-.13138-.8177.08056-.9491.47341-.3103.9277-.7623 1.5086-1.2892 1.8756-.5342.372-1.2103.5691-2.0395.6133z"/><path d="m16 24c-2.0047 0-2.9341 1.1042-3.1056 1.4472-.247.494-.8477.6942-1.3417.4472-.4939-.247-.6942-.8477-.4472-1.3417.4952-.9903 2.0991-2.5527 4.8945-2.5527 2.7953 0 4.3992 1.5624 4.8944 2.5527.247.494.0468 1.0947-.4472 1.3417s-1.0947.0468-1.3417-.4472c-.1715-.343-1.1009-1.4472-3.1055-1.4472z"/><path d="m14 17c0 1.1045-.8954 2-2 2s-2-.8955-2-2c0-1.1046.8954-2 2-2s2 .8954 2 2z"/><path d="m22 17c0 1.1045-.8954 2-2 2s-2-.8955-2-2c0-1.1046.8954-2 2-2s2 .8954 2 2z"/></g></svg>
