<svg fill="none" viewBox="0 0 32 32" xmlns="http://www.w3.org/2000/svg"><path d="m15.9989 29.9978c9.3344 0 13.9989-6.2675 13.9989-13.9989 0-7.73139-4.6645-13.9989-13.9989-13.9989-9.33447 0-13.9989 6.26751-13.9989 13.9989 0 7.7314 4.66443 13.9989 13.9989 13.9989z" fill="#ffb02e"/><path d="m10.5 16c2.4853 0 4.5-2.0147 4.5-4.5 0-2.48528-2.0147-4.5-4.5-4.5-2.48528 0-4.5 2.01472-4.5 4.5 0 2.4853 2.01472 4.5 4.5 4.5z" fill="#fff"/><path d="m21.5 16c2.4853 0 4.5-2.0147 4.5-4.5 0-2.48528-2.0147-4.5-4.5-4.5s-4.5 2.01472-4.5 4.5c0 2.4853 2.0147 4.5 4.5 4.5z" fill="#fff"/><g fill="#402a32"><path d="m14 12c0 1.6569-1.3431 3-3 3-1.65685 0-3-1.3431-3-3s1.34315-3 3-3c1.6569 0 3 1.3431 3 3z"/><path d="m24 12c0 1.6569-1.3431 3-3 3s-3-1.3431-3-3 1.3431-3 3-3 3 1.3431 3 3z"/><path d="m12.4642 22.4961c1.5848-2.495 4.8872-3.2351 7.3798-1.652.4662.2961 1.0841.1582 1.3802-.308s.1583-1.0841-.3079-1.3802c-3.4275-2.1769-7.965-1.157-10.1403 2.268-.2961.4662-.1582 1.0841.308 1.3802s1.0841.1582 1.3802-.308z"/></g></svg>
