<svg fill="none" viewBox="0 0 32 32" xmlns="http://www.w3.org/2000/svg"><path d="m15.9989 29.9978c9.3344 0 13.9989-6.2675 13.9989-13.9989 0-7.73139-4.6645-13.9989-13.9989-13.9989-9.33447 0-13.9989 6.26751-13.9989 13.9989 0 7.7314 4.66443 13.9989 13.9989 13.9989z" fill="#ffb02e"/><path d="m11.8395 18.4566c-.2962-.4579-.9062-.5945-1.37-.3043-.4682.293-.61017.9101-.3172 1.3782l.0008.0012.0007.0011.0016.0026.0035.0055.0087.0134c.0065.0099.0143.0216.0237.0352.0186.027.043.0612.0735.1014.0611.0804.1469.1852.2601.3058.2265.2415.563.5465 1.0305.8456.9441.6041 2.3815 1.1577 4.4446 1.1577 2.0632 0 3.5005-.5536 4.4446-1.1577.4675-.2991.804-.6041 1.0306-.8456.1131-.1206.1989-.2254.26-.3058.0305-.0402.055-.0744.0736-.1014.0093-.0136.0172-.0253.0236-.0352l.0087-.0134.0036-.0055.0015-.0026.0008-.0011.0007-.0012c.2932-.468.151-1.0852-.3172-1.3782-.4638-.2902-1.0738-.1536-1.3699.3043-.0024.0033-.0083.0117-.018.0244-.022.029-.0633.0804-.126.1473-.1253.1336-.336.3285-.6499.5294-.6189.3959-1.6815.8423-3.3667.8423s-2.7478-.4464-3.3667-.8423c-.3139-.2009-.5245-.3958-.6499-.5294-.0627-.0669-.104-.1183-.126-.1473-.0097-.0127-.0156-.0211-.0179-.0244z" fill="#402a32"/><path d="m11 5h-6c-2.20914 0-4 1.79086-4 4v.67376c0 2.65144 1.49802 5.07524 3.8695 6.26104l.93584.4679c1.40195.7009 3.04379.794 4.51986.2669 2.786-.995 4.6748-3.6443 4.6748-6.6026v-1.067c0-2.20914-1.7909-4-4-4z" fill="#321b41"/><path d="m20.5 5h7c1.933 0 3.5 1.567 3.5 3.5v1.17376c0 2.65144-1.498 5.07524-3.8695 6.26104l-.9358.4679c-1.402.7009-3.0438.794-4.5199.2669-2.786-.995-4.6748-3.6443-4.6748-6.6026v-1.567c0-1.933 1.567-3.5 3.5-3.5z" fill="#321b41"/><path d="m14 6.35418c-.7329-.83043-1.8053-1.35418-3-1.35418h-6c-2.20914 0-4 1.79086-4 4v.67376c0 2.65144 1.49802 5.07524 3.8695 6.26104l.93584.4679c1.40195.7009 3.04378.794 4.51986.2669 2.786-.995 4.6748-3.6443 4.6748-6.6026v-.067c0-.55228.4477-1 1-1s1 .44772 1 1v.067c0 2.9583 1.8888 5.6076 4.6748 6.6026 1.4761.5271 3.1179.434 4.5199-.2669l.9358-.4679c2.3715-1.1858 3.8695-3.6096 3.8695-6.26104v-1.17376c0-1.933-1.567-3.5-3.5-3.5h-7c-1.1241 0-2.1244.52992-2.7648 1.35357v-.0028c-.0146.0146-.0312.03163-.0497.05055-.1919.19627-.5824.59558-.946.59868h-1.7438c-.3636-.0031-.7539-.40229-.9458-.59855-.0185-.01892-.0353-.03607-.0499-.05068zm-3-.35418c1.6569 0 3 1.34315 3 3v1.067c0 2.5305-1.6183 4.8062-4.0111 5.6608-1.22207.4365-2.58074.3582-3.73635-.2196l-.93583-.4679c-2.03271-1.0163-3.31672-3.0939-3.31672-5.36654v-.67376c0-1.65685 1.34315-3 3-3zm7 2.5c0-1.38071 1.1193-2.5 2.5-2.5h7c1.3807 0 2.5 1.11929 2.5 2.5v1.17376c0 2.27264-1.284 4.35024-3.3167 5.36654l-.9359.4679c-1.1556.5778-2.5142.6561-3.7363.2196-2.3928-.8546-4.0111-3.1303-4.0111-5.6608z" fill="#8d65c5"/><g fill="#fff"><path d="m12.3891 10.2678c.5858-.58581.4275-1.69385-.3535-2.4749-.7811-.78104-1.8891-.93934-2.47491-.35355-.58579.58579-.4275 1.69383.35355 2.47487.78106.78108 1.88906.93938 2.47486.35358z"/><path d="m28.3891 10.2678c.5858-.58581.4275-1.69385-.3535-2.4749-.7811-.78104-1.8891-.93934-2.4749-.35355s-.4275 1.69383.3535 2.47487c.7811.78108 1.8891.93938 2.4749.35358z"/></g></svg>
