<svg fill="none" viewBox="0 0 32 32" xmlns="http://www.w3.org/2000/svg"><path d="m15.9989 29.9978c9.3344 0 13.9989-6.2675 13.9989-13.9989 0-7.73139-4.6645-13.9989-13.9989-13.9989-9.33447 0-13.9989 6.26751-13.9989 13.9989 0 7.7314 4.66443 13.9989 13.9989 13.9989z" fill="#ffb02e"/><path d="m10.4191 19.2244c2.3229 0 4.206-1.883 4.206-4.2059s-1.8831-4.206-4.206-4.206c-2.32289 0-4.20597 1.8831-4.20597 4.206s1.88308 4.2059 4.20597 4.2059z" fill="#fff"/><path d="m21.5683 19.3011c2.344 0 4.2443-1.9002 4.2443-4.2443s-1.9003-4.2443-4.2443-4.2443c-2.3441 0-4.2443 1.9002-4.2443 4.2443s1.9002 4.2443 4.2443 4.2443z" fill="#fff"/><g fill="#402a32"><path d="m6.97423 10.6581c.14346-.4304.50202-1.10761 1.09492-1.67049.5844-.55481 1.38284-.98761 2.43075-.98761.2761 0 .5-.22386.5-.5s-.2239-.5-.5-.5c-1.3521 0-2.387.5672-3.11926 1.26239-.72377.68712-1.16522 1.50987-1.35509 2.07951-.08732.262.05426.5451.31623.6324.26197.0874.54513-.0542.63245-.3162z"/><path d="m13.707 23.7071c.2793-.2793 1.0071-.7071 2.2929-.7071 1.2275 0 2.0186.4329 2.2929.7071.3905.3905 1.0237.3905 1.4142 0s.3905-1.0237 0-1.4142c-.7258-.7258-2.068-1.2929-3.7071-1.2929-1.7143 0-2.9864.5722-3.7071 1.2929-.3905.3905-.3905 1.0237 0 1.4142s1.0237.3905 1.4142 0z"/><path d="m23.9306 8.98761c.5929.56288.9515 1.24009 1.0949 1.67049.0874.262.3705.4036.6325.3162.262-.0873.4036-.3704.3162-.6324-.1898-.56964-.6313-1.39239-1.3551-2.07951-.7322-.69519-1.7671-1.26239-3.1192-1.26239-.2762 0-.5.22386-.5.5s.2238.5.5.5c1.0479 0 1.8463.4328 2.4307.98761z"/><path d="m13.9999 15c0 1.6569-1.3432 3-3 3-1.65686 0-3.00001-1.3431-3.00001-3s1.34315-3 3.00001-3c1.6568 0 3 1.3431 3 3z"/><path d="m23.9999 15c0 1.6569-1.3432 3-3 3-1.6569 0-3-1.3431-3-3s1.3431-3 3-3c1.6568 0 3 1.3431 3 3z"/></g><path d="m6 21c0-1.1046.89543-2 2-2s2 .8954 2 2v3c0 1.1046-.89543 2-2 2s-2-.8954-2-2z" fill="#3f5fff"/></svg>
