<svg fill="none" viewBox="0 0 32 32" xmlns="http://www.w3.org/2000/svg"><path d="m15.9989 29.9978c9.3344 0 13.9989-6.2675 13.9989-13.9989 0-7.73139-4.6645-13.9989-13.9989-13.9989-9.33447 0-13.9989 6.26751-13.9989 13.9989 0 7.7314 4.66443 13.9989 13.9989 13.9989z" fill="#ffb02e"/><path d="m10.5 19c2.4853 0 4.5-2.0147 4.5-4.5s-2.0147-4.5-4.5-4.5c-2.48528 0-4.5 2.0147-4.5 4.5s2.01472 4.5 4.5 4.5z" fill="#fff"/><path d="m21.5 19c2.4853 0 4.5-2.0147 4.5-4.5s-2.0147-4.5-4.5-4.5-4.5 2.0147-4.5 4.5 2.0147 4.5 4.5 4.5z" fill="#fff"/><g fill="#402a32"><path d="m12 17c1.1046 0 2-.8954 2-2s-.8954-2-2-2-2 .8954-2 2 .8954 2 2 2z"/><path d="m20 17c1.1046 0 2-.8954 2-2s-.8954-2-2-2-2 .8954-2 2 .8954 2 2 2z"/><path d="m6.97423 9.65811c.14346-.43037.50202-1.10762 1.09492-1.6705.5844-.55481 1.38284-.98761 2.43075-.98761.2761 0 .5-.22386.5-.5s-.2239-.5-.5-.5c-1.3521 0-2.387.5672-3.11926 1.26239-.72377.68712-1.16522 1.50987-1.35509 2.0795-.08732.26197.05426.54513.31623.63245.26197.08736.54513-.05425.63245-.31623z"/><path d="m25.0255 9.65811c-.1434-.43037-.502-1.10762-1.0949-1.6705-.5844-.55481-1.3828-.98761-2.4307-.98761-.2762 0-.5-.22386-.5-.5s.2238-.5.5-.5c1.3521 0 2.387.5672 3.1192 1.26239.7238.68712 1.1653 1.50987 1.3551 2.0795.0874.26197-.0542.54513-.3162.63245-.262.08736-.5451-.05425-.6325-.31623z"/></g><path d="m21.8148 25.5152c.2044.8028-.4864 1.4848-1.3149 1.4848-2.9595 0-5.7404 0-8.9994 0-.8284 0-1.51976-.682-1.3154-1.4848.6608-2.5956 3.0137-4.5152 5.8149-4.5152s5.1541 1.9196 5.8148 4.5152z" fill="#bb1d80"/></svg>
