<svg fill="none" viewBox="0 0 32 32" xmlns="http://www.w3.org/2000/svg"><path d="m15.9989 29.9978c9.3344 0 13.9989-6.2675 13.9989-13.9989 0-7.73139-4.6645-13.9989-13.9989-13.9989-9.33447 0-13.9989 6.26751-13.9989 13.9989 0 7.7314 4.66443 13.9989 13.9989 13.9989z" fill="#ffb02e"/><path d="m14.9989 14.4981c0 2.4856-2.0149 4.5006-4.5005 4.5006-2.48563 0-4.5006-2.015-4.5006-4.5006s2.01497-4.50054 4.5006-4.50054c2.4856 0 4.5005 2.01494 4.5005 4.50054z" fill="#fff"/><path d="m16.9978 14.4981c0 2.4856 2.015 4.5006 4.5005 4.5006 2.4856 0 4.5006-2.015 4.5006-4.5006s-2.015-4.50054-4.5006-4.50054c-2.4855 0-4.5005 2.01494-4.5005 4.50054z" fill="#fff"/><path d="m14 15c0 1.1046-.8954 2-2 2s-2-.8954-2-2 .8954-2 2-2 2 .8954 2 2z" fill="#402a32"/><path d="m18 15c0 1.1046.8954 2 2 2s2-.8954 2-2-.8954-2-2-2-2 .8954-2 2z" fill="#402a32"/><path d="m17.1321 17.459c-.4707-.5436-1.3069-.6145-1.8678-.1584l-3.5037 2.8493.2954-1.025c.205-.7112-.2238-1.4487-.9576-1.6473-.7378-.1997-1.50216.2213-1.70258.9379l-.81167 2.9018-.98597 2.2988c-.01813.0423-.03415.0852-.04805.1285-.35122.6568-.55013 1.4058-.55013 2.2008 0 2.6004 2.12803 4.7085 4.7531 4.7085 1.1548 0 2.2134-.408 3.037-1.0864l5.2845-3.7674c.6198-.4418.7441-1.2909.2758-1.8824-.204-.2576-.486-.4229-.7893-.4886l.5022-.4083c.587-.4774.6635-1.3255.171-1.8944-.2093-.2417-.4876-.3941-.7836-.4528l.1543-.1255c.587-.4773.6635-1.3254.171-1.8943-.4926-.5689-1.3677-.6431-1.9547-.1657l-.5722.4653c.2878-.4579.2583-1.061-.117-1.4944z" fill="#ff822d"/><g fill="#402a32"><path d="m10.7753 6.99958c.4139-.01395.7382-.36086.7243-.77484-.014-.41398-.3609-.73826-.7749-.72431-3.05112.10285-4.7247 2.6628-4.7247 4.74957 0 .4142.33579.75.75.75s.75-.3358.75-.75c0-1.41321 1.16105-3.17915 3.2753-3.25042z"/><path d="m21.7247 6.99958c-.4139-.01395-.7382-.36086-.7243-.77484.014-.41398.3609-.73826.7749-.72431 3.0511.10285 4.7247 2.6628 4.7247 4.74957 0 .4142-.3358.75-.75.75s-.75-.3358-.75-.75c0-1.41321-1.1611-3.17915-3.2753-3.25042z"/></g></svg>
