<svg fill="none" viewBox="0 0 32 32" xmlns="http://www.w3.org/2000/svg"><path d="m15.9989 29.9978c9.3344 0 13.9989-6.2675 13.9989-13.9989 0-2.386-.4443-4.6325-1.3329-6.59843.9855-3.35087-.5166-6.1738-.5166-6.1738s-.32-.51-.6 0c-.5109.90639-1.2671 1.55483-1.9497 1.99561-2.2987-2.01238-5.4985-3.22228-9.5997-3.22228-4.0992 0-7.29772 1.20866-9.59615 3.21918-.68138-.44072-1.43522-1.08824-1.94497-1.99251-.28-.51-.6 0-.6 0s-1.49876 2.81666-.51987 6.16263c-.892 1.9686-1.33791 4.2191-1.33791 6.6096 0 7.7314 4.66443 13.9989 13.9989 13.9989z" fill="#8c42b3"/><path d="m10.5 22c2.4853 0 4.5-2.0147 4.5-4.5s-2.0147-4.5-4.5-4.5c-2.48528 0-4.5 2.0147-4.5 4.5s2.01472 4.5 4.5 4.5z" fill="#fff"/><path d="m21.5 22c2.4853 0 4.5-2.0147 4.5-4.5s-2.0147-4.5-4.5-4.5-4.5 2.0147-4.5 4.5 2.0147 4.5 4.5 4.5z" fill="#fff"/><g fill="#402a32"><path d="m14.2899 13.501c.4136.0221.731.3753.709.7889-.0221.4136-.3752.731-.7889.709-1.0171-.0542-1.9887-.3036-2.8168-.8803-.8352-.5816-1.46012-1.4515-1.85451-2.6308-.13138-.3928.08056-.8177.47341-.9491.3928-.1314.8178.0805.9491.4734.3103.9277.7623 1.5086 1.2892 1.8756.5342.372 1.2103.5691 2.0395.6133z"/><path d="m17.71 13.501c-.4136.0221-.731.3753-.709.7889.0221.4136.3753.731.7889.709 1.0171-.0542 1.9887-.3036 2.8168-.8803.8353-.5816 1.4601-1.4515 1.8545-2.6308.1314-.3928-.0805-.8177-.4734-.9491-.3928-.1314-.8177.0805-.9491.4734-.3103.9277-.7623 1.5086-1.2892 1.8756-.5342.372-1.2103.5691-2.0395.6133z"/><path d="m12 19.9999c1.1046 0 2-.8954 2-2 0-1.1045-.8954-2-2-2s-2 .8955-2 2c0 1.1046.8954 2 2 2z"/><path d="m20 19.9999c1.1046 0 2-.8954 2-2 0-1.1045-.8954-2-2-2s-2 .8955-2 2c0 1.1046.8954 2 2 2z"/><path d="m12.8944 25.4472c.1715-.3431 1.101-1.4473 3.1056-1.4473s2.9341 1.1042 3.1056 1.4473c.247.4939.8476.6942 1.3416.4472s.6942-.8477.4472-1.3417c-.4951-.9903-2.099-2.5528-4.8944-2.5528s-4.3993 1.5625-4.8944 2.5528c-.247.494-.0468 1.0947.4472 1.3417s1.0946.0467 1.3416-.4472z"/></g></svg>
