<svg fill="none" viewBox="0 0 32 32" xmlns="http://www.w3.org/2000/svg"><path d="m17.6512 22.27h-3.89c-.79 0-1.44.64-1.43 1.43v3.89c0 .79.64 1.43 1.43 1.43h.2481c.3325.5909.9656.99 1.6919.99s1.3593-.3991 1.6918-.99h.2582c.79 0 1.43-.64 1.43-1.43v-3.89c0-.79-.64-1.43-1.43-1.43z" fill="#9b9b9b"/><path d="m18.1611 23.13c.24 0 .43-.18.45-.41.07-.86.44-2.95 2.46-5.19 1.89-1.49 3.14-3.75 3.29-6.31.02-.24.03-.4.03-.5v-.01-.01c0-.05 0-.08 0-.08-.06-4.78-3.93-8.62-8.7-8.62s-8.63999 3.84-8.68999 8.6c0 0-.01.24.03.64.16 2.54 1.4 4.79 3.28999 6.28 2.02 2.25 2.42 4.34 2.49 5.2.02.23.21.41.45.41z" fill="#fcd53f"/><path d="m15.7011 10.7c1.62 0 2.94 1.31 2.96 2.93v.08c0 .03 0 .07-.01.13-.05.84-.46 1.63-1.12 2.15l-.07.05-.06.06c-1.1 1.22-1.33 4.32-1.37 6.02h-.65c-.05-1.7-.29-4.8-1.39-6.02l-.06-.06-.07-.05c-.66-.52-1.07-1.3-1.12-2.17 0-.04-.01-.07-.01-.09v-.09c.03-1.62 1.36-2.94 2.97-2.94zm0-1.00005c-2.17 0-3.94 1.75005-3.96 3.92005 0 0 0 .11.01.29.07 1.16.64 2.18 1.5 2.86 1.2 1.34 1.14 6.36 1.14 6.36h2.64s-.08-5.02 1.13-6.35c.86-.68 1.43-1.71 1.5-2.88.01-.11.01-.18.01-.23 0-.02 0-.04 0-.04-.03-2.18-1.79-3.93005-3.97-3.93005z" fill="#ffb02e"/><path d="m19.1674 25.0525c.272-.0476.4539-.3067.4063-.5787-.0477-.272-.3068-.4539-.5788-.4063l-6.74 1.18c-.272.0476-.4539.3067-.4063.5787.0477.2721.3068.4539.5788.4063zm-.0496 2.15c.2719-.0479.4536-.3071.4058-.5791-.0479-.272-.3071-.4536-.5791-.4058l-6.65 1.17c-.272.0479-.4537.3071-.4058.5791.0478.2719.3071.4536.5791.4058z" fill="#d3d3d3"/><path d="m13.7912 5.43997c-1.11 1.92-.55 4.32 1.25 5.35003 1.8 1.03 4.15.32 5.26-1.60003 1.11-1.92.55-4.32-1.25-5.35s-4.15-.32-5.26 1.6z" fill="#fff478"/></svg>
