<svg fill="none" viewBox="0 0 32 32" xmlns="http://www.w3.org/2000/svg"><path d="m15.9989 29.9978c9.3344 0 13.9989-6.2675 13.9989-13.9989 0-7.73139-4.6645-13.9989-13.9989-13.9989-9.33447 0-13.9989 6.26751-13.9989 13.9989 0 7.7314 4.66443 13.9989 13.9989 13.9989z" fill="#ffb02e"/><path d="m15 10.5c0 1.4239-.6613 2.6933-1.6936 3.5179-.8031-.2694-1.8296-.5179-2.8064-.5179s-2.00329.2485-2.80643.5179c-1.03225-.8246-1.69357-2.094-1.69357-3.5179 0-2.48528 2.01472-4.5 4.5-4.5 2.4853 0 4.5 2.01472 4.5 4.5z" fill="#fff"/><path d="m26 10.5c0 1.4239-.6613 2.6933-1.6936 3.5179-.8031-.2694-1.8296-.5179-2.8064-.5179s-2.0033.2485-2.8064.5179c-1.0323-.8246-1.6936-2.094-1.6936-3.5179 0-2.48528 2.0147-4.5 4.5-4.5s4.5 2.01472 4.5 4.5z" fill="#fff"/><path d="m11 13c1.6569 0 3-1.3431 3-3 0-1.65685-1.3431-3-3-3-1.65685 0-3 1.34315-3 3 0 1.6569 1.34315 3 3 3z" fill="#402a32"/><path d="m21 13c1.6569 0 3-1.3431 3-3 0-1.65685-1.3431-3-3-3s-3 1.34315-3 3c0 1.6569 1.3431 3 3 3z" fill="#402a32"/><path d="m16 25c-9 0-9-9-9-9h18s0 9-9 9z" fill="#bb1d80"/><path d="m8 16.5v-.5h16v.5c0 .5523-.4477 1-1 1h-14c-.55228 0-1-.4477-1-1z" fill="#fff"/></svg>
