<svg fill="none" viewBox="0 0 32 32" xmlns="http://www.w3.org/2000/svg"><path d="m15.9989 29.9978c9.3344 0 13.9989-6.2675 13.9989-13.9989 0-7.73139-4.6645-13.9989-13.9989-13.9989-9.33447 0-13.9989 6.26751-13.9989 13.9989 0 7.7314 4.66443 13.9989 13.9989 13.9989z" fill="#ffb02e"/><path d="m8.98156 11.1909c.04808-.2473.15815-.5504.3674-.7784.17933-.1954.49802-.4125 1.15094-.4125.6418 0 .9686.2216 1.1573.4288.2181.2395.3232.5449.3575.7423.0945.5441.6122.9086 1.1563.8142.5442-.0945.9087-.6123.8142-1.1564-.079-.4549-.3053-1.1495-.8495-1.74694-.5737-.62978-1.4402-1.08196-2.6358-1.08196-1.18426 0-2.04721.4313-2.62439 1.06013-.54725.59624-.76855 1.29317-.85718 1.74897-.10542.5422.24861 1.0671.79074 1.1725s1.06707-.2486 1.17249-.7907z" fill="#402a32"/><path d="m19.9818 11.1909c.0481-.2473.1582-.5504.3674-.7784.1793-.1954.498-.4125 1.151-.4125.6417 0 .9685.2216 1.1572.4288.2182.2395.3233.5449.3575.7423.0945.5441.6122.9086 1.1564.8142.5441-.0945.9086-.6123.8141-1.1564-.079-.4549-.3052-1.1495-.8495-1.74694-.5736-.62978-1.4402-1.08196-2.6357-1.08196-1.1843 0-2.0473.4313-2.6244 1.06013-.5473.59624-.7686 1.29317-.8572 1.74897-.1054.5422.2486 1.0671.7907 1.1725s1.0671-.2486 1.1725-.7907z" fill="#402a32"/><path d="m6 16h20s0 3.7739-2.3183 6.6849h-15.36335c-2.31835-2.911-2.31835-6.6849-2.31835-6.6849z" fill="#bb1d80"/><g fill="#fff"><path d="m7.75883 19.7942-.75883-3.7942h18l-.7588 3.7942c-.1403.7011-.7559 1.2058-1.4709 1.2058h-13.54059c-.71503 0-1.33065-.5047-1.47088-1.2058z"/><path d="m8.28516 22.6429c1.45259 1.8467 3.82854 3.3571 7.71494 3.3571 3.886 0 6.2619-1.5101 7.7145-3.3567-.1423-.371-.5012-.6433-.9346-.6433h-13.56037c-.43321 0-.79208.2721-.93447.6429z"/></g></svg>
