<svg fill="none" viewBox="0 0 32 32" xmlns="http://www.w3.org/2000/svg"><path d="m15.9989 29.9978c9.3344 0 13.9989-6.2675 13.9989-13.9989 0-7.73139-4.6645-13.9989-13.9989-13.9989-9.33447 0-13.9989 6.26751-13.9989 13.9989 0 7.7314 4.66443 13.9989 13.9989 13.9989z" fill="#ffb02e"/><g fill="#402a32"><path d="m8 13c0-.5523.44772-1 1-1h4c.5523 0 1 .4477 1 1s-.4477 1-1 1h-4c-.55228 0-1-.4477-1-1z"/><path d="m18 13c0-.5523.4477-1 1-1h4c.5523 0 1 .4477 1 1s-.4477 1-1 1h-4c-.5523 0-1-.4477-1-1z"/><path d="m11 19c-.5523 0-1 .4477-1 1s.4477 1 1 1h10c.5523 0 1-.4477 1-1s-.4477-1-1-1z"/></g></svg>
