<svg fill="none" viewBox="0 0 32 32" xmlns="http://www.w3.org/2000/svg"><g fill="#f8312f"><path d="m13.0372 20.8626c0 1.3022 1.1451 2.3595 2.5552 2.3595s2.5551-1.0573 2.5551-2.3693v-1.7022c0-.1111.0737-.2085.1796-.242 3.3495-1.0578 5.6729-3.9898 5.6729-7.347v-1.2532c0-4.2393-3.6896-7.77369-8.2274-7.8618-2.2795-.04896-4.4317.74408-6.06447 2.21266-1.62215 1.46858-2.52335 3.44627-2.52335 5.55124 0 1.3119 1.15565 2.3693 2.56576 2.3693 1.41006 0 2.55516-1.0574 2.55516-2.3595 0-.82242.3499-1.59587.986-2.17351s1.4737-.89094 2.3749-.87136c1.7812.03916 3.2231 1.449 3.2231 3.14277v1.2434c0 1.4686-1.1238 2.7316-2.6824 2.9959-1.8342.3133-3.1701 1.7917-3.1701 3.5148z"/><path d="m15.5 30c1.3807 0 2.5-1.1193 2.5-2.5s-1.1193-2.5-2.5-2.5-2.5 1.1193-2.5 2.5 1.1193 2.5 2.5 2.5z"/></g></svg>
