<svg fill="none" viewBox="0 0 32 32" xmlns="http://www.w3.org/2000/svg"><path d="m15.9989 29.9978c9.3344 0 13.9989-6.2675 13.9989-13.9989 0-7.73139-4.6645-13.9989-13.9989-13.9989-9.33447 0-13.9989 6.26751-13.9989 13.9989 0 7.7314 4.66443 13.9989 13.9989 13.9989z" fill="#ffb02e"/><path d="m8.98156 11.1909c.04808-.2473.15815-.5504.3674-.7784.17933-.1954.49802-.4125 1.15094-.4125.6418 0 .9686.2216 1.1573.4288.2181.2395.3232.5449.3575.7423.0945.5441.6122.9086 1.1563.8142.5442-.0945.9087-.6123.8142-1.1564-.079-.4549-.3053-1.1495-.8495-1.74694-.5737-.62978-1.4402-1.08196-2.6358-1.08196-1.18426 0-2.04721.4313-2.62439 1.06013-.54725.59624-.76855 1.29317-.85718 1.74897-.10542.5422.24861 1.0671.79074 1.1725s1.06707-.2486 1.17249-.7907z" fill="#402a32"/><path d="m19.9818 11.1909c.0481-.2473.1582-.5504.3674-.7784.1793-.1954.498-.4125 1.151-.4125.6417 0 .9685.2216 1.1572.4288.2182.2395.3233.5449.3575.7423.0945.5441.6122.9086 1.1564.8142.5441-.0945.9086-.6123.8141-1.1564-.079-.4549-.3052-1.1495-.8495-1.74694-.5736-.62978-1.4402-1.08196-2.6357-1.08196-1.1843 0-2.0473.4313-2.6244 1.06013-.5473.59624-.7686 1.29317-.8572 1.74897-.1054.5422.2486 1.0671.7907 1.1725s1.0671-.2486 1.1725-.7907z" fill="#402a32"/><path d="m16 25c-9 0-9-9-9-9h18s0 9-9 9z" fill="#bb1d80"/><path d="m8 16.5v-.5h16v.5c0 .5523-.4477 1-1 1h-14c-.55228 0-1-.4477-1-1z" fill="#fff"/><g fill="#3f5fff"><path d="m4.63012 20.3698 3.3698-3.3698c.82843-.8284.82843-2.1716 0-3s-2.17157-.8284-3 0l-3.3698 3.3698c-.780134.7801-.83204 2.028-.11939 2.8702.80165.9474 2.24183 1.0073 3.11939.1298z"/><path d="m27.6198 20.3698-3.3698-3.3698c-.8284-.8284-.8284-2.1716 0-3s2.1716-.8284 3 0l3.3698 3.3698c.7801.7801.832 2.028.1194 2.8702-.8017.9474-2.2419 1.0073-3.1194.1298z"/></g></svg>
