<svg fill="none" viewBox="0 0 32 32" xmlns="http://www.w3.org/2000/svg"><path d="m29.9978 15.9989c0 7.7314-4.6645 13.9989-13.9989 13.9989-9.33447 0-13.9989-6.2675-13.9989-13.9989 0-.6787.03594-1.346.10783-1.9989l13.89107-3.7002 13.891 3.7002c.0719.6529.1079 1.3202.1079 1.9989z" fill="#ffb02e"/><path d="m29.89 14c-.747-6.78451-5.376-12-13.891-12-8.51511 0-13.14405 5.21549-13.89109 12z" fill="#f8312f"/><path d="m27.5 4c-1.3807 0-2.5 1.11929-2.5 2.5v2c0 1.38071 1.1193 2.5 2.5 2.5s2.5-1.11929 2.5-2.5v-2c0-1.38071-1.1193-2.5-2.5-2.5z" fill="#3f5fff"/><path d="m5.5 20c-1.38071 0-2.5 1.1193-2.5 2.5v2c0 1.3807 1.11929 2.5 2.5 2.5s2.5-1.1193 2.5-2.5v-2c0-1.3807-1.11929-2.5-2.5-2.5z" fill="#3f5fff"/><path d="m13.2151 11.9111c-.8107.6575-2.1722 1.0889-3.7151 1.0889-.89995 0-1.7382-.1467-2.44142-.3995-.66052.7831-1.05858 1.7948-1.05858 2.8995 0 2.4853 2.01472 4.5 4.5 4.5 2.4853 0 4.5-2.0147 4.5-4.5 0-1.4654-.7005-2.7672-1.7849-3.5889z" fill="#fff"/><path d="m24.9414 12.6005c-.7032.2528-1.5415.3995-2.4414.3995-1.5429 0-2.9044-.4314-3.7151-1.0889-1.0844.8217-1.7849 2.1235-1.7849 3.5889 0 2.4853 2.0147 4.5 4.5 4.5s4.5-2.0147 4.5-4.5c0-1.1047-.3981-2.1164-1.0586-2.8995z" fill="#fff"/><g fill="#402a32"><path d="m13 8.5c0-.27614-.2239-.5-.5-.5s-.5.22386-.5.5c0 .86432-.3191 1.47582-.7697 1.8763-.4597.4086-1.0868.6237-1.7303.6237-.27614 0-.5.2239-.5.5s.22386.5.5.5c.8565 0 1.7294-.2849 2.3947-.8763.6744-.5995 1.1053-1.48802 1.1053-2.6237z"/><path d="m19 8.5c0-.27614.2239-.5.5-.5s.5.22386.5.5c0 .86432.3191 1.47582.7697 1.8763.4597.4086 1.0868.6237 1.7303.6237.2761 0 .5.2239.5.5s-.2239.5-.5.5c-.8565 0-1.7294-.2849-2.3947-.8763-.6744-.5995-1.1053-1.48802-1.1053-2.6237z"/><path d="m12 18c1.1046 0 2-.8954 2-2s-.8954-2-2-2-2 .8954-2 2 .8954 2 2 2z"/><path d="m20 18c1.1046 0 2-.8954 2-2s-.8954-2-2-2-2 .8954-2 2 .8954 2 2 2z"/><path d="m15 21c-1.6569 0-3 1.3431-3 3s1.3431 3 3 3h2c1.6569 0 3-1.3431 3-3s-1.3431-3-3-3z"/></g><path d="m12.4785 25.3922c-.2475-1.2376.6991-2.3922 1.9611-2.3922h3.1208c1.2621 0 2.2087 1.1546 1.9612 2.3922l-.0392.1961c-.2805 1.4023-1.5117 2.4117-2.9418 2.4117h-1.0812c-1.43 0-2.6612-1.0094-2.9417-2.4117z" fill="#f70a8d"/></svg>
