<svg fill="none" viewBox="0 0 32 32" xmlns="http://www.w3.org/2000/svg"><path d="m15.9989 29.9978c9.3344 0 13.9989-6.2675 13.9989-13.9989 0-7.73139-4.6645-13.9989-13.9989-13.9989-9.33447 0-13.9989 6.26751-13.9989 13.9989 0 7.7314 4.66443 13.9989 13.9989 13.9989z" fill="#ffb02e"/><path d="m10.5 19c2.4853 0 4.5-2.0147 4.5-4.5 0-1.5759-.8101-2.9627-2.0366-3.7665l-1.9539.6247-1.80294-1.1696c-1.85485.5557-3.20656 2.2757-3.20656 4.3114 0 2.4853 2.01472 4.5 4.5 4.5z" fill="#fff"/><path d="m21.5 19c2.4853 0 4.5-2.0147 4.5-4.5 0-2.0358-1.3518-3.7558-3.2067-4.3114l-1.7334 1.3509-2.0122-.8132c-1.2327.8027-2.0477 2.193-2.0477 3.7737 0 2.4853 2.0147 4.5 4.5 4.5z" fill="#fff"/><g fill="#402a32"><path d="m13 11c0 1.1046-.8954 2-2 2-1.10457 0-2-.8954-2-2 0-.284.05921-.5543.16597-.799.42152-.1306.86953-.201 1.33403-.201.9183 0 1.7723.275 2.4842.7472.0104.0828.0158.1672.0158.2528z"/><path d="m23 11c0 1.1046-.8954 2-2 2s-2-.8954-2-2c0-.0856.0054-.17.0158-.2528.7119-.4722 1.5659-.7472 2.4842-.7472.4645 0 .9125.0704 1.334.201.1068.2447.166.515.166.799z"/><path d="m12 25c0-.5523.4477-1 1-1h6c.5523 0 1 .4477 1 1s-.4477 1-1 1h-6c-.5523 0-1-.4477-1-1z"/></g></svg>
