<svg fill="none" viewBox="0 0 32 32" xmlns="http://www.w3.org/2000/svg"><path d="m15.9989 29.9978c9.3344 0 13.9989-6.2675 13.9989-13.9989 0-7.73139-4.6645-13.9989-13.9989-13.9989-9.33447 0-13.9989 6.26751-13.9989 13.9989 0 7.7314 4.66443 13.9989 13.9989 13.9989z" fill="#ffb02e"/><g fill="#402a32"><path d="m13.4472 15.1055c.494.247.6942.8477.4472 1.3417-.722 1.4441-2.1889 2.2053-3.5903 2.4074-1.38852.2003-2.97415-.1105-4.01121-1.1475-.39052-.3905-.39052-1.0237 0-1.4142.39053-.3906 1.02369-.3906 1.41422 0 .46294.4629 1.34238.722 2.31139.5822.9561-.1379 1.7393-.6267 2.0871-1.3223.247-.494.8476-.6942 1.3416-.4473z"/><path d="m18.5528 15.1055c-.494.247-.6942.8477-.4472 1.3417.722 1.4441 2.1889 2.2053 3.5903 2.4074 1.3885.2003 2.9741-.1105 4.0112-1.1475.3905-.3905.3905-1.0237 0-1.4142-.3905-.3906-1.0237-.3906-1.4142 0-.4629.4629-1.3424.722-2.3114.5822-.9561-.1379-1.7393-.6267-2.0871-1.3223-.247-.494-.8476-.6942-1.3416-.4473z"/><path d="m11.7584 24.7258c2.3408-2.3493 6.1386-2.3574 8.4871-.0261.392.3891 1.0251.3868 1.4142-.0052.3891-.3919.3868-1.0251-.0051-1.4142-3.1315-3.1086-8.1937-3.0968-11.3129.0339-.38986.3912-.3887 1.0244.0025 1.4142.3913.3898 1.0244.3887 1.4142-.0026z"/></g></svg>
