<svg fill="none" viewBox="0 0 32 32" xmlns="http://www.w3.org/2000/svg"><path d="m15.9989 29.9978c9.3344 0 13.9989-6.2675 13.9989-13.9989 0-7.73139-4.6645-13.9989-13.9989-13.9989-9.33447 0-13.9989 6.26751-13.9989 13.9989 0 7.7314 4.66443 13.9989 13.9989 13.9989z" fill="#ffb02e"/><path d="m11 16c0 1.1046-1.34315 2-3 2s-3-.8954-3-2 1.34315-2 3-2 3 .8954 3 2z" fill="#ff6723"/><path d="m27 16c0 1.1046-1.3431 2-3 2s-3-.8954-3-2 1.3431-2 3-2 3 .8954 3 2z" fill="#ff6723"/><g fill="#402a32"><path d="m6.97423 9.65811c.14346-.43037.50202-1.10762 1.09492-1.6705.5844-.55481 1.38283-.98761 2.43075-.98761.2761 0 .5-.22386.5-.5s-.2239-.5-.5-.5c-1.3521 0-2.387.5672-3.11926 1.26239-.72377.68712-1.16522 1.50987-1.35509 2.0795-.08732.26197.05426.54513.31623.63245.26197.08736.54513-.05425.63245-.31623z"/><path d="m23.9309 7.98761c.5929.56288.9514 1.24013 1.0949 1.6705.0873.26198.3705.40359.6324.31623.262-.08732.4036-.37048.3163-.63245-.1899-.56963-.6314-1.39238-1.3551-2.0795-.7323-.69519-1.7672-1.26239-3.1193-1.26239-.2761 0-.5.22386-.5.5s.2239.5.5.5c1.0479 0 1.8464.4328 2.4308.98761z"/><path d="m8.98156 13.1909c.04808-.2473.15815-.5504.3674-.7784.17933-.1954.49802-.4125 1.15094-.4125.6418 0 .9686.2216 1.1573.4288.2181.2395.3232.5449.3575.7423.0945.5441.6122.9086 1.1563.8142.5442-.0945.9087-.6123.8142-1.1564-.079-.4549-.3053-1.1495-.8495-1.7469-.5737-.6298-1.4402-1.082-2.6358-1.082-1.18426 0-2.04721.4313-2.62439 1.0601-.54725.5963-.76855 1.2932-.85718 1.749-.10542.5422.24861 1.0671.79074 1.1725s1.06707-.2486 1.17249-.7907z"/><path d="m19.9818 13.1909c.0481-.2473.1582-.5504.3674-.7784.1793-.1954.498-.4125 1.151-.4125.6417 0 .9685.2216 1.1572.4288.2182.2395.3233.5449.3575.7423.0945.5441.6122.9086 1.1564.8142.5441-.0945.9086-.6123.8141-1.1564-.079-.4549-.3052-1.1495-.8495-1.7469-.5736-.6298-1.4402-1.082-2.6357-1.082-1.1843 0-2.0473.4313-2.6244 1.0601-.5473.5963-.7686 1.2932-.8572 1.749-.1054.5422.2486 1.0671.7907 1.1725s1.0671-.2486 1.1725-.7907z"/><path d="m9.40006 18.2001c.44183-.3314 1.06864-.2419 1.40004.2.3414.4552 2.062 2.1 5.2 2.1s4.8585-1.6448 5.2-2.1c.3313-.4419.9581-.5314 1.4-.2.4418.3313.5313.9581.2 1.4-.6586.8781-2.938 2.9-6.8 2.9s-6.14146-2.0219-6.80004-2.9c-.33137-.4419-.24183-1.0687.2-1.4z"/></g></svg>
