<svg fill="none" viewBox="0 0 32 32" xmlns="http://www.w3.org/2000/svg"><path d="m15.9989 29.9978c9.3344 0 13.9989-6.2675 13.9989-13.9989 0-7.73139-4.6645-13.9989-13.9989-13.9989-9.33447 0-13.9989 6.26751-13.9989 13.9989 0 7.7314 4.66443 13.9989 13.9989 13.9989z" fill="#ffb02e"/><path d="m10.5 16c2.4853 0 4.5-2.0147 4.5-4.5 0-2.48528-2.0147-4.5-4.5-4.5-2.48528 0-4.5 2.01472-4.5 4.5 0 2.4853 2.01472 4.5 4.5 4.5z" fill="#fff"/><path d="m21.5 16c2.4853 0 4.5-2.0147 4.5-4.5 0-2.48528-2.0147-4.5-4.5-4.5s-4.5 2.01472-4.5 4.5c0 2.4853 2.0147 4.5 4.5 4.5z" fill="#fff"/><path d="m12 14c1.1046 0 2-.8954 2-2s-.8954-2-2-2-2 .8954-2 2 .8954 2 2 2z" fill="#402a32"/><path d="m20 14c1.1046 0 2-.8954 2-2s-.8954-2-2-2-2 .8954-2 2 .8954 2 2 2z" fill="#402a32"/><path d="m12 22c0-2.2091 1.7909-4 4-4s4 1.7909 4 4v2c0 2.2091-1.7909 4-4 4s-4-1.7909-4-4z" fill="#bb1d80"/></svg>
