<svg fill="none" viewBox="0 0 32 32" xmlns="http://www.w3.org/2000/svg"><path d="m15.9989 29.9978c9.3344 0 13.9989-6.2675 13.9989-13.9989 0-7.73139-4.6645-13.9989-13.9989-13.9989-9.33447 0-13.9989 6.26751-13.9989 13.9989 0 7.7314 4.66443 13.9989 13.9989 13.9989z" fill="#ffb02e"/><path d="m13.9577 17.3801c.6508-.7804 1.0423-1.7845 1.0423-2.8801 0-2.4853-2.0147-4.5-4.5-4.5-2.48528 0-4.5 2.0147-4.5 4.5 0 1.0956.39151 2.0997 1.04226 2.8801.4187-.2101.94518-.4342 1.54512-.6037.57935-.1636 1.99072-.8272 1.99072-.8272s1.8697.7981 2.6195 1.0919c.2808.11.5359.2265.7601.339z" fill="#fff"/><g fill="#402a32"><path d="m6.97423 9.65811c.14346-.43037.50202-1.10762 1.09492-1.6705.5844-.55481 1.38283-.98761 2.43075-.98761.2761 0 .5-.22386.5-.5s-.2239-.5-.5-.5c-1.3521 0-2.387.5672-3.11926 1.26239-.72377.68712-1.16522 1.50987-1.35509 2.0795-.08732.26197.05426.54513.31623.63245.26197.08736.54513-.05425.63245-.31623z"/><path d="m21.5 8c-.2761 0-.5.22386-.5.5s.2239.5.5.5c.5591 0 1.3408.2157 2.0404.66948.6934.44972 1.2626 1.10412 1.4745 1.95182.067.2679.3385.4307.6064.3638.2679-.067.4307-.3385.3638-.6064-.2881-1.1523-1.0522-1.99793-1.9005-2.54818-.8421-.54622-1.8103-.83052-2.5846-.83052z"/><path d="m14 15c0 .7885-.3042 1.5059-.8016 2.0414-.75-.2939-1.6829-.5414-2.6984-.5414-.6871 0-1.33643.1133-1.91686.2776-.36654-.4975-.58314-1.1122-.58314-1.7776 0-1.6569 1.34315-3 3-3 1.6569 0 3 1.3431 3 3z"/><path d="m18.9701 15.2425c.0778-.3111.5751-1.2425 2.0299-1.2425s1.9521.9314 2.0299 1.2425c.1339.5358.6768.8616 1.2126.7276.5358-.1339.8616-.6768.7276-1.2126-.2555-1.0223-1.4249-2.7575-3.9701-2.7575s-3.7146 1.7352-3.9701 2.7575c-.134.5358.1918 1.0787.7276 1.2126.5358.134 1.0787-.1918 1.2126-.7276z"/><path d="m16 23.0001c3.138 0 4.8586-1.6448 5.2-2.1.3314-.4419.9582-.5314 1.4-.2.4418.3313.5314.9581.2 1.4-.6586.8781-2.938 2.9-6.8 2.9-3.1118 0-5.1094-1.4792-5.8-2.4-.33137-.4419-.24183-1.0687.2-1.4.4418-.3314 1.0686-.2419 1.4.2.3094.4124 1.7118 1.6 4.2 1.6z"/></g></svg>
