<svg clip-rule="evenodd" fill-rule="evenodd" stroke-linejoin="round" stroke-miterlimit="2" viewBox="0 0 124 32" xmlns="http://www.w3.org/2000/svg"><path d="m10.071-6.217s-5.443 5.662-5.49 11.133c.735 5.64 3.109 4.508 5.49 16.309 2.599-1.004 7.851-7.87 6.791-17.559-1.375-6.919-6.791-9.883-6.791-9.883" fill="#b9d15c" transform="matrix(.41433350249 .54451559626 .54451559626 -.41433350249 3.9225514306 5.059466506)"/><path d="m0 19.427s6.024-4.833 12.579-8.162c10.366-5.265 13.059-11.265 13.059-11.265s-2.996 5.613-13.362 10.878c-6.554 3.328-12.58 8.162-12.58 8.162z" fill="#9ac122" transform="matrix(.684229 0 0 .684229 1.9580615487 2.206915805)"/><g fill="#fff"><path d="m0-33.207v21.655c0 6.688-4.771 11.552-10.804 11.552s-10.803-4.864-10.803-11.552 4.77-11.552 10.803-11.552c3.414 0 5.566 1.684 6.922 2.806v2.105c-1.918-2.012-3.975-3.227-6.922-3.227-4.49 0-8.933 4.162-8.933 9.868s4.443 9.868 8.933 9.868c5.332 0 9.027-4.723 9.027-9.868v-21.655z" fill-rule="nonzero" transform="matrix(.684229 0 0 .684229 27.3729266789 29.489178722)"/><path d="m0 .001c0 5.145 3.929 9.868 9.354 9.868s9.354-4.723 9.354-9.868-3.929-9.868-9.354-9.868-9.354 4.723-9.354 9.868m20.579 0c0 6.267-4.864 11.552-11.225 11.552s-11.225-5.285-11.225-11.552c0-6.268 4.864-11.553 11.225-11.553s11.225 5.285 11.225 11.553" fill-rule="nonzero" transform="matrix(.684229 0 0 .684229 31.7462447553 21.584965314)"/><path d="m0-16.089h7.857v1.684h-7.857v14.311c0 2.807 1.684 4.49 4.303 4.49h3.554v1.684h-3.18c-4.209 0-6.454-2.432-6.454-6.36v-21.889h1.777z" fill-rule="nonzero" transform="matrix(.684229 0 0 .684229 50.1783476718 25.009531459)"/><path d="m0-18.895h-3.228c-5.658 0-9.54 3.835-9.54 9.447 0 5.613 3.882 9.449 9.54 9.449h3.228v1.87h-3.32c-6.454 0-11.319-4.583-11.319-11.319 0-6.735 4.865-11.318 11.319-11.318h3.32z" fill-rule="nonzero" transform="matrix(.684229 0 0 .684229 67.170353812 27.88945132)"/><path d="m71.3301240175 6.767986319h1.215874933v22.400973231h-1.215874933z" stroke-width=".684229"/><path d="m0 6.267 14.264-9.634c-1.636-2.058-4.208-3.367-7.156-3.367-5.659 0-9.634 4.724-9.634 10.008 0 5.238 4.116 9.728 9.634 9.728 5.379 0 9.635-4.349 9.729-9.401h1.871c-.141 5.894-4.957 11.085-11.225 11.085-6.922 0-11.879-5.004-11.879-11.505 0-6.268 4.676-11.6 11.504-11.6 4.256 0 7.858 2.199 9.869 5.425l-15.855 10.758z" fill-rule="nonzero" transform="matrix(.684229 0 0 .684229 79.71363984 19.440591628)"/><path d="m0 22.169v-11.084c0-5.145-3.694-9.868-9.026-9.868-4.49 0-8.933 4.162-8.933 9.868s4.443 9.868 8.933 9.868c2.946 0 5.005-1.216 6.922-3.227v2.104c-1.357 1.123-3.508 2.807-6.922 2.807-6.034 0-10.804-4.864-10.804-11.552s4.77-11.553 10.804-11.553c6.033 0 10.803 4.865 10.803 11.553v11.084z" fill-rule="nonzero" transform="matrix(.684229 0 0 .684229 107.937401861 14.000971078)"/><path d="m0 22.169v-22.169h1.777v4.256h.094c1.029-2.244 3.649-4.256 6.548-4.256h2.058v1.684h-1.872c-3.459 0-6.828 3.648-6.828 8.886v11.599z" fill-rule="nonzero" transform="matrix(.684229 0 0 .684229 112.993169942 14.000971078)"/></g></svg>