<svg clip-rule="evenodd" fill-rule="evenodd" stroke-linejoin="round" stroke-miterlimit="2" viewBox="0 0 32 32" xmlns="http://www.w3.org/2000/svg"><path d="m6.891-4.254s-3.725 3.874-3.756 7.617c.502 3.859 2.128 3.084 3.756 11.159 1.779-.686 5.371-5.384 4.647-12.014-.942-4.734-4.647-6.762-4.647-6.762" fill="#fff" transform="matrix(.605558 .795801 .795801 -.605558 4.872 5.535)"/><path d="m0 13.292s4.122-3.307 8.607-5.584c7.092-3.603 8.935-7.708 8.935-7.708s-2.05 3.84-9.143 7.443c-4.484 2.277-8.607 5.585-8.607 5.585z" fill="#e6e7e8" transform="translate(2.908 2.683)"/><path d="m0-21.299v13.38c0 4.739-3.029 7.919-7.26 7.919-4.679 0-7.439-3.6-7.439-7.86 0-4.02 3.24-7.139 6.929-7.139 1.44 0 2.821.3 4.081 1.019v2.76c-.961-.66-2.43-1.26-3.631-1.26-2.85 0-4.739 1.981-4.739 4.951 0 2.939 1.979 5.009 4.799 5.009 2.52 0 4.621-1.92 4.621-5.88v-12.899z" fill="#a2cbe9" fill-rule="nonzero" transform="translate(29.3 29.775)"/></svg>