<svg clip-rule="evenodd" fill-rule="evenodd" stroke-linecap="round" stroke-linejoin="round" viewBox="0 0 64 64" xmlns="http://www.w3.org/2000/svg"><path d="m.0003 0h64v64h-64z" fill="none"/><g stroke-width="4" transform="matrix(1.3411 0 0 1.3411 5.1783 4.5)"><path d="m20 21v14.554c0 3.014 2.486 5.457 5.5 5.457s5.5-2.443 5.5-5.457" fill="none" stroke="#676e78" transform="matrix(1 0 0 .662601 0 13.8372)"/><path d="m20 0v4" fill="none" stroke="#676e78"/><path d="m12.727 24c2.425-2.424 4.849-3.636 7.273-3.636s4.848 1.212 7.273 3.636c2.828-2.424 4.949-3.636 6.363-3.636 1.415 0 3.536 1.212 6.364 3.636 0-11.046-8.954-20-20-20s-20 8.954-20 20c2.828-2.424 4.949-3.636 6.364-3.636 1.414 0 3.535 1.212 6.363 3.636z" fill="#167bba" fill-rule="nonzero" stroke="#167bba" stroke-linecap="butt"/></g></svg>