<svg clip-rule="evenodd" fill-rule="evenodd" stroke-linejoin="round" stroke-miterlimit="2" viewBox="0 0 411 131" xmlns="http://www.w3.org/2000/svg" xmlns:dc="http://purl.org/dc/elements/1.1/">
  <title property="dc:title">Dotclear 2.38</title>
  <desc property="dc:description">Dotclear logo</desc>
  <path d="m-4-1h425v137h-425z" fill="#fff" transform="matrix(.967059 0 0 .960155 3.868235 .689566)" />
  <path d="m0-104.49h67.44c10.03 0 18.16 8.19 18.16 18.29v67.91c0 10.1-8.13 18.29-18.16 18.29h-67.44c-10.03 0-18.16-8.19-18.16-18.29v-67.91c0-10.1 8.13-18.29 18.16-18.29" fill="#ececec" transform="translate(32.87685 118.20198)" />
  <path d="m22.334-13.733s-12.14 12.667-12.231 24.844c1.63 12.534 6.918 9.981 12.231 36.197 5.786-2.28 17.495-17.628 15.131-39.175-3.075-15.357-15.131-21.866-15.131-21.866" fill="#aedc4b" transform="matrix(.608277 .793725 .793725 -.608277 27.31185 30.47198)" />
  <path d="m0 43.4s13.37-10.8 27.91-18.24c23-11.76 28.98-25.16 28.98-25.16s-6.65 12.53-29.65 24.3c-14.54 7.44-27.91 18.24-27.91 18.24z" fill="#9acf00" transform="translate(21.05685 20.92198)" />
  <g fill-rule="nonzero">
    <path d="m.458-.7v.463c0 .11-.079.211-.193.211-.096 0-.191-.089-.191-.211s.095-.211.191-.211c.063 0 .107.026.148.069v-.045c-.029-.024-.075-.06-.148-.06-.129 0-.231.104-.231.247s.102.247.231.247.231-.104.231-.247v-.463z" fill="#008ed2" transform="matrix(95.999974 0 0 95.999974 62.56885 112.082017)" />
    <path d="m.278-.448c.116 0 .2.101.2.211s-.084.211-.2.211-.2-.101-.2-.211.084-.211.2-.211zm0-.036c-.136 0-.24.113-.24.247s.104.247.24.247.24-.113.24-.247-.104-.247-.24-.247z" fill="#494b4b" transform="matrix(96 0 0 96 120.47685 112.20218)" />
    <path d="m.098-.604h-.038v.468c0 .084.048.136.138.136h.068v-.036h-.076c-.056 0-.092-.036-.092-.096v-.306h.168v-.036h-.168z" fill="#494b4b" transform="matrix(96 0 0 96 173.79795 112.20218)" />
    <path d="m.351-.484h-.071c-.138 0-.242.098-.242.242s.104.242.242.242h.071v-.04h-.069c-.121 0-.204-.082-.204-.202s.083-.202.204-.202h.069z" fill="#494b4b" transform="matrix(96 0 0 96 200.43115 112.20218)" />
    <path d="m246.552 45.002h3.648v67.2h-3.648z" fill="#494b4b" />
    <path d="m.156-.138.339-.23c-.043-.069-.12-.116-.211-.116-.146 0-.246.114-.246.248 0 .139.106.246.254.246.134 0 .237-.111.24-.237h-.04c-.002.108-.093.201-.208.201-.118 0-.206-.096-.206-.208 0-.113.085-.214.206-.214.063 0 .118.028.153.072l-.305.206z" fill="#494b4b" transform="matrix(96 0 0 96 258.97785 112.20218)" />
    <path d="m.496 0v-.237c0-.143-.102-.247-.231-.247s-.231.104-.231.247.102.247.231.247c.073 0 .119-.036.148-.06v-.045c-.041.043-.085.069-.148.069-.096 0-.191-.089-.191-.211s.095-.211.191-.211c.114 0 .193.101.193.211v.237z" fill="#494b4b" transform="matrix(96 0 0 96 312.29885 112.20218)" />
    <path d="m.098 0v-.248c0-.112.072-.19.146-.19h.04v-.036h-.044c-.062 0-.118.043-.14.091h-.002v-.091h-.038v.474z" fill="#494b4b" transform="matrix(96 0 0 96 365.61985 112.20218)" />
  </g>
  <path d="m394 19.5v21c0 5.795-4.598 10.5-10.261 10.5h-65.478c-5.663 0-10.261-4.705-10.261-10.5v-21c0-5.795 4.598-10.5 10.261-10.5h65.478c5.663 0 10.261 4.705 10.261 10.5z" fill="#ebebeb" transform="matrix(1.023256 0 0 1 -7.162791 -1)" />
  <path d="m.51-.088h-.352v-.002l.195-.152c.095-.07.16-.134.16-.249 0-.124-.1-.221-.224-.221-.13 0-.248.085-.248.223 0 .101.051.175.146.21l.082-.065c-.068-.007-.132-.06-.132-.132 0-.088.052-.148.142-.148.078 0 .138.055.138.134 0 .059-.038.108-.076.138l-.246.193c-.044.035-.063.048-.063.085 0 .046.033.074.094.074h.384z" fill="#008ed2" fill-rule="nonzero" transform="matrix(42 0 0 42 311.15185 43.36398)" />
  <path d="m.08-.053c0 .033.027.059.059.059s.059-.026.059-.059-.027-.059-.059-.059-.059.026-.059.059z" fill="#494b4b" fill-rule="nonzero" transform="matrix(42 0 0 42 334.50385 43.36398)" />
  <path d="m.045-0h.257c.118 0 .209-.089.209-.223 0-.126-.096-.203-.226-.205l.094-.08c.045-.04.084-.066.084-.116 0-.051-.033-.076-.099-.076h-.303v.088h.3l-.219.202v.07h.109c.105 0 .164.051.164.12 0 .073-.047.132-.139.132h-.231z" fill="#9acf00" fill-rule="nonzero" transform="matrix(42 0 0 42 346.17985 43.36398)" />
  <path d="m.029-.21c0 .116.088.222.249.222s.249-.106.249-.222c0-.09-.044-.15-.112-.186.041-.041.062-.086.062-.142 0-.108-.086-.174-.199-.174-.125 0-.203.088-.203.174 0 .066.024.103.066.142-.066.042-.112.105-.112.186zm.102-.001c0-.081.06-.135.147-.135s.147.054.147.135-.06.135-.147.135-.147-.054-.147-.135zm.046-.318c0-.053.039-.095.099-.095s.099.042.099.095-.039.095-.099.095-.099-.042-.099-.095z" fill="#9acf00" fill-rule="nonzero" transform="matrix(42 0 0 42 369.53185 43.36398)" />
</svg>
